<svg width="96" height="96" fill="none" xmlns="http://www.w3.org/2000/svg"><path d="M64.486 35.833c-1.664-1.43-3.803-1.43-5.705-1.192-2.139.238-4.04.477-6.18.477-10.46-.244-20.911-1.192-31.372-1.192-3.335 0-6.655.715-5.467 4.53 1.188 4.529 2.614 9.058 4.04 13.587.713 2.384 1.427 4.53 2.14 6.913.713 1.907 1.188 4.053 2.852 5.245 1.663 1.43 3.565 1.43 5.704 1.43h7.13c4.516 0 9.27-.238 13.785-.238 3.803 0 10.22 1.192 11.884-3.814.476-1.907.713-3.815.95-5.722.239-2.383.714-5.006.952-7.39.237-2.383.713-4.529.95-6.913.238-2.384 0-4.29-1.663-5.721z" fill="#FFD000"/><path d="M64.414 32.13c-1.468 7.995-5.113 26.083-5.356 28.39-.243 2.308-1.822 3.897-2.58 4.403-9.06-.1-27.906-.243-30.82 0-2.916.243-3.948-2.834-4.1-4.403L15.18 36.836c-.607-1.771-.474-4.706 3.092-4.706H64.414zm0 0c.86-4.657 2.043-12.693 7.144-13.665m0 0c5.102-.971 7.557-.404 9.362 0 1.804.405 4.726 1.238 4.543 4.264-.103 1.697-2.677 3.343-6.742 3.343-1.646 0-7.163-.892-7.163-7.607zM49.666 38.753c.126 6.122.478 18.09.899 20.86M29.722 37.796c-.234 1.17 1.17 19.72 1.287 21.124m-6.247-6.134c.702-.117 26.798.634 29.255 1.57m-14.444-16.56c-.234 1.17 1.038 20.412 1.155 21.816M22.903 43.877c.702-.117 29.833 1.145 32.29 2.081" stroke="#1B1B20" stroke-width="3" stroke-linecap="round" stroke-linejoin="round"/><path d="M32.535 26.146l-2.711-5.227M40.113 26.546l.045-10.645M46.705 26.4l1.805-4.05" stroke="#1B1B20" stroke-width="3" stroke-linecap="round"/><path d="M31.523 73.015c.005-2.747-3.716-2.893-5.577-2.623-7.177 3.415-2.646 8.578.698 8.853 3.345.275 4.874-2.797 4.88-6.23zM57.843 74.42c.004-2.748-3.598-3.69-5.458-3.42-7.178 3.415-2.647 8.579.698 8.854 3.344.275 4.754-2.001 4.76-5.435z" stroke="#1B1B20" stroke-width="3" stroke-linecap="round" stroke-linejoin="round"/></svg>