<svg width="1027" height="64" fill="none" xmlns="http://www.w3.org/2000/svg"><path d="M88.765 44.142v-3.157h2.501v3.157h-2.5zm-82.29-6.288c1.001 1.026 2.58 1.605 4.292 1.605 1.684 0 3.264-.579 4.29-1.605 1.238-1.263 1.632-2.5 1.606-5.157V19.2h4.87v14.76c0 3.078-.921 5.473-2.764 7.288-2.106 2.052-4.685 3.026-8.002 3.026-3.317 0-5.897-.974-8.003-3.026C.895 39.433 0 37.038 0 33.96V19.2h4.87v13.497c-.026 2.631.369 3.894 1.606 5.157zm36.407-14.05h-12.32v5.604H41.83v4.526H30.562v2.368c0 2.604.922 3.262 3.265 3.262h9.081v4.578h-9.345c-4.343 0-7.844-1.947-7.844-7.314V21.042c0-1.158.763-1.816 1.842-1.816h15.374v4.578h-.053zm8.24 10.13v10.208h-3.054c-1.053 0-1.816-.658-1.816-1.842V26.514c0-5.367 3.5-7.314 7.844-7.314h9.345v4.578H54.36c-2.342 0-3.264.631-3.264 3.262v2.368h11.293v4.526H51.122zM73.682 19.2c1.421 0 1.895.763 2.21 1.631l9.135 23.311h-5.212l-1.79-4.578h-5.95l1.633-4.578h2.527l-3.212-8.156-6.133 17.339h-4.87l8.266-23.311c.316-.869.79-1.632 2.21-1.632h1.186V19.2zm33.668 12.313c-.605-2.762-2.29-4.446-5.265-4.446-4.343 0-6.502 3.946-6.502 7.92 0 3.946 2.159 7.919 6.502 7.919 2.817 0 5.107-2.184 5.397-5.289h2.264c-.606 4.447-3.528 7.183-7.661 7.183-5.686 0-8.766-4.5-8.766-9.814s3.107-9.814 8.766-9.814c3.949 0 7.029 2.131 7.529 6.367h-2.264v-.026zm22.218 3.447c0 5.315-3.107 9.814-8.766 9.814-5.686 0-8.793-4.5-8.793-9.814 0-5.315 3.107-9.814 8.793-9.814 5.659 0 8.766 4.473 8.766 9.814zm-15.295 0c0 3.946 2.159 7.92 6.502 7.92 4.344 0 6.503-3.947 6.503-7.92 0-3.947-2.159-7.92-6.503-7.92-4.343 0-6.502 3.947-6.502 7.92zm18.006-9.288h2.08v3.131h.105c1.185-2.236 3.133-3.657 6.081-3.657 2.448 0 4.633 1.184 5.317 3.63 1.106-2.446 3.449-3.63 5.897-3.63 4.054 0 6.16 2.131 6.16 6.499V44.22h-2.264V31.75c0-3.052-1.158-4.71-4.396-4.71-3.922 0-5.028 3.237-5.028 6.683v10.498h-2.264V31.645c.026-2.526-1-4.605-3.896-4.605-3.922 0-5.502 2.947-5.528 6.841v10.366h-2.264V25.672zM262.156 13.095c.227 1.7 2.779 3.911 3.46 3.854.453 0 .623-2.21.623-3.854 0-.964.057-1.701-.453-1.928-.851 1.644-2.95 1.984-3.63 1.928zm.113-.737c1.815 0 3.517-1.474 3.517-2.721 0-.624-.284-1.077-1.021-1.19.113.17.17.283.17.566 0 .964-1.475 2.04-3.063 2.04-.567 0-.737.398-.737.624 0 .454.454.68 1.134.68zm-.397-1.984c-.227 0-.624 0-.794-.397-.17-.34-.113-.85-.397-1.077.284.113.624.113.851.113.794 0 1.531-.567 2.155-.567.397 0 .511.227.511.51 0 .737-1.588 1.418-2.326 1.418zm-39.418 13.774c.624 0 .454-3.684 1.418-3.684.227 0 .284.227.284.51 0 .85-.397 2.04-.397 2.721 0 .34.113.453.227.453.397 0 1.134-4.024 1.871-4.024.227 0 .341.227.341.453 0 .85-1.078 3.288-1.078 3.968 0 .114.057.17.114.17.453 0 1.304-1.927 1.588-2.834.17-.51.397-.737.567-.737.17 0 .34.17.34.624 0 .963-.907 3.174-1.645 4.705-.624 1.133-1.531 2.834-1.531 3.74 0 .454.113.965.794 1.588-1.134-.057-1.588-.17-1.985-1.077-1.872 3.741 3.46 3.401 1.645 6.69-.341-.625-2.95-1.191-2.95-4.706 0-3.004 2.666-4.762 2.666-6.009 0-.226-.113-.453-.34-.623-.567-.51-.624-.907-1.078-.907-.34 0-.737.793-.34 1.474.113.226.283.396.283.566 0 .51-.794 1.814-1.304 1.814-.567 0-.964-1.36-.964-3.514 0-1.927.454-3.911.964-3.911.17 0 .227.113.227.226 0 .227-.057.68-.057 1.474 0 .794.227.85.34.85zM249.451 6.86c.284 0 .341.68.397 1.077.057.227.057.227.171.227.226 0 .567-.794.794-.794.34 0 1.247.907 2.722.907 2.155 0 4.14-1.474 4.14-4.138 0-2.55-1.815-4.025-4.253-4.025-1.192 0-2.042.567-2.496.567-.284 0-.681-.68-.907-.68-.114 0-.171.17-.171.453 0 .17 0 .794-.226.794-.397 0-2.042-1.19-2.042-.794 0 .397 1.077 1.644 1.077 1.928 0 .34-1.077.623-1.077.85 0 .397 1.134.454 1.134.964s-1.191.907-1.191 1.247c0 .283 1.191.113 1.191.453 0 .397-.907 1.588-.907 1.928 0 .113 0 .113.113.113.284.057 1.305-1.077 1.531-1.077zm-22.573 26.02c0-.34.227-.681.624-.738.397-.056.681.227.737.624.057.397-.226.68-.623.737-.397 0-.738-.284-.738-.624zm-1.985.51a1.066 1.066 0 001.248.963c.227 0 .454-.113.567-.17.114.567.567.907 1.248.85.624-.056 1.134-.623 1.021-1.247a.816.816 0 00-.114-.397h.114c.624-.056 1.077-.623 1.021-1.247-.057-.623-.624-1.077-1.248-1.02-.227.057-.397.113-.567.227-.17-.51-.624-.964-1.248-.907-.624.056-1.078.623-1.021 1.303 0 .114.057.227.114.34h-.114c-.567.114-1.078.624-1.021 1.304zm39.248-32.255c0 .226.17.453.454.453.226 0 .453-.17.453-.453a.447.447 0 00-.453-.454.488.488 0 00-.454.454zM254.329 17.8c0 .396.34.736.737.736.397 0 .738-.34.738-.736a.751.751 0 00-.738-.737.75.75 0 00-.737.737zm.057 2.21c0 .454.397.85.85.85a.872.872 0 00.851-.85.872.872 0 00-.851-.85c-.51.057-.85.397-.85.85zm-2.553 1.53c0 .681.568 1.191 1.191 1.191.681 0 1.192-.567 1.192-1.19 0-.68-.568-1.19-1.192-1.19-.623-.057-1.191.51-1.191 1.19zm.681-2.493c0 .396.34.68.681.68.397 0 .68-.34.68-.68a.69.69 0 00-.68-.68.655.655 0 00-.681.68zm-2.325 1.417c0 .397.34.68.68.68a.69.69 0 00.681-.68.69.69 0 00-.681-.68c-.34-.057-.68.283-.68.68zm1.815-4.138c0 .623.51 1.133 1.134 1.133.624 0 1.134-.51 1.134-1.133 0-.624-.51-1.134-1.134-1.134-.624 0-1.134.51-1.134 1.134zm1.304-2.154c0 .396.284.68.681.68.397 0 .68-.284.68-.68a.655.655 0 00-.68-.68.69.69 0 00-.681.68zm-3.176 1.7c0 .397.284.68.681.68.397 0 .68-.283.68-.68a.655.655 0 00-.68-.68.655.655 0 00-.681.68zm-.057 2.268c0 .623.454 1.077 1.078 1.077.624 0 1.077-.454 1.077-1.077 0-.624-.453-1.077-1.077-1.077-.624 0-1.078.51-1.078 1.077zm-2.268 1.133c0 .567.453 1.02 1.02 1.02.568 0 1.021-.453 1.021-1.02s-.453-1.02-1.021-1.02c-.567 0-1.02.453-1.02 1.02zm.623-2.494c0 .397.341.68.681.68a.69.69 0 00.681-.68c0-.34-.341-.68-.681-.68a.69.69 0 00-.681.68zm-2.325 25.963c0 .396.34.68.681.68.397 0 .68-.34.68-.68a.69.69 0 00-.68-.68.655.655 0 00-.681.68zm-19-29.194c0 .397.34.68.681.68.397 0 .68-.34.68-.68a.69.69 0 00-.68-.68c-.341 0-.681.34-.681.68zm-.907-1.53c0 .396.34.68.68.68a.69.69 0 00.681-.68.69.69 0 00-.681-.68c-.34-.057-.68.283-.68.68zm.794 17.289c.737 0 1.361-.567 1.361-1.757v-1.814c0-.68.057-1.474.51-1.984-.056.226-.056.453-.056.68 0 1.53.85 2.55.85 4.025 0 .566-.17.85-.567.85-.397 0-.397-.397-.454-.397-.056 0-.17.227-.17.454 0 .396.284.963 1.021.963.624 0 1.135-.567 1.135-1.247 0-1.587-1.248-3.344-1.248-5.045 0-.737.17-1.247.34-1.644 0 3.515 2.949 6.066 2.949 7.54 0 .34-.227.623-.624.623s-.623-.34-.623-.567c0-.113 0-.17-.057-.17-.114 0-.397.34-.397.794 0 .567.454 1.303 1.361 1.303 1.021 0 1.531-.85 1.531-1.587 0-1.87-3.629-4.648-3.629-7.652 0-.51.113-1.36.453-1.984-2.325 1.473-3.062 3.457-3.062 5.215 0 1.53-.057 2.267-.851 2.267-.397 0-.511-.397-.624-.397-.113 0-.17.34-.17.397.057.794.51 1.134 1.021 1.134zm30.513-17.573c.794 0 1.361-.34 1.361-.567 0-.056-.113-.113-.34-.113-.227 0-.681 0-1.531-.17-.738-.114-1.305-.397-1.532-.397-.056 0-.113.057-.113.113 0 .397.851 1.134 2.155 1.134zm-3.857-2.267c.227-.114 1.191.113 2.496-.567.17-.114.34-.114.454-.114.624 0 .453.68 1.021.68.453 0 1.02-.396 1.361-.396.51 0 1.304 1.644 1.304 2.437 0 .907-1.361 1.418-2.949 1.418-2.325 0-3.743-2.041-3.743-3.345-.057 0 0-.057.056-.113zm-26.316 26.472c-.567.114-1.531 1.077-1.531 2.495 0 1.7 1.871 4.364 4.877 4.364 2.553 0 3.233-1.757 3.233-3.004 0-2.664-1.645-4.535-3.743-4.535-1.135 0-2.212.85-2.212 2.097 0 1.19.907 2.891 2.949 2.891.964 0 1.588-.68 1.588-1.53 0-.794-.737-1.87-1.758-1.87-.34 0-.567.226-.567.566 0 .397.567.85 1.304.85.17 0 .341-.056.397-.056.057.056.057.113.057.227 0 .396-.397.623-.964.623-.908 0-1.758-.68-1.758-1.7 0-.624.567-1.078 1.361-1.078 1.588 0 2.495 1.417 2.495 2.778 0 1.247-.68 1.984-2.098 1.984-2.836 0-4.254-2.494-3.63-5.102zm-1.758-19.103c-.397.113-1.248.623-1.248 1.474 0 .623.51 1.02 1.134 1.02.341 0 .568-.057.681-.17a1.996 1.996 0 01-.681-1.53c0-.397.057-.624.114-.794zm-4.311.227v.283c0 .85.454 1.304 1.021 1.304.454 0 .964-.284 1.418-.85-.17.056-.397.056-.624.056-.68-.056-1.418-.227-1.815-.793zm-.624 1.587c0 1.36.397 1.984 1.135 1.984.567 0 1.304-.397 2.212-1.19-.681.17-1.191.283-1.702.283-.624-.057-1.134-.284-1.645-1.077zm26.827 27.606c.851 0 .794-.056 1.078-.056.283 0 .283.17.283.283 0 .397-.85.85-2.382.85-.907 0-1.418-.453-1.588-1.02-.907.567-2.212 1.077-3.516 1.077-3.63 0-4.537-1.587-5.672-2.098-.85-.396-2.212.397-4.027-1.7.227.057.568.057.851.057 1.645 0 2.496-.794 2.496-2.041 0-.17 0-.34-.057-.51.51.17 1.645 1.02 1.872 2.55.056.17.737.34 1.191.34.624 0 1.418-.283 1.588-1.303 2.098-.17 3.516-1.417 3.856-3.004.738.226 1.645.907 1.815 1.303.284-.113.624-.17 1.078-.17.567 0 1.191.114 1.928.34.057-.226.057-.51.397-.51.511 0 .397.567.568.907.113.17.51.284.51.624s-.284.453-.454.453c-.056 0-.17 0-.227-.056-.34.113-.397 2.664-1.871 2.664-1.078 0-2.099-.907-2.553-2.04-.113-.341-.397-.568-.623-.568-.284 0-.454.057-.794.397-.965 1.02-2.553 1.927-4.481 1.927-.624 0-1.078-.056-1.191-.056-.057 0-.057 0-.057.056 0 .114.624.624 1.929.624 3.119 0 3.856-1.757 4.367-1.757.056 0 .283 0 .397.283.737 1.757 2.268 2.154 3.289 2.154zm-10.038-35.372c1.134 0 1.701 1.02 1.701 2.154 0 .51-.113 1.19-.397 1.19-.227 0-.17-.396-.227-.793-.057-.454-.113-.567-.283-.567-.284 0-.511.68-.511 1.36 0 .397.057.85.397.85.17 0 .34-.113.454-.17-.057.794-.681 1.531-1.532 1.531-1.531 0-2.155-1.814-2.325-2.89-.907.963-1.815 1.7-3.346 1.7-1.418 0-2.099-1.077-2.099-2.041 0-.284.114-1.077.454-1.077.454 0 .057 1.417.908 1.417.226 0 .623-.17.794-.737a3.5 3.5 0 00.17-1.02c0-.454-.114-.794-.454-.794-.284 0-.681.227-.794.34.397-1.247 1.418-1.927 2.552-1.927 1.418 0 2.155 1.247 2.155 2.607 0 .17 0 .397-.056.624.737-1.02 1.588-1.757 2.439-1.757zM233.004.397c0-.114-.511-.227-1.248-.227-1.134 0-.964.964-1.872.964-.907 0-.68-.964-1.871-.964-.681 0-1.362.113-1.362.283 0 .227.851.114.851.68 0 .624-1.758.794-1.758 1.134 0 .114.113.17.34.17.397 0 1.021-.17 1.418-.17.284 0 .511.057.511.284 0 .453-.965 1.247-.965 1.587 0 .113.114.113.171.113.34 0 .964-.907 1.531-.907.907 0 .34 1.985.851 1.985.51 0 .283-1.928 1.077-1.928.624 0 1.078 1.36 1.475 1.36.113 0 .17-.113.17-.226 0-.397-.51-1.134-.51-1.644 0-.283.226-.453.51-.453.397 0 .964.226 1.248.226.113 0 .227-.056.227-.17 0-.397-1.588-.907-1.588-1.417-.057-.453.794-.453.794-.68zm25.125 34.635c-.397 0-2.439 2.721-3.743 2.721-.341 0-.567-.623-.567-1.077 0-.227.17-.397.737-.567 3.006-.68 2.382-2.947 4.934-2.947 1.418 0 3.006.963 3.006 3.174 0 2.324-3.289 5.215-3.8 5.215-.397 0-.851-.567-.851-.964 0-.113.057-.283.397-.396 1.702-.68 2.666-2.211 2.666-3.005 0-.17-.113-.34-.34-.34-.284 0-1.588 2.948-3.006 2.948-.964 0-1.985-.907-1.985-1.304 0-.68 2.836-1.984 2.836-3.004.056-.397-.114-.454-.284-.454zm1.928-1.077c-.227 0-.51.17-.51.68s.397.85.624.964c.113.057.34.114.51.114.511 0 .908-.114.908-.567 0-.51-.794-1.19-1.532-1.19zM237.144 2.211c0 .34 1.134 1.02 1.645 1.02.283 0 .397-.397.397-.85 0-.51-.227-.567-.681-.567-.567 0-1.361.17-1.361.397zm1.872 3.458c0-1.077-2.893-3.005-2.893-3.798v-.114c.227-.567 2.609-.963 2.609-1.474 0-.226-.397-.226-.624-.226-1.645 0-4.027.623-4.027 1.19 0 .624 2.155 2.04 2.155 2.778 0 .17-.113.283-.34.283-.624 0-1.928-.737-2.495-.737-.284 0-.397.17-.397.454 0 .85 1.021 2.437 1.021 2.947 0 .057 0 .114-.114.114-.34 0-1.815-1.757-2.325-1.757-.17 0-.227.283-.227.623v.624c0 .396 0 .623-.227.623-.454 0-.681-1.304-1.134-1.304-.454 0-.567 2.268-.965 2.268-.51 0-.056-2.494-.567-2.494-.567 0-1.134 1.7-1.531 1.7-.113 0-.17-.113-.17-.283 0-.51.283-1.36.283-1.814 0-.227-.056-.397-.283-.397-.567 0-1.758.907-2.212.907-.057 0-.17-.057-.17-.113.056-.397 1.928-1.7 1.928-2.324 0-.567-2.666-.17-2.666-.85 0-.568 1.872-1.135 1.872-1.701 0-.51-2.212-.737-3.119-.737-1.021 0-1.588.113-1.588.396 0 .454 2.382.624 2.382 1.02 0 .398-2.439 1.418-2.439 2.042 0 .51 3.46.056 3.46.566 0 .624-3.006 3.175-3.006 4.025 0 .17.113.284.34.284.907 0 3.289-1.758 3.97-1.758.227 0 .227.284.227.51 0 .454-.17 1.134-.17 1.701 0 .397.113.68.454.68.623 0 1.247-1.133 1.701-1.133.567 0 .227 3.23 1.078 3.23.737 0 1.021-3.514 1.474-3.514.454 0 .851 1.02 1.248 1.02.51 0 .284-1.757.851-1.757.624 0 2.382 2.098 3.176 2.098.227 0 .34-.17.34-.454 0-.907-1.304-3.06-1.304-3.741 0-.114.056-.17.227-.17.68 0 2.722.963 3.629.963.341 0 .568-.17.568-.396zm24.047 20.237c.284-.907.624-1.474 1.191-2.438-.567-.283-2.098-.907-2.098-1.984 0-1.19 1.531-2.154 1.815-2.154.113 0 .17.114.17.34 0 .624-.284 1.644-.284 2.211 0 .51.341.964.624.964.284 0 1.135-1.077 1.135-2.098 0-1.87-1.645-2.437-2.156-2.437-.453 0-1.361.793-3.346.793-3.8 0-4.651-3.741-4.651-5.385 0-.057 0-.113.057-.113.113 0 .454.453 1.645.453.624 0 1.191-.17 2.098-.17 2.099 0 3.063 1.474 4.367 3.345.794.51 2.666 1.303 2.666 3.514 0 1.984-2.098 3.061-2.609 5.159.794-.114 1.305-1.53 2.099-1.53.397 0 .624.34.624.85 0 .793-.454 1.927-1.305 2.664v-.284c0-.51-.17-1.19-.737-1.19-.851 0-1.135.964-1.645 1.757-.51-1.814-1.191-3.401-2.439-4.421-1.248-1.02-3.403-.454-3.403-2.268 0-.51.341-1.19.341-1.757 0-.17-.057-.397-.114-.51 1.702.623 1.078 1.757 2.155 2.947.624.737 2.439 1.418 3.46 4.479 0-.114.057-.34.057-.454 0-2.607-3.46-5.158-3.744-6.235 1.985.226 2.383.737 3.29 3.344.113.624.737 1.984.737 2.608zm-37.829-14.342c.113-.283.17-.623.17-1.02 0-.85-.397-2.154-1.588-2.154-.681 0-1.191.566-1.191 1.19 0 1.417 1.361 1.984 2.609 1.984zm-1.532 4.478c-.567 0-1.191-.737-1.191-1.36 0-.34.284-.794.454-.794.057 0 .113.057.113.17.114.85.681 1.36 1.191 1.588.057.056.114.056.114.113 0 .113-.341.283-.681.283zm2.099-1.7c0 .226-.114.566-.397.566-.624 0-1.135-.906-1.135-1.473 0-.34.17-.397.454-.397.113 0 .17 0 .284.057.17.113.17.453.34.68.113.283.454.453.454.567zm-.624-1.814h-.397c-.567 0-1.361.113-2.042.567-1.531 1.02-1.304 2.607-1.531 3.004-.057.057-.057.113-.057.17 0 .17.17.34.34.34.114 0 .227-.057.284-.057.397 0 .907.284 1.588.284.397 0 .907-.113 1.474-.397 1.248-.623 1.759-2.21 1.759-2.437 0-.34-.284-.284-.511-.624-.227-.397-.113-.51-.283-.737-.057-.113-.284-.113-.624-.113zm1.871 2.834c-.397.454-.794 1.247-.794 2.04 0 .964.568 1.758 1.475 1.758.851 0 1.248-.737 1.248-1.474 0-1.247-1.078-2.097-1.929-2.324zm-3.8-3.401s-.51.397-1.134.397a1.343 1.343 0 01-1.361-1.36c0-.568.283-1.135.907-1.418v.283c0 1.078.568 1.814 1.588 2.098zm31.365 10.26c0-.34.34-.623.68-.623.397 0 .681.283.681.623 0 .397-.284.68-.681.68a.69.69 0 01-.68-.68zm.453 20.237c.114 0 .17.057.17.397 0 .397-.17.907-.794 1.304-.453.283-1.02.567-1.928.567.113-.397.227-.85.227-1.304 0-.113 0-.227-.057-.397h.284c1.418 0 1.985-.567 2.098-.567zm.114-1.757c.113-.114.17-.34.17-.51v-.397c0-.51-.794-.794-1.815-.794-1.305 0-1.985.567-1.985.85v.794c0 .34.794.68 1.701.68.794 0 1.475-.226 1.929-.623zm.964.227c-.454.34-1.531 1.133-3.29 1.133-.964 0-1.361-.283-1.531-.283-.17 0-.397.17-.567.397-.397.51-.964 1.417-.964 2.437 0 .68.567 1.417 1.588 1.417 3.289 0 5.785-2.04 5.785-3.74-.057-.965-.624-1.361-1.021-1.361zm.624-14.795c0 .453.113.963.567.963.397 0 .681-.567.681-1.19 0-.68-.114-1.247-.114-1.53 0-.114.057-.17.114-.17.283 0 .51.736.794.736.34 0 .794-.567.964-.567.056 0 .056.057.056.114 0 .283-.397.85-.397 1.077 0 .17 1.021.226 1.021.396 0 .284-1.077.284-1.588.51-.453.114-.794.397-.794.737 0 .34.341.397.851.397 1.191 0 1.985-.623 2.269-.623.056 0 .113.056.113.113 0 .17-.624.737-.624 1.02 0 .284 1.078.624 1.078.85 0 .057-.114.057-.227.057-.17 0-.511-.056-.737-.056-.114 0-.284 0-.341.113-.113.114.057 1.077-.227 1.077-.226 0-.85-2.097-2.155-2.097-.17 0-.34.17-.34.397 0 .68.681 1.53 1.361 1.927.284.17.794.397.794.51 0 .227-1.134 0-1.134.397 0 .34.113.794.113 1.077 0 .113 0 .17-.113.17-.227 0-.737-.964-.964-.964-.227 0-.681.567-.851.567-.057 0-.114-.056-.114-.113 0-.397.624-1.304.624-2.21 0-.398-.056-1.361-.567-1.361-.397 0-.907.68-1.134 1.36-.114.397-.057 1.87-.34 1.87-.284 0-.171-1.02-.568-1.02-.283 0-.85.454-1.02.454-.057 0-.057 0-.057-.057 0-.227.51-.907.51-1.02 0-.284-1.191-.284-1.191-.51 0-.114.454-.227.908-.284.907-.17 2.212-.793 2.212-1.7 0-1.02-.965-1.474-1.645-1.871-.34-.227-.681-.397-.681-.51 0-.114.397-.114.624-.114.284 0 .511 0 .511-.226 0-.17-.057-.454-.057-.737 0-.17 0-.34.113-.34.284 0 .624.85.794.85.284 0 .681-.68.908-.68.113 0 .113.056.113.226.17.567-.113 1.304-.113 1.985zm-8.451-5.159c.17 1.474 2.212.737 2.212 2.55 0 .284-.057.681-.057.965 0 .396.057.736.341.736.283 0 .397-.226.397-.51 0-.283-.057-.623-.057-.85 0-.623.454-.737.68-.737.681 0 1.191.68 2.212.68-.226 1.134-2.552.85-2.552 2.041 0 .624.624.737 1.021.737.397 0 .51-.057.51-.397 0-.17-.056-.397-.056-.51 0-.057.056-.113.113-.113.397 0 2.269 1.417 2.269 1.87 0 .397-1.985.794-2.609.794-.17 0-.227-.114-.227-.17 0-.114.284-.51.284-.68 0-.17-.284-.284-.965-.284-.34 0-.567.057-.567.284 0 .453.794 1.077.794 1.473 0 .34-.227.567-.794.567-.453 0-1.191-.397-1.191-.963 0-.51.511-.964.511-1.304 0-.113-.057-.227-.284-.227-.68 0-.851 1.7-3.119 1.927.397-.34.68-.68.68-1.473 0-.397-.113-.68-.113-1.078 0-.51.227-.793.624-.793.624 0 .964.907 1.418.907.227 0 .453-.227.453-.51 0-1.36-2.552-1.134-2.552-3.005 0-.453.17-1.077.624-1.927zm3.346 11.394c0 .227.17.453.397.453.284 0 .454-.226.454-.51 0-.396-.34-.907-.681-.907-.113 0-.113.227-.113.454.057.17-.057.397-.057.51zm-.907-2.324c1.871.34 2.836 1.757 2.836 3.06 0 .908-.568 1.702-1.532 1.702-.907 0-1.531-.624-1.531-1.588 0-.737.567-1.53.567-2.267 0-.284-.057-.624-.34-.907zm-2.326 3.004a.69.69 0 01.227.51c0 .284-.113.567-.113.85 0 .398.34.794.794.794.51 0 .851-.396.851-.85-.057-.68-.738-1.304-1.759-1.304zm5.842-1.134c.114.17.17.397.17.567 0 .51-.34.964-.34 1.474 0 .567.454 1.077 1.134 1.077.738 0 1.191-.567 1.191-1.247 0-.963-.85-1.757-2.155-1.87zm-5.445-.907c.795.114 1.021.397 1.021.624 0 .397-.34.51-.68.51-.227 0-.511-.056-.851-.056-.397 0-.794.113-1.078.453.227.057.568.17.568.567 0 1.02-2.836.17-2.836 2.778 0 1.417 1.418 2.89 3.63 2.89 1.134 0 1.871-.34 1.871-.793 0-.34-.624-.113-.624-.397 0-.113.227-.34.227-.567 0-.113-.056-.227-.227-.227-.34 0-.907.51-2.155.51-.964 0-1.871-.566-1.871-1.303 0-.17.056-.227.17-.227.113 0 .227.057.397.057.113 0 .113-.057.113-.284 0-.17 0-.736.34-.736.341 0 .965 1.247 3.403 1.247.794 0 2.382-.17 2.95-.68 0 1.927-1.532 4.478-4.708 4.478-3.289 0-5.048-2.665-5.048-5.045a5.19 5.19 0 015.218-5.159c.794 0 1.418.284 1.418.624 0 .453-1.134.17-1.248.736zm-12.704-18.026c0-.283-.057-.397-.113-.397-.171 0-.397.227-.624.68.056.624.113.908.34.908.113 0 .397-.624.397-1.19zm-2.439.68c.17 0 .454-.226.908-.736.056-.227.056-.454.056-.68 0-.34-.113-.738-.34-.738-.51 0-.794 1.418-.794 1.758-.057.226.057.396.17.396zm2.893 1.588c.453 0 .907-1.7.907-2.721 0-.227-.056-.454-.113-.454-.397 0-.964 1.758-.964 2.721-.057.284.056.454.17.454zm-4.311-.964c.624 0 1.305-3.231 1.305-3.798 0-.113-.057-.227-.17-.227-.568 0-1.305 3.061-1.305 3.742-.057.113 0 .283.17.283zm1.872 1.304c-.737 0-.794.907-.794 2.777-.567-1.19-1.475-2.494-2.609-2.494-.737 0-1.021.51-1.021 1.36 0 .17 0 .454.057.624.113-.283.397-.397.737-.397.737 0 1.645.567 2.269 1.36-.681-.113-1.361-.226-1.929-.226-.34 0-.68.057-.907.17-.51.227-1.191.964-1.191 2.154 0 .17 0 .397.057.567.624-1.36 2.268-1.984 3.289-1.984.227 0 .397 0 .511.057-.568.51-.681 1.36-.681 1.927 0 .284-.113.284-.34.284 0 .566.453 1.417.453 1.87 0 .17-.113.284-.17.34 0 .794.794 1.36.794 1.814a.431.431 0 01-.113.284c.057.34.907.85 1.021 1.077.17.397.283.397.397.397.283 0 .794-.34.794-.68 0-.114-.114-.227-.17-.284-.341-.227-.511-.794-.624-1.134-.114 0-.284-.056-.34-.227-.057-.226-.114-1.077-.227-1.473-.227-.057-.341-.114-.341-.624 0-.227.114-1.134.114-1.417-.114 0-.227-.057-.227-.284 0-.566.567-1.02.737-1.7 1.021.737 1.248 1.474 1.248 2.154 0 .34-.057.68-.113 1.02.737-.396 1.871-.907 1.871-2.04 0-.624-.283-1.36-2.268-1.644.623-.227 1.417-.34 2.041-.34 1.135 0 1.759.34 1.929 1.133.227-.34.397-.737.397-1.133 0-.85-.738-1.418-1.645-1.418-1.078 0-2.042.567-3.063 1.247.454-.963.794-1.53 1.361-1.53.114 0 .171 0 .284.057-.34-.85-1.134-1.644-1.588-1.644zm-11.23-10.94c0 .34-1.361 1.53-1.815 1.53-.17 0-.227-.227-.227-.397 0-.34.17-.85.341-1.02.227-.227.737-.34 1.191-.34.227.056.51.056.51.226zm40.949 23.638c.908 0 1.588 1.133 1.588 2.494 0 1.417-.68 2.947-1.871 4.025 0-2.381-2.95-1.644-2.95-3.345 0-.737.511-1.247 1.192-1.247.567 0 1.02.17 1.304.453-.34-.283-.454-.737-.454-1.133 0-.624.397-1.247 1.191-1.247zm-13.101-17.97c-.114-.227-.681-.34-.908-.34-.794 0-1.304.567-1.418 1.02a2.06 2.06 0 01-.113-.623c0-.794.51-1.701 1.815-1.701 1.134 0 1.588.624 1.701.624.171 0 .341-.17.511-.17.17 0 .17.283.17.51 0 .68-.34 1.927-1.134 2.38-.114-.283-.397-.623-.908-.85a.312.312 0 01-.17-.283c.057-.227.284-.454.454-.567zm-2.666 1.247c.454.454.851.624 1.361.624.171 0 .397-.057.568-.057.17 0 .283.057.283.17 0 .17-.17.51-.397.68.227.114.454.114.681.114 1.021 0 2.155-.624 2.155-2.211.227.283.34.85.34 1.133 0 1.928-1.418 2.665-2.722 2.665-.851 0-1.248-.284-1.361-.284-.341 0-.341.68-.568.624-.397-.057-.794-.964-.794-1.927 0-.454.171-1.078.454-1.531zm-12.194-5.102c0 .624 2.212 3.628 2.609 3.628.34 0 .624-.623.624-1.134 0-.113-.057-.283-.113-.396-.341-.454-2.553-2.211-3.063-2.211-.057 0-.057.057-.057.113zm25.409-1.474c0-1.247-3.006-1.587-3.006-1.87 0-.227 1.645-.624 2.552-.624-1.304-1.7-3.232-1.53-3.232-1.814 0-.17 1.417-.51 2.722-.51 1.078 0 2.098.227 2.098 1.077 0 .454-.397.907-.397 1.644 0 .397.171.737.681.737.567 0 .681-.567.681-1.19 0-.51-.114-.907-.114-1.134 0-.737.511-1.247 1.248-1.247.624 0 .737.283 1.645.283-.454.284-.624.794-.624 1.02 0 .737.454 1.248.454 2.778 0 2.778-2.609 3.741-5.786 3.741-.907 0-1.814-.056-2.722-.226-.113 0-.17-.057-.17-.114 0-.226 1.248-.34 1.248-1.474 0-.453-.114-.85-.114-1.02 0-.113.057-.113.114-.113.283 0 .794 1.02 1.758 1.02.283-.057.964-.113.964-.964zm2.949-1.757c0 1.587-1.134 2.778-3.233 3.118h.681c2.439 0 3.29-1.077 3.29-1.984 0-.51-.284-.964-.738-1.134zm-1.644 14.172c0-.397-.908-.397-1.021-1.417 0-.17-.057-.454-.284-.454-.34 0-.057.964-.397.964-.794 0-1.078-1.587-1.361-1.587-.057 0-.17.056-.17.283 0 .17.056.34.056.567 0 .227-.056.397-.283.397-.454 0-.908-1.134-1.305-1.134-.113 0-.17.057-.17.113 0 .227.341.624.341.794 0 .397-1.135.17-1.135.567 0 .17.17.227.397.227.397 0 .964-.17 1.248-.17.17 0 .454.056.454.283 0 .227-.624.567-.624.794 0 .113.113.17.17.17.454 0 1.304-.85 1.928-.85.114 0 .397.056.397.226 0 .227-.624.624-.624.964 0 .113.057.17.171.17.34 0 .737-.85 1.361-.85.227 0 .567.113.737.113.057-.057.114-.114.114-.17zM249.962 3.968c0-.17-.681-.567-.681-.794 0-.056.057-.056.114-.056.17 0 .51.056.794.056.227 0 .283-.963.453-.963.114 0 .341.907.511.907.227 0 .624-.284.851-.284.056 0 .056 0 .056.057 0 .113-.453.624-.453.737 0 .17.964.34.964.51 0 .17-1.021.17-1.021.34 0 .114.397.624.397.794 0 .057 0 .057-.057.057-.113 0-.68-.227-.851-.227-.17 0-.51.737-.68.737-.057 0-.114-.057-.114-.17l-.056-.68c0-.057-.057-.114-.114-.114h-.737c-.113 0-.113 0-.113-.057.056-.226.737-.737.737-.85zm3.46 3.345c-1.248 0-2.042-.624-2.042-.907 0-.17.113-.284.227-.284.397 0 1.247.624 1.531.624.057 0 .113-.057.113-.114 0-.34-.283-.85-.283-1.133 0-.057.056-.114.17-.114.454 0 1.191.17 1.531.17.114 0 .17-.056.17-.113 0-.397-1.134-1.134-1.134-1.36 0-.227 1.418-.51 1.418-.85 0-.341-1.928-.114-1.928-.454 0-.227.397-.68.397-.85-.057-.17-.114-.227-.227-.227-.17 0-1.021.34-1.361.34-.171 0-.397-.057-.397-.284 0-.397.68-.85 1.758-.85 1.758 0 2.779 1.19 2.779 3.231 0 2.551-1.758 3.175-2.722 3.175zm-11.911 30.44c0 .17-.057.34-.17.51-.17-.34-.737-.51-.964-.51-1.815 0-1.135 2.608-3.063 2.608-.794 0-.907-.114-1.191-.114-.113 0-.17.057-.17.17 0 .454.624 1.588 2.439 1.588s3.573-1.134 3.573-2.495c0-.226-.057-.453-.17-.736.056-.114.227-.17.397-.17.283 0 .453.34.68.34a.508.508 0 00.511-.51c0-.227-.114-.397-.341-.51a.514.514 0 00.227-.454.568.568 0 00-.567-.567.516.516 0 00-.397.17c-.057-.34-.227-.624-.567-.624-.284 0-.454.17-.454.51 0 .284.227.51.227.794zm-4.764.68c-.511 0-1.305-.566-1.305-.907 0-.283.227-.396.454-.396.454 0 1.248.566 1.248 1.02-.057.113-.114.284-.397.284zm-4.934-3.968c1.418.34 2.098 1.134 2.268 1.984.114.85.341 1.588.624 1.928.454.51 1.305.907 2.042.907.624 0 1.134-.227 1.134-.794 0-.623-.851-2.04-2.155-2.04h-.454c-.17 0-.397-.057-.51-.17-.284-.227-.397-1.588-.908-2.382-.567-.907-1.191-1.133-2.098-1.133-.624 0-1.305.34-1.305.85.114.397.284.567 1.362.85zm8.847-2.097c0-.794-1.644-.794-1.644-1.984 0-.284.17-.794.567-1.36.17.906.51 1.417 1.304 1.7 1.588.567 1.758 1.474 1.758 2.38 0 1.588-1.134 3.572-3.97 3.572-2.268 0-3.913-2.04-3.913-3.741 0-.454.113-1.02.397-1.02.283 0 .34.226.567.396.794.794 1.645 1.02 2.893 1.02 1.247-.056 2.041-.51 2.041-.963zm.114 1.247c-.624.227-.851.227-.851.85 0 .227-.057.51-.057.68 0 .227.057.34.284.34.624 0 1.645-1.076 1.645-1.983 0-.227-.114-.34-.284-.34-.17 0-.34.226-.737.453zm-5.672-8.9c0-1.133 2.666-1.7 2.666-3.117 0-.227-.114-.624-.227-.907.907.51 1.645 1.36 1.645 2.097 0 1.19-1.248 1.757-1.248 2.55 0 .908 1.361 1.021 1.361 2.098 0 .907-1.304 1.928-1.304 3.118 0 .907.624 1.644 1.588 1.757-.341.057-.624.114-.908.114-1.758 0-3.63-1.474-3.63-3.231 0-.85.397-1.644.908-2.154.51.396.964.68 1.304.68.284 0 .397-.114.397-.34.057-.68-2.552-1.247-2.552-2.665zM238.785 62.355c.511 0 1.362-.17 2.042-1.247-.397-.85-.68-2.607-.68-3.23-.171-3.232 1.02-6.236 2.382-6.35 1.02-.056 1.815.907 1.871 2.381.227 4.025-1.077 5.669-1.758 7.143.113.566 1.078 1.53 1.985 1.53.34 0 .737-.17.851-.283a3.68 3.68 0 01-.114-.964c0-2.324 1.475-4.308 2.78-4.308 1.02 0 1.644 1.36 1.644 2.267 0 1.077-.907 1.928-2.212 2.778.227.227.681.397 1.021.397 1.872 0 2.893-2.268 3.63-4.365.114-.397.34-.964.851-.964.794 0 1.134 5.215 2.439 5.215.567 0 1.021-1.133 1.021-2.04 0-.68-.227-.737-.227-1.7 0-1.078.567-1.985 1.304-1.985.454 0 .624.453.624 1.02 0 2.098-1.531 6.066-3.8 6.066-1.701 0-1.588-2.948-2.155-2.948-.681 0-1.588 2.948-4.878 2.948-.51 0-1.077-.284-1.531-.794-.794.51-1.475.794-2.212.794-1.248 0-1.758-1.247-2.269-1.247-.624 0-1.247 1.303-3.233 1.303-1.588 0-1.871-2.097-2.438-2.097-.511 0-1.248 2.098-2.099 2.098-1.418 0-1.701-3.685-2.949-3.685-.964 0-4.027 3.741-4.821 3.628-.34-.057-.454-.284-.454-.624.057-.453.454-1.7.624-2.267.284-1.02.511-2.098.681-2.494.113-.34.51-.624.794-.567.17 0 .17.283.227.51.17.85.397 1.644.68 1.644.454 0 1.985-2.948 2.893-2.948 1.077 0 1.248 4.648 2.722 4.648.511 0 .851-.623 1.191-1.303.057-1.247.34-3.005 1.361-3.005.681 0 1.021 1.53.511 2.948-.114 1.7.964 2.097 1.701 2.097zm24.729-3.117c0-.85-.738-1.984-1.872-1.984-1.475 0-2.949 1.644-2.949 3.854 0 2.041 1.248 2.665 2.495 2.665 2.212 0 3.517-1.814 4.197-3.288.341 1.02.511 3.288 1.361 3.288.341 0 .568-.17.965-1.078 1.021-2.21 1.928-4.761 3.289-4.761.511 0 .227.907 1.418.907.567 0 .964-.454.964-1.02 0-.737-.68-1.361-1.758-1.361-3.119 0-3.8 4.705-4.254 4.705-.85 0-.567-3.741-1.134-3.741-.51 0-.794.623-.851.907-.453 1.7-1.645 4.194-3.516 4.194-.454 0-1.191-.17-1.191-.623-.057-.34 2.836-.397 2.836-2.664zm-20.248-4.309c-.057-.907-.284-1.36-.794-1.303-.681.056-.964 2.097-.851 4.308.114 1.417.284 1.644.511 1.644.397-.057 1.304-2.608 1.134-4.649zm-5.388-1.984a.998.998 0 00-1.021-.907c-.624 0-1.248.68-1.134 1.474 0 .51.34 1.02 1.021 1.02.68 0 1.191-.793 1.134-1.587zm10.322 6.803c0-.567-.283-1.02-.68-1.02-.284 0-1.021.34-1.021 1.417 0 .85.283 1.247.453 1.417 1.021-.397 1.248-1.19 1.248-1.814zm12.988-1.134c.681 0 .908.85.738 1.304-.171.51-.738 1.077-1.702 1.247-.17-.51-.283-2.55.964-2.55zm-45.656.51c-.057-1.36.056-2.72.624-4.648.283-1.02.567-1.417 1.474-1.587.737-.114.681.623.511 1.53-.341 1.984-.511 2.948-.397 5.215.113 2.381 1.247 3.345 2.438 3.345 1.815.057 2.609-1.474 2.95-3.628.283-1.7.056-2.55-.114-3.061a11.93 11.93 0 01-.454-1.474c-.113-1.247.454-1.87.965-2.04.624-.17.85.113 1.077.85.284 1.077.341 2.437.227 4.421-.113 2.721-1.475 6.009-4.877 5.952-3.006-.113-4.311-1.984-4.424-4.875zM369.83 25.633c-3.695 0-7.389.008-11.084-.008-.363 0-.499.053-.492.462a52.61 52.61 0 010 3.102c-.007.34.083.447.439.447 2.862-.015 5.724-.008 8.593-.008.56 0 .492-.053.492.477 0 4.737.008 9.481-.007 14.218 0 .31.075.401.393.394a76.04 76.04 0 013.218 0c.356.007.432-.099.432-.44-.008-4.736-.008-9.48-.015-14.217 0-.34.075-.447.431-.447 2.885.015 5.777 0 8.669.015.325 0 .454-.053.447-.424a62.358 62.358 0 010-3.178c.007-.348-.099-.408-.424-.408-3.703.015-7.397.015-11.092.015zM330.982 19.208c1.212 0 2.423.008 3.634-.008.311-.007.402.076.402.394-.015 2.119-.008 4.237-.008 6.356v.47a7.786 7.786 0 011.62-.712c1.106-.325 2.241-.348 3.369-.356 1.992-.015 3.983-.022 5.981.023 2.158.053 4.127.666 5.739 2.164 1.386 1.287 2.158 2.883 2.37 4.767.083.742.053 1.483.053 2.225.008 3.292 0 6.583.008 9.875 0 .318-.084.401-.402.394a119.695 119.695 0 00-3.293 0c-.303.007-.379-.084-.379-.379.023-3.178.038-6.349.038-9.527 0-.877.038-1.763-.197-2.625-.454-1.642-1.802-2.755-3.505-2.853-2.453-.136-4.914-.129-7.374-.038-2.43.083-4.043 1.831-4.043 4.275 0 3.58-.008 7.159.008 10.738 0 .303-.061.409-.387.4-1.211-.022-2.422-.007-3.634-.007V19.208zM408.209 44.784h-15.286c-3.937 0-6.89-2.27-7.73-6.114-.598-2.74-.613-5.516.318-8.202 1.007-2.914 3.134-4.578 6.178-4.964 2.09-.265 4.202-.152 6.307-.106.113 0 .227.007.34.007 3.294.008 6.587.008 9.873.008v4.01c-.053 0-.099-.007-.152-.007-4.883-.008-9.759-.015-14.642-.015-.348 0-.712 0-1.052.068-1.711.348-3.188 2.02-3.392 3.829a17.556 17.556 0 000 3.881c.174 1.642 1.03 2.778 2.597 3.353.878.325 1.809.295 2.725.31 2.393.023 4.793.015 7.185-.03 2.241-.038 4.49-.023 6.731-.03v4.002z" fill="#fff"/><path d="M369.826 25.633c3.695 0 7.39.007 11.084-.008.318 0 .432.06.424.409a63.534 63.534 0 000 3.178c.008.37-.121.424-.447.424-2.884-.015-5.776 0-8.668-.015-.356 0-.432.106-.432.446.008 4.737.008 9.481.015 14.218 0 .34-.075.447-.431.44a76.04 76.04 0 00-3.218 0c-.318.007-.394-.084-.394-.394.008-4.737.008-9.482.008-14.219 0-.53.068-.476-.492-.476-2.862 0-5.724-.008-8.593.007-.356 0-.447-.106-.439-.446.022-1.037.03-2.066 0-3.103-.015-.408.128-.469.492-.461h11.091zM551.938 20.586v.42c-.114.245-.242.477-.341.737-.171.405-.171.781.114 1.172.299.405.199.883-.2 1.2a1.623 1.623 0 01-.612.305c-.086.028-.185.014-.242.1-.015.073.028.131.042.203.285.84.328 1.678-.142 2.474-.043.072-.071.174-.114.26a5.757 5.757 0 00-.399 1.606c-.042.507.129.796.584.955.1.029.2.058.285.116.214.13.256.318.1.52a.459.459 0 01-.171.16c-.541.303-1.068.607-1.681.767-.697.173-1.281-.044-1.709-.637a3.735 3.735 0 01-.455-.926 8.143 8.143 0 01-.399-2.416.617.617 0 00-.185-.463 8.324 8.324 0 01-.954-1.171c-.314-.463-.584-.94-.741-1.476-.256-.883-.071-1.664.513-2.358.043-.058.128-.087.142-.174-.014-.058-.057-.072-.099-.101-.584-.347-1.239-.463-1.909-.434-.997.043-1.694.535-2.107 1.447-.2.448-.299.925-.371 1.403-.242 1.65.356 2.966 1.581 4.05.128-.144.242-.289.356-.419.114-.116.214-.246.342-.333.342-.246.669-.144.812.246.028.058.042.13.057.203.128.42.242.839.37 1.258.043.116.085.246.142.348.114.188.228.231.428.144.099-.043.185-.101.27-.13.37-.145.684 0 .826.362.043.1.057.202.071.303.029.304.1.594.171.883.1.434.171.868.328 1.273.114.318.171.347.47.231.256-.086.527-.159.797-.173.67-.058 1.04.318.997.983-.014.275-.1.521-.185.767a7.925 7.925 0 01-1.481 2.358c-.313.348-.57.724-.783 1.129-.157.303-.285.622-.428.94-.313.709-.712 1.36-1.281 1.91-1.083 1.041-2.364 1.446-3.831 1.186-.271-.043-.527-.116-.798-.174.015.102.072.145.114.203.371.434.784.839 1.239 1.186.342.26.655.535.912.883.213.289.37.622.341.998-.042.535-.028 1.07-.042 1.591a6.39 6.39 0 00.114 1.476c.185.911.37 1.808.228 2.748-.072.42-.043.434.37.434h7.961c.128 0 .256-.014.413.03-.072.13-.129.23-.186.317-.697 1.23-1.395 2.474-2.107 3.69-.1.188-.1.318-.015.506a438.454 438.454 0 011.951 3.862c.057.102.143.203.129.362h-20.037c-.428 0-.342-.014-.442.333-.313 1.07-.612 2.155-.926 3.226-.057.173-.128.347-.128.535h-.142c-.043-.13-.171-.13-.271-.16a55.494 55.494 0 00-2.62-.882 63.64 63.64 0 00-15.338-2.661 56.002 56.002 0 00-9.342.318 66.52 66.52 0 00-5.568.882 59.125 59.125 0 00-8.459 2.344c-.1.043-.228.058-.299.159h-.143c.043-.101-.014-.203-.028-.304-.342-1.172-.67-2.329-1.011-3.5-.086-.29-.086-.29-.399-.29h-19.995c-.128 0-.27.029-.398-.029-.015-.13.071-.217.128-.318a489.572 489.572 0 011.937-3.82c.114-.216.114-.375-.015-.592-.712-1.216-1.395-2.445-2.093-3.66-.057-.102-.142-.189-.142-.319.128-.058.242-.029.37-.029h7.177c.057 0 .114-.029.114-.101 0-.087-.057-.087-.114-.087a19.925 19.925 0 01-.925-.058c-.513-.043-.798-.361-.798-.897 0-.115.014-.231.043-.347.128-.68.242-1.36.37-2.04.071-.376.114-.752.143-1.128.042-.694-.029-1.389-.029-2.083 0-.333-.014-.666.071-.998.128-.492.342-.68.826-.724.371-.029.755-.072 1.125-.13.755-.13 1.41-.463 1.866-1.114.327-.448.527-.94.641-1.475.014-.073.057-.16-.043-.26-.142 0-.313.014-.484 0-.84-.059-1.681-.189-2.45-.565-1.011-.492-1.709-1.259-1.951-2.387-.156-.752-.099-1.49.1-2.228.328-1.186.926-2.228 1.638-3.211.27-.377.555-.724.84-1.1.342-.463.641-.955.726-1.548.057-.376-.042-.535-.37-.68-.128-.058-.256-.101-.37-.173-.47-.29-.513-.738-.143-1.129.157-.159.356-.289.541-.42.542-.39 1.126-.477 1.752-.317.313.072.313.072.427-.218a3.442 3.442 0 00.185-1.779c-.213-1.403-.968-2.387-2.221-2.994a1.678 1.678 0 00-.456-.145c-.498-.072-.797.101-1.011.579-.327.766-.071 1.924.541 2.488.071.072.157.145.214.231.256.348.156.695-.242.825-.257.087-.527.145-.798.116-.242-.03-.256-.015-.256.245 0 .218-.014.434-.057.652-.171.925-.584 1.75-1.082 2.531a20.615 20.615 0 00-1.125 1.982c-.186.376-.371.752-.542 1.114-.099.217-.213.434-.398.593-.242.217-.641.246-.926.087-.242-.13-.356-.39-.299-.752.014-.116.028-.232.071-.333.128-.376.057-.723-.114-1.07a11.586 11.586 0 00-.868-1.462c-.413-.578-.542-1.215-.527-1.895.014-.26.028-.506.057-.767.014-.144-.029-.216-.171-.245a1.399 1.399 0 01-.413-.145c-.527-.26-.57-.709-.128-1.085.498-.434.925-.955 1.338-1.476.086-.115.086-.202-.028-.29-.2-.158-.413-.274-.641-.39-.2-.1-.399-.188-.584-.289-.114-.116-.256-.275-.242-.492.014-.246.185-.361.384-.434.769-.26 1.524-.535 2.336-.665a6.268 6.268 0 001.894-.651c.384-.217.755-.434 1.125-.651a8.51 8.51 0 012.022-.825c.969-.246 1.88-.101 2.706.449.356.231.684.506.968.824.741.825 1.425 1.693 1.695 2.807.442 1.794.256 3.53-.498 5.208-.043.1-.086.188-.129.289-.085.231-.056.333.143.477.171.13.356.26.498.434.257.304.356.637.242 1.027-.071.232-.17.449-.299.651-.455.738-.925 1.462-1.338 2.228-.086.16-.2.304-.314.449-.128.173-.284.29-.527.246-.256-.058-.427-.203-.484-.463l-.256-1.042c-.014-.058.014-.145-.1-.159-.042.058-.099.116-.142.174-.456.607-.912 1.215-1.325 1.851a6.357 6.357 0 00-.526.97 2.172 2.172 0 00-.171 1.085c.085.882.74 1.475 1.609 1.475.384 0 .769-.101 1.139-.202.2-.058.285-.16.271-.362-.015-.13.014-.26.042-.376.285-1.794 1.154-3.27 2.45-4.5a3.45 3.45 0 01.698-.506c.455-.26.911-.52 1.367-.795.37-.217.74-.463 1.068-.738.1-.087.199-.174.256-.318.285-.724.57-1.432.841-2.156.199-.52.341-1.056.384-1.606.142-1.735-.342-3.312-1.239-4.773-.057-.087-.085-.189-.214-.232-.071.13-.042.275-.071.405-.128.796-.555 1.07-1.31.854-.997-.29-1.695-.912-2.079-1.896-.086-.216-.128-.434-.242-.636-.128.029-.185.145-.285.202-.242.145-.47.16-.712.015-.114-.058-.199-.16-.285-.246a6.456 6.456 0 01-.869-1.49 1.107 1.107 0 01-.085-.376c-.057-.507.028-.984.114-1.476.028-.217.128-.42.1-.636-.1-.015-.171.029-.257.043a2.91 2.91 0 01-.598.116c-.37.014-.57-.188-.527-.55.014-.13.043-.246.057-.376.086-.492.143-.984.114-1.49-.028-.492-.199-.868-.684-1.056a1.555 1.555 0 01-.626-.477c-.313-.406-.185-.767.313-.854.385-.072.755-.16 1.125-.275 1.467-.492 2.663-1.403 3.66-2.618-.043-.087-.156-.13-.242-.203-.256-.217-.513-.42-.74-.665-.314-.333-.556-.71-.67-1.158-.199-.795.143-1.519.869-1.851.128-.058.27-.102.413-.145.541-.13 1.082-.072 1.623.043.1.015.2.087.299 0l-.085-.26c-.071-.232-.071-.232.171-.318l1.196-.39c.157-.059.328-.174.484-.117.157.044.086.29.228.434a5.3 5.3 0 01.271-.289c.427-.448.897-.825 1.509-.97.897-.216 1.652.232 1.909 1.13.128.448.128.91.028 1.374a12.108 12.108 0 01-.541 1.866c-.029.086-.1.173-.071.289.128.058.256.014.37.014.441 0 .684.26.57.695-.072.26 0 .448.171.607.071.073.142.16.213.232 1.438 1.36 2.777 2.806 4.23 4.137.299.275.512.622.598 1.028.213.94-.755 1.808-1.524 1.417-.028-.014-.085-.043-.142 0 .014.174.114.333.128.521.028.448-.114.68-.527.796-.555.144-1.082.087-1.538-.304a59.98 59.98 0 01-.969-.825c-.484-.434-1.053-.665-1.68-.81-.071-.014-.142-.087-.228.015.157.217.313.42.47.622a7.517 7.517 0 002.549 2.155c.556.29 1.111.579 1.681.868.797.405 1.566.854 2.25 1.432 1.737 1.476 2.777 3.284 2.62 5.671 0 .044-.043.116.057.145.043-.101.086-.203.128-.318.242-.666.527-1.302.855-1.924 1.196-2.344 2.763-4.384 4.87-5.946a.678.678 0 00.242-.362 5.545 5.545 0 00.328-2.358c-.043-.52-.157-1.027-.47-1.461-.185-.26-.199-.26-.499-.13-.712.29-1.466-.116-1.637-.883-.057-.217-.015-.434.014-.65-1.225.072-2.008-.782-1.638-2.113-.883.015-1.538-.347-1.808-1.23-.257-.824.057-1.49.783-2.01-.442-.188-.783-.478-.983-.912a1.702 1.702 0 01-.042-1.345c.142-.376.384-.651.712-.854.484-.289 1.011-.289 1.58-.1-.114-.478-.099-.898.072-1.303.17-.405.455-.723.854-.911.968-.449 1.766-.145 2.421.68.214-.536.57-.84 1.068-.984h.541c.613.174.983.564 1.14 1.215.099-.072.156-.116.227-.159.57-.376 1.282-.246 1.652.318.143.217.299.246.513.217.441-.072.655-.289.712-.752a.741.741 0 01.47-.622c.171-.072.342-.101.527-.101h1.438c.128 0 .271.029.399.058.328.1.555.303.584.68 0 .1.028.202.085.303.143.29.385.39.684.449.256.043.399-.073.555-.275.356-.506 1.054-.608 1.595-.275.086.043.128.16.257.13.228-.694.47-.94 1.139-1.172h.541c.499.145.869.463 1.068.984.086-.101.128-.173.185-.231.541-.651 1.396-.854 2.136-.521.755.333 1.168 1.1 1.083 1.938-.014.102-.071.203 0 .304 1.054-.246 1.823.073 2.193.883.171.376.199.766.1 1.157-.143.579-.527.955-1.083 1.2.698.493 1.011 1.13.798 1.94-.242.94-.94 1.301-1.866 1.301.2.564.185 1.07-.156 1.534-.356.477-.869.593-1.425.55v.13c.214.94-.697 1.822-1.68 1.388-.142-.057-.214-.014-.285.073-.228.26-.384.578-.47.911-.285 1.056-.213 2.083.171 3.096.043.13.128.217.228.29a15.577 15.577 0 013.233 3.327c.071.1.114.217.27.246a4.2 4.2 0 00.954.1c.143 0 .2-.072.2-.216-.014-.217.028-.434.071-.651.1-.608.342-1.129.84-1.505.285-.217.613-.347.954-.448.67-.188 1.368-.232 2.065-.275.912-.072 1.823-.058 2.72-.202 1.752-.304 2.977-1.26 3.561-2.995.099-.29.142-.579.085-.883-.128-.043-.228.03-.342.058-.612.16-1.21.304-1.837.362-.641.058-1.239.275-1.737.723-.257.246-.627.246-.912.044a1.175 1.175 0 01-.27-.26 15.04 15.04 0 00-.826-1.057.61.61 0 01-.128-.578c.057-.29.242-.492.484-.637.228-.145.484-.202.74-.26.228-.058.47-.102.698-.16.128-.028.2-.13.214-.274.014-.145-.029-.246-.143-.319-.114-.057-.227-.115-.341-.144a2.744 2.744 0 00-1.282-.015c-.499.116-.783-.043-.968-.52a2.082 2.082 0 01-.157-.608c-.029-.29 0-.564.213-.781.143-.145.129-.29.057-.449-.057-.144-.128-.29-.199-.448a1.36 1.36 0 01-.128-.564c-.014-.391.157-.666.498-.84.114-.057.228-.086.356-.115.542-.116 1.083-.073 1.638-.044.285.015.57-.029.826-.159.128-.072.271-.13.399-.202.413-.246.869-.333 1.338-.319l1.809.044a2.37 2.37 0 00.783-.087c.826-.246 1.652-.52 2.322-1.128.455-.42.968-.275 1.196.318.057.145.1.29.128.434.057.231.1.477.142.709a2.55 2.55 0 00.826 1.591c.186.174.356.362.542.535.341.333.598.724.783 1.158.171.42.37.853.541 1.273.328.81.968 1.302 1.695 1.692.313.16.641.232.982.073.371-.174.627.115.655.42.029.346-.057.636-.313.882-.214.202-.441.405-.655.607-.271.26-.285.347-.142.71.028.057.042.1.071.158.342.535.199.984-.157 1.432-.1.116-.199.217-.299.333a.49.49 0 00-.1.55c.057.144.1.304.129.463.071.39-.057.636-.399.839-.271.159-.556.275-.855.347-.37.087-.484.26-.47.651.015.217.029.434.029.666 0 .419-.143.622-.527.752-.157.058-.313.087-.456.13a.548.548 0 00-.455.492c-.015.13-.043.275-.043.405-.014.246 0 .492-.029.723-.028.376-.042.767-.171 1.129-.17.463-.441.665-.925.665h-.299c-.029.13.057.203.085.304.185.42.37.839.541 1.273.67 1.65 1.168 3.356 1.296 5.15.043.535.071 1.056.171 1.591.143.782.399 1.49 1.026 2.026.199.173.313.42.413.665a6.99 6.99 0 01.469 1.953c.043.52.3.897.713 1.143.555.333 1.153.42 1.78.29 1.025-.232 1.837-1.274 1.908-2.402.057-.81-.285-1.418-.997-1.78-.712-.361-1.424-.361-2.122.044-.043.029-.071.058-.114.072-.213.101-.399.044-.541-.145a.766.766 0 01-.142-.39 3.645 3.645 0 01.057-1.418c.128-.564.398-1.027.925-1.302.015-.014.015-.029.029-.058a39.375 39.375 0 01-2.222-3.66c-.926-1.736-1.182-3.587-.698-5.512.784-3.066 4.23-4.412 6.466-3.283.74.376 1.495.39 2.293.159 1.167-.347 1.239-.304 2.335.13.014 0 .014.014.029.014.47.217.94.377 1.481.333.356-.029.669.145.811.55zm-45.4-15.61a.197.197 0 00.043.03c.028-.015.028-.058 0-.087-.128-.753-.271-1.505-.399-2.272-.356.434-.741.695-1.282.637-.555-.058-.883-.42-1.054-.94-.64.564-1.352.78-2.235-.015-.485 1.389-1.567 1.678-2.607 1.317.029 1.244-.227 1.403-.826 1.967.485.217.841.55 1.026 1.056.185.52.085 1.013-.157 1.52.541 0 .954.202 1.253.636.285.434.299.897.129 1.403h.242c.641.043 1.11.506 1.167 1.143 0 .072-.014.159-.014.246 0 .274.171.39.399.303l1.196-.477c.014-.072-.028-.101-.071-.13-1.011-.854-1.809-1.895-2.563-2.951a4.48 4.48 0 01-.67-1.39c-.398-1.49.328-2.762 1.809-3.11a4.379 4.379 0 011.566-.057c.997.13 1.909.52 2.777 1.012.072.058.157.145.271.16zm-18.129 58.098c13.714-4.716 27.443-4.701 41.142-.014.072-.073.086-.145.1-.217.698-2.43 1.41-4.861 2.122-7.277.114-.376.214-.752.328-1.128.042-.13.014-.232-.129-.26l-.128-.044a57.289 57.289 0 00-4.628-1.461 71.141 71.141 0 00-11.535-2.17 60.061 60.061 0 00-4.842-.333 64.732 64.732 0 00-10.154.506 77.387 77.387 0 00-6.295 1.085 63.588 63.588 0 00-8.274 2.373c-.299.115-.299.115-.213.405.797 2.777 1.595 5.54 2.392 8.318.029.072.043.145.114.217zm20.55-48.014a12.368 12.368 0 00-3.105.42c-2.235.636-4.13 1.85-5.753 3.529-2.122 2.213-3.489 4.86-4.329 7.812-.043.145-.057.26.057.376.299.304.37.695.341 1.114-.028.42-.113.825-.199 1.23-.242 1.244-.37 2.488-.256 3.761.043.492.071.998.099 1.49.015.347-.085.666-.356.897-.113.101-.128.188-.099.333.413 2.213 1.168 4.296 2.307 6.235 1.267 2.14 2.891 3.964 4.998 5.266 2.977 1.837 6.153 2.343 9.513 1.36 2.364-.695 4.33-2.04 5.967-3.878 2.607-2.893 4.002-6.35 4.515-10.213.043-.29.028-.29-.242-.434-.385-.202-.627-.492-.598-.955.014-.275-.015-.303-.271-.405-.427-.173-.712-.55-.655-.983.1-.71.285-1.39.797-1.91.243-.246.485-.477.741-.723.114-.102.142-.203.114-.362a20.57 20.57 0 00-1.609-5.28c-1.04-2.228-2.421-4.196-4.287-5.773-2.221-1.88-4.785-2.893-7.69-2.907zm19.382 16.737c.114.145.271.217.399.275.47.246.968.405 1.481.507.712.144 1.381.39 2.022.723 1.097.55 1.78 1.49 2.378 2.517.029.058.1.145-.028.246-.655-.463-1.139-1.143-1.866-1.606v.319c-.014.39-.071.766-.242 1.114-.342.723-.513 1.504-.626 2.3-.072.405-.143.824 0 1.244.669 2.069 1.808 3.747 3.802 4.716.584.275 1.168.52 1.809.579.469.043.939.144 1.424.217.484.072.797.361 1.053.752.556.824.485 2.72-.754 3.4-.57.303-.983.81-1.325 1.374-.128.217-.199.434-.156.694.042.304.213.42.498.318.157-.057.299-.159.456-.231.114-.058.213-.13.327-.174.157-.058.214-.014.214.16-.014.173-.057.347-.071.52-.029.29.199.608.498.695.242.072.484-.044.641-.319.071-.13.142-.26.228-.39.128-.188.242-.174.37.029.057.101.1.202.143.318.085.231.256.318.484.318.327.015.555-.144.641-.506.227-.984.398-1.968.17-2.98-.128-.579-.27-1.157-.284-1.736a14.854 14.854 0 01.042-2.112 1.098 1.098 0 00-.284-.854 3.557 3.557 0 00-.684-.622 6.099 6.099 0 01-.741-.622c-1.153-1.157-2.036-2.517-2.89-3.906-.029-.043-.043-.087-.057-.13-.057-.145-.214-.333-.086-.434.157-.145.313.058.427.16.399.317.712.722.983 1.142.085.13.142.29.299.376.029-.101.071-.188.085-.275.129-.607.157-1.23.086-1.851a8.08 8.08 0 00-.413-1.852 1.56 1.56 0 00-.399-.637c-.456-.42-.74-.955-.925-1.562-.214-.695-.271-1.403-.328-2.127a15.735 15.735 0 00-.669-3.53c-.47-1.519-1.14-2.95-1.823-4.369-.014-.028-.043-.043-.071-.072a9.19 9.19 0 01-.356.637 2.546 2.546 0 01-1.211 1.085c-.413.188-.797.072-1.04-.304a1.484 1.484 0 01-.227-.535c-.057-.26-.086-.521-.143-.781-.057-.29-.043-.594-.142-.883-.043.014-.086.029-.114.043-.726.449-1.538.767-2.307 1.129-.299.145-.613.173-.94.145-.313-.03-.57-.16-.712-.464-.043-.086-.014-.23-.114-.274-.1-.058-.228-.015-.342-.015-.085 0-.157.015-.242.015-.157 0-.256.072-.327.202a3.47 3.47 0 00-.371.81c-.171.579-.142 1.172-.042 1.75.056.319.099.652.242.956.712-.55 2.478-1.273 2.891-1.201-.015.014-.015.043-.029.058-.085.058-.171.101-.271.159a9.699 9.699 0 00-1.922 1.316 5.85 5.85 0 01-1.353.868c-.427.203-.883.319-1.324.478-.314.115-.627.217-.883.448-.385.347-.769.724-1.154 1.085-.399.39-.513.912-.612 1.432-.057.275.128.42.384.362.071-.014.157-.043.228-.058.37-.072.442 0 .413.362-.014.217-.057.434-.1.65-.014.102-.028.203.043.305.157.202.399.217.613.26.156.029.242-.072.341-.174.257-.275.342-.26.513.102a.492.492 0 00.057.13.99.99 0 00.441.463c.3.144.456.101.613-.203a2.51 2.51 0 00.256-.969c.043-.535.299-.897.798-1.1 1.196-.491 2.278-1.2 3.304-2.01.099-.073.185-.174.284-.246.157-.116.356-.102.47.014.114.116.114.29.015.449a.625.625 0 01-.086.1c-.071.073-.057.146 0 .203.114.116.242.218.413.203.342-.029.655-.13.812-.477.1-.232.213-.463.299-.695.1-.26.271-.42.498-.535.47-.231.969-.39 1.496-.477.057-.015.128-.044.171.043 0 .058-.043.087-.086.101-.356.188-.669.449-.997.666-.27.188-.47.42-.584.738-.071.216-.185.419-.299.622a1.09 1.09 0 01-.541.506c-.655.29-1.253.275-1.709-.26l-.028-.03c-.057-.086-.128-.072-.2-.014-.284.188-.64.434-1.025.694zm-43.848-9.244c0 .13.057.246.085.362.314 1.07.413 2.155.242 3.255-.114.723-.356 1.403-.626 2.083-.228.564-.499 1.114-.712 1.693a1.073 1.073 0 01-.47.535c-.769.477-1.524.984-2.322 1.403a4.29 4.29 0 00-1.096.868 7.39 7.39 0 00-1.097 1.548c-.441.825-.726 1.693-.769 2.633-.028.535-.071 1.056-.114 1.591-.057.666-.142 1.331-.341 1.982-.456 1.432-1.382 2.358-2.877 2.648-.385.072-.769.101-1.154.144-.299.03-.313.044-.356.362a4.489 4.489 0 00-.014.97c.043.81.086 1.62-.028 2.43-.129.882-.271 1.75-.413 2.633-.072.405-.043.434.356.448.498.015.997.029 1.495.058.256.014.299.058.185.29-.157.332-.199.708-.384 1.026-.114.203-.057.319.142.42a.976.976 0 00.185.072c.613.145 1.225.116 1.823-.014a.548.548 0 00.413-.376c.242-.666.029-1.505-.513-1.953-.484-.405-.954-.825-1.438-1.23a1.267 1.267 0 01-.399-.622c-.156-.55-.228-1.1-.142-1.678.057-.362.142-.724.213-1.085a.75.75 0 01.47-.593c.171-.073.342-.116.527-.145.413-.072.812 0 1.225.043.313.03.641.044.954-.029.456-.1.826-.332 1.04-.766.071-.13.043-.217-.1-.26-.285-.102-.541-.102-.812.072-.498.347-1.039.231-1.566.058a.303.303 0 01-.114-.073c-.057-.043-.114-.101-.086-.173.015-.073.086-.102.157-.116.228-.044.456-.044.684-.015a.57.57 0 00.527-.173c.299-.29.655-.39 1.068-.318.242.043.47.115.683.217.228.1.456.115.698.057.869-.245 1.552-.694 1.894-1.59.242-.652.513-1.288.783-1.925.314-.738.67-1.461 1.154-2.127.94-1.273 2.15-2.068 3.703-2.329.356-.057.726-.086 1.082-.159.769-.159 1.424-.535 2.051-.998 1.139-.839 1.922-1.996 2.648-3.197.143-.246.257-.506.385-.767-.242-.13-.456-.173-.669-.246-1.268-.39-2.507-.824-3.803-1.1a4.165 4.165 0 01-.925-.332 1.099 1.099 0 01-.342-.231c-.143-.145-.157-.319-.057-.463.114-.145.27-.188.456-.058.299.202.626.318.968.42.242.072.484.1.726.173 1.282.333 2.535.752 3.788 1.157.157.058.314.13.456.232.356.217.513.55.456.969a14.39 14.39 0 00-.1 2.213c.014.507-.157.926-.413 1.331-.285.449-1.054.854-1.581.608-.028-.015-.071-.015-.099-.015-.385-.043-.655.203-.655.594 0 .318 0 .65.057.969.057.347.227.448.555.333.47-.16.94-.333 1.41-.507.37-.144.74-.275 1.111-.448.356-.16.441-.29.398-.68-.028-.347-.042-.695-.071-1.042-.142-1.46-.028-2.907.271-4.34.071-.332.142-.68.171-1.027.014-.29-.072-.52-.285-.709a8.856 8.856 0 00-.812-.636c-1.182-.854-2.421-1.65-3.617-2.489-.755-.52-1.552-1.012-2.222-1.678-.071-.072-.128-.058-.213-.029-.299.16-.613.16-.926.116a5.448 5.448 0 01-1.88-.68c-.356.333-.356.333-1.082.405zm51.965-10.965c.143.043.186.144.228.246.128.246.185.52.214.795.142 1.244-.014 2.46-.256 3.69-.186.925-.684 1.62-1.396 2.184-.798.622-1.709.969-2.692 1.1-1.068.144-2.15.23-3.232.346-.798.087-1.61.174-2.407.319-.926.173-1.495.78-1.609 1.721-.1.84.256 1.042.883.998.626-.043 1.253-.057 1.865-.159.071-.014.128-.043.2.015.042.115-.057.188-.086.289-.057.174-.228.39-.085.535.142.145.384.044.584-.014.028 0 .042-.015.057-.03 1.068-.477 2.178-.896 3.061-1.72.072-.073.171-.13.257-.174.071-.044.142-.116.242-.073.042.087.014.189-.014.275-.157.42-.171.84-.114 1.259.071.52.114 1.041.284 1.533.1.304.214.333.485.16.398-.246.655-.608.868-1.013.242-.463.456-.926.698-1.389.057-.116.086-.275.228-.333.114.073.128.188.171.29.1.303.199.622.285.925.114.405.384.622.754.724.371.101.527-.015.599-.405.042-.275.071-.55.071-.825 0-.361.014-.723.071-1.07.1-.565.399-.94.968-1.085.1-.03.2-.058.299-.073.143-.029.2-.101.186-.246-.015-.188-.015-.376-.029-.55-.014-.708.256-1.084.926-1.301.142-.044.285-.073.427-.13.413-.174.441-.189.271-.608-.2-.506-.072-.926.27-1.302.1-.116.2-.217.299-.333.143-.173.185-.361.043-.564a1.39 1.39 0 01-.199-.478c-.129-.419-.057-.795.256-1.113l.598-.565c.057-.057.142-.1.157-.202-.328.029-.627.014-.897-.101-.912-.391-1.681-.97-2.137-1.895a17.014 17.014 0 01-.612-1.39 3.25 3.25 0 00-.812-1.186c-.27-.26-.541-.535-.783-.824a2.58 2.58 0 01-.527-1.042 9.12 9.12 0 01-.142-.68c-.057-.246-.1-.492-.171-.737-.057-.203-.114-.217-.285-.073a3.273 3.273 0 01-.641.463 8.385 8.385 0 01-1.837.723c-.299.073-.598.13-.911.116l-1.738-.043c-.427-.015-.84.058-1.21.29-.072.043-.157.086-.242.13a2.198 2.198 0 01-1.254.274c-.37-.014-.754-.014-1.125-.014-.156 0-.313.029-.47.072-.156.043-.227.145-.185.318.043.116.086.246.128.362.057.16.143.318.186.477.099.333.085.651-.171.94-.157.16-.114.637.042.796a.16.16 0 00.157.044c.1-.03.199-.044.299-.058.57-.072 1.139-.029 1.681.202.541.232.74.695.583 1.274-.085.332-.313.535-.626.636-.299.087-.598.145-.897.217-.171.043-.328.087-.47.203-.072.057-.143.13-.057.231.27.347.541.694.811 1.027.072.087.157.116.257.015.555-.492 1.21-.724 1.922-.81a11.155 11.155 0 002.834-.71c.029-.014.072-.028.1.015 0 .015.028.043.028.087.214 1.128 0 2.184-.626 3.154-.869 1.36-2.136 2.04-3.674 2.27-.954.145-1.937.145-2.891.218-.613.043-1.225.087-1.823.275-.641.202-1.04.636-1.168 1.316-.071.362-.071.709-.057 1.07.029.507.214.941.57 1.303.484.491.997.52 1.524.087.413-.348.769-.753 1.011-1.245.285-.578.712-1.012 1.31-1.258.313-.13.641-.174.968-.217 1.666-.232 3.347-.405 5.027-.564a5.252 5.252 0 001.923-.55c.926-.478 1.595-1.172 1.908-2.2.086-.288.185-.578.257-.867.27-1.114.455-2.228.156-3.356.029-.145.014-.29.071-.434zm-52.036.043c.156.145.156.275.185.39.071.276.185.55.342.782.113.159.242.318.427.39.285.116.569.246.868.304.784.16 1.496.463 2.108 1.013.313.29.641.55.969.825.185.159.398.231.64.202.257-.029.314-.116.228-.362-.057-.188-.128-.376-.156-.564-.043-.448.242-.709.669-.607.142.029.271.1.413.159.242.101.37.072.541-.13.157-.188.171-.391.1-.622-.086-.246-.257-.434-.442-.608-.27-.246-.541-.492-.797-.752a527.83 527.83 0 01-2.962-2.937c-.271-.26-.556-.506-.798-.81-.199-.26-.413-.521-.256-.883-.826-.13-1.624-.39-2.407.044.043.101.171.144.157.29-.143.042-.271-.015-.399-.059-.328-.101-.641-.217-.968-.333a2.171 2.171 0 00-.812-.115c-.2.014-.242.058-.185.26.085.304.242.564.427.825.057.087.128.159.171.26.085.145.057.29-.057.405-.114.116-.242.13-.37.044a1.86 1.86 0 01-.271-.203c-.185-.16-.356-.318-.57-.448-.384-.246-.754-.246-1.11.057-.157.13-.314.275-.456.42-.214.217-.413.463-.655.665a8.189 8.189 0 01-3.418 1.823c-.085.03-.171.03-.256.087.014.058.071.087.128.116.598.246.897.723.997 1.345.071.42.057.825 0 1.244-.029.232-.057.478-.1.695.085.057.157.014.214 0 .17-.044.356-.102.526-.145.499-.101.741.145.67.651-.014.101-.043.203-.071.304-.129.448-.186.911-.242 1.36-.029.246-.015.491.085.708.185.42.427.825.698 1.187.128.173.156.173.313 0 .185-.203.342-.434.47-.68.085-.145.171-.145.256 0 .086.144.143.29.2.434.171.42.313.839.484 1.258.327.782.926 1.23 1.737 1.433.157.043.242-.015.285-.16.014-.072.043-.159.043-.231.057-.463.114-.911.128-1.374 0-.13-.014-.29.114-.348.157-.072.228.102.342.189l.028.029c.499.564.997 1.142 1.31 1.851.143.304.385.449.684.521.313.072.413.015.47-.304.028-.13.043-.275.071-.405.014-.101.014-.231.128-.26.114-.03.171.087.242.159.057.058.114.116.157.188.228.39.57.579.968.709.285.087.57.188.855.231.128.015.242.03.37.03.157 0 .214-.073.214-.232 0-.145-.086-.29.014-.478.328.203.641.405.883.71.256.317.598.534.911.78.072.044.129.087.214.058.37-.159.726-.318 1.011-.636.185-.203.228-.42.1-.666-.484-.94-1.097-1.721-2.122-2.097a10.463 10.463 0 00-2.179-.55c-1.068-.145-2.136-.318-3.161-.695-1.012-.376-1.98-.824-2.834-1.49a3.603 3.603 0 01-1.339-2.04c-.328-1.301-.157-2.589.171-3.876.014-.044.043-.073.114-.058.014.043.028.087.028.13 0 .116-.014.231-.028.347a7.611 7.611 0 00.014 2.344c.199 1.23.769 2.213 1.823 2.893.327.217.655.405 1.011.593 1.324.68 2.734.998 4.187 1.172a11.22 11.22 0 012.364.55c1.282.448 2.051 1.417 2.592 2.604.213.463.114.897-.214 1.287a2.857 2.857 0 01-.683.564c-.072.044-.171.058-.228.189 1.296.882 2.592 1.764 3.902 2.661.114-.347.128-.694.171-1.012.185-1.838-.342-3.429-1.595-4.76-.67-.723-1.496-1.244-2.35-1.707-.741-.39-1.481-.752-2.222-1.143a7.834 7.834 0 01-2.592-2.155c-.313-.39-.626-.796-.94-1.201-.37-.492-.655-1.027-.74-1.65-.057-.346-.071-.65.043-.983zm3.531 41.143c-.014-.116-.099-.145-.156-.188-.257-.188-.527-.376-.769-.579-.2-.173-.413-.217-.655-.217H477.557c-.128 0-.213.03-.256.16-.199.491-.584.723-1.082.78a6.494 6.494 0 01-1.98 0c-.47-.072-.811-.289-.883-.81-.014-.115-.085-.159-.185-.144h-5.767c-.114 0-.228-.03-.342.043 0 .116.071.203.128.304.57.998 1.125 2.01 1.709 3.009.114.188.114.333.014.535a357.948 357.948 0 00-1.652 3.27c-.043.072-.114.144-.057.246h19.34c.014-.188-.057-.333-.1-.478-.442-1.533-.883-3.052-1.325-4.586-.085-.303-.085-.318.228-.434.584-.202 1.154-.42 1.738-.622.27-.087.569-.188.868-.289zm62.704-.94c-.128-.058-.214-.044-.314-.044h-7.149c-.299 0-.313 0-.398.319-.242.91-1.268 1.157-1.894.795-.186-.116-.299-.072-.456.03-.427.303-.883.274-1.31 0-.242-.16-.456-.348-.57-.637-.057-.174-.128-.188-.299-.145-.285.072-.598.101-.826-.16-.157-.187-.328-.202-.541-.202h-4.685c-.342 0-.712-.087-1.012.044-.299.13-.555.405-.811.622-.114.101-.285.159-.342.332.1.03.185.058.271.087l2.349.825c.299.101.299.116.214.42-.442 1.547-.897 3.11-1.339 4.658-.042.13-.099.26-.085.405.427.072 18.812.043 19.04-.03 0-.1-.071-.187-.114-.274a217.475 217.475 0 00-1.595-3.14c-.114-.23-.128-.404 0-.636.57-.97 1.125-1.953 1.681-2.937.057-.1.114-.202.185-.332zm-56.252-.782c-.413-.26-.627-.607-.769-.983-.072-.217-.2-.319-.413-.333-.114 0-.228-.029-.342-.043a2.847 2.847 0 01-.855-.203c-.37-.16-.612-.42-.669-.839-.014-.116-.014-.232-.1-.347-.541.145-1.011-.087-1.495-.319a5.482 5.482 0 01-1.267-.867c-.257-.246-.527-.478-.869-.608-.313-.13-.641-.246-.954-.362a9.69 9.69 0 01-1.809-.824c-.256-.16-.498-.319-.698-.55-.356-.405-.427-.854-.242-1.36.057-.174.157-.333.257-.492.284-.376.569-.752.882-1.1.043-.043.143-.086.1-.202-.413.058-.812.102-1.225.03-.455-.073-.883-.232-1.295-.42-.228-.102-.228-.102-.342.144-.029.058-.057.13-.086.188-.156.348-.313.695-.598.955-.598.564-1.296.94-2.122 1.027-.128.015-.199.044-.242.174-.327.81-.954 1.215-1.78 1.302-.47.043-.94.014-1.396-.044a2.252 2.252 0 00-.441-.014c-.513.058-.555.087-.669.593-.015.072-.029.16-.057.232a3.546 3.546 0 00-.015 1.547c.057.275.157.492.385.666.441.362.84.752 1.282 1.1.569.448.826 1.027.854 1.735.014.26.014.26.271.26h8.886c.271 0 .484.059.684.232.413.348.854.651 1.281.984.171.145.328.174.556.101a48.833 48.833 0 013.531-.954c.57-.116 1.14-.26 1.781-.406zm37.083-10.661c-.47.289-.712.853-.555 1.374.128.42.313.796.626 1.1.656.607.385 1.663-.356 1.996-.142.072-.299.13-.441.159-.456.116-.926.13-1.396.145-.227 0-.455 0-.683.043-.598.116-1.168.304-1.738.492-.498.159-.897.448-1.196.882-.299.42-.57.84-.869 1.244a1.022 1.022 0 00-.213.58 5.446 5.446 0 01-.413 1.706c-.128.29-.285.55-.499.781-.042.044-.142.073-.128.188.043.015.086.044.128.044a60.98 60.98 0 015.255 1.374.375.375 0 00.371-.072c.441-.362.897-.724 1.338-1.085a.803.803 0 01.556-.203h5.596c.114 0 .157-.058.157-.173 0-.377.171-.695.356-.999a4.803 4.803 0 011.481-1.46c.328-.203.556-.478.655-.854.071-.29.114-.593.071-.897-.085-.709-.398-1.042-1.082-1.157-.555-.087-1.111-.116-1.652-.26-2.108-.565-3.759-1.78-4.828-3.748-.185-.405-.37-.795-.541-1.2zm-56.765-13.237c.114.115.257.144.385.188.456.202.698.55.712 1.041.014.203-.014.391-.057.579-.171.637-.484 1.186-.883 1.707-.669.854-1.324 1.707-1.794 2.705-.371.767-.641 1.563-.655 2.416-.029 1.114.413 1.968 1.395 2.517.912.507 1.909.651 2.934.68.114 0 .185-.043.185-.144.014-.348.086-.68.071-1.042-.356.058-.683.13-1.011.174-1.239.159-2.25-.565-2.535-1.794-.142-.651-.014-1.259.242-1.852.242-.55.57-1.056.926-1.533.47-.666.983-1.317 1.353-2.04.085-.174.214-.304.427-.29.214.015.342.16.413.362.1.246.143.506.2.767.056.29.099.593.213.868.114-.029.157-.13.185-.203.356-.723.826-1.388 1.239-2.068a1.73 1.73 0 00.157-.275c.185-.362.142-.535-.157-.781-.099-.087-.228-.16-.327-.246-.342-.29-.442-.651-.314-1.085a3.21 3.21 0 01.214-.507c.157-.303.271-.636.356-.969a8.24 8.24 0 00.256-2.575c-.042-.796-.199-1.562-.655-2.228-.341-.492-.698-.969-1.111-1.403a4.918 4.918 0 00-.939-.796c-.627-.39-1.282-.506-1.994-.318a7.285 7.285 0 00-1.709.68c-.427.231-.855.492-1.282.738a5.924 5.924 0 01-2.136.767c-.555.086-1.068.274-1.609.477.085.116.199.145.299.202.228.13.441.29.626.478.328.361.357.579.086.983a9.472 9.472 0 01-1.025 1.245c-.129.13-.243.26-.399.42.213.072.384.115.555.187.456.16.869.116 1.268-.173.242-.174.484-.333.74-.492.157-.102.342-.145.513-.015.171.13.185.333.114.507-.171.405-.128.824-.1 1.23.029.347.128.694.271 1.026.342-.332.797-1.113.968-1.649.057-.159.086-.318.1-.477.043-.506.299-.767.797-.825.285-.029.57-.029.855.03.128.028.256.057.384.014v-.058c-.042-.058-.085-.101-.128-.16-.712-.969-.911-1.996-.399-3.124.257-.579.712-.868 1.353-.883.484-.014.926.145 1.325.391 1.281.752 2.05 1.88 2.25 3.385.114.781.028 1.548-.314 2.271-.213.463-.526.622-.996.463-.784-.289-1.311.03-1.838.507zm10.653 13.757c.185 0 .37.015.541.087.342.16.427.492.214.796-.086.13-.2.217-.314.318-.484.362-.84.84-1.168 1.346-.256.39-.185.665.157.969.171.144.356.26.541.361.67.406 1.41.651 2.136.912.57.202 1.069.492 1.51.911.399.39.883.651 1.381.883.399.188.755.188 1.125-.087.171-.13.214-.101.285.101.1.29.185.593.214.911.014.247.142.377.356.449.114.043.242.072.37.087.427.058.855.145 1.282.231.47.102.584.015.541-.477-.057-.637-.328-1.2-.655-1.736a.384.384 0 00-.214-.16c-.47-.086-.854-.36-1.224-.665-.442-.361-.926-.65-1.481-.752-.926-.16-1.795-.506-2.649-.897a6.19 6.19 0 01-.428-.231c-.541-.377-.655-.984-.284-1.534a1.21 1.21 0 01.384-.333c.427-.26.855-.52 1.282-.795.74-.463 1.338-1.07 1.851-1.78.242-.347.299-.68.071-1.056-.242-.405-.455-.824-.683-1.244-.285-.52-.655-.694-1.225-.578-.655.144-1.324.231-1.994.289-.811.072-1.637.116-2.449-.015-.313-.043-.484.03-.655.26-.627.854-1.04 1.824-1.439 2.793-.057.13-.028.188.086.246.698.332 1.41.535 2.179.376a.982.982 0 00.356.014zm46.525-5.468c-.655.145-1.296.26-1.937.318-1.053.087-2.093.044-3.09-.39-.37-.16-.569-.116-.769.246-.527.911-.755 1.895-.569 2.965.099.637.455 1.129.854 1.592.271.303.555.607.826.925.199.232.356.478.47.767.228.608.028 1.114-.541 1.389-.1.043-.214.087-.314.116-.356.115-.74.144-1.11.13-.727-.015-1.453-.058-2.179 0-.627.043-1.239.159-1.809.463a1.106 1.106 0 00-.441.376c-.143.231-.114.463.014.68.128.202.271.333.527.29.142-.03.299-.03.441-.015.228.014.285.101.228.318-.043.174-.142.333-.228.506-.114.232-.099.319.043.463.171.16.313.188.527.058.085-.043.157-.101.242-.145.185-.086.242-.043.299.13.029.073.043.16.043.232a4.4 4.4 0 00.199.738c.1.246.314.275.484.087.143-.16.271-.348.399-.521.271-.39.541-.81.84-1.172.299-.347.613-.65 1.054-.81a14.436 14.436 0 011.852-.579 5.096 5.096 0 011.053-.115c.257.014.527 0 .784-.03.284-.028.569-.086.826-.216.313-.16.47-.622.171-.897-.057-.044-.1-.102-.143-.145-.57-.738-.926-1.519-.584-2.474.014-.029.014-.072.014-.1-.056-.059-.128-.059-.185-.088a4.987 4.987 0 01-1.766-1.215c-.071-.087-.142-.173-.213-.275-.043-.058-.1-.13-.057-.217.057-.087.142-.043.213-.014.1.043.186.072.285.13.157.101.314.203.456.304.299.202.598.434.926.578.185.087.356.13.555.16.228.014.385-.116.541-.246.157-.13.043-.26.043-.377 0-.173-.029-.347-.014-.52.057-1.085.256-2.127.698-3.125.014-.072.071-.145.042-.275zm-46.767 1.114c0 .029.014.072.014.101h.84a16.952 16.952 0 003.19-.347c.741-.16 1.424.116 1.78.723.328.536.627 1.07.897 1.635.214.434.2.868-.028 1.288l-.171.303c-.612.883-1.367 1.606-2.307 2.127-.313.174-.627.347-.926.52a.812.812 0 00-.327.334c-.1.217-.071.332.1.477.056.043.113.087.17.116.798.361 1.595.737 2.464.882.741.13 1.381.449 1.965.897.1.072.2.16.299.231.299.218.314.218.413-.13.328-1.143.898-2.14 1.667-3.038.327-.376.669-.723 1.025-1.07.214-.217.228-.145.085-.463a20.309 20.309 0 01-1.538-4.687c-.014-.102-.028-.217-.099-.319-.043.015-.086.015-.114.03-.698.26-1.396.506-2.079.766-.485.174-.869.087-1.182-.275-.186-.217-.243-.463-.271-.738a22.484 22.484 0 01-.057-.969c0-.275.014-.564.228-.781.37-.362.797-.593 1.324-.42a.72.72 0 00.812-.231c.242-.275.427-.593.427-.998-.014-.405-.014-.81-.028-1.215v-.608c-.071.116-.114.174-.143.217a15.067 15.067 0 01-1.538 2.156c-.626.752-1.381 1.33-2.235 1.793a4.76 4.76 0 01-1.88.579c-.271.015-.541.072-.812.13a4.947 4.947 0 00-1.965.984zm56.394-5.758c.043-.101.057-.159.071-.217.171-.52.243-1.085.456-1.591.043-.116-.028-.174-.085-.232a9.27 9.27 0 01-.727-.78c-1.452-1.78-1.253-4.153-.47-5.686.328-.637.812-1.114 1.496-1.36 1.224-.434 2.406-.275 3.503.39.47.276.498.71.1 1.086-.627.607-.727 1.33-.428 2.126.171.434.413.825.698 1.186.513.68 1.097 1.288 1.695 1.896.043.043.085.1.171.115.014-.029.043-.043.057-.072.413-1.33.698-2.676.755-4.08.014-.26.057-.303.313-.216.085.028.171.057.256.1.228.088.442.174.67.261.327.116.626.072.925-.101.2-.116.228-.217.086-.42a1.572 1.572 0 01-.257-.593c-.085-.434.015-.853.186-1.244.056-.13.142-.26.199-.405.085-.188.057-.231-.128-.246-.086 0-.185-.014-.271 0-.327.029-.626-.043-.926-.174-.341-.144-.697-.274-1.053-.419a1.4 1.4 0 00-.94-.058c-.257.072-.513.13-.755.203-.712.188-1.424.173-2.108-.116-.185-.072-.356-.145-.541-.217-.527-.203-1.082-.318-1.638-.246-1.452.174-3.147 1.056-3.702 3.125-.456 1.721-.228 3.37.569 4.947.499.984 1.097 1.924 1.681 2.85.057.058.085.101.142.188zm-16.705 12.008h1.296c.257 0 .499-.058.727-.174.256-.13.313-.26.213-.535-.099-.26-.256-.463-.427-.666-.285-.318-.57-.622-.854-.955-.356-.405-.655-.853-.812-1.388-.385-1.39-.114-2.691.598-3.892.37-.608.883-.738 1.538-.477.228.087.442.188.669.246 1.396.303 2.763.1 4.13-.232.057-.014.114-.029.143-.087.114-.188-.043-.694-.228-.795a7.111 7.111 0 00-1.609-.564c-.869-.203-1.724-.434-2.421-1.042-.1-.087-.171-.058-.271 0-.256.13-.498.275-.755.39-.683.319-.598.217-.712.94-.071.45-.228.869-.527 1.23-.256.319-.584.42-.982.304a1.62 1.62 0 01-.798-.506c-.085-.101-.171-.087-.27-.058-.1.029-.086.116-.1.203-.057.361-.1.737-.157 1.1-.313 1.85-.854 3.645-1.666 5.337-.085.174-.057.26.071.39.399.362.783.753 1.125 1.173.1.13.214.159.356.13.556-.116 1.14-.087 1.723-.072zm16.207-8.492c.142.029.228-.03.313-.058.954-.319 1.851-.188 2.663.39.641.463.969 1.114.983 1.924.014.81-.257 1.52-.741 2.156-1.025 1.345-2.706 1.635-4.115.694-.057-.029-.1-.1-.2-.072a4.8 4.8 0 01-.242 1.085c-.071.174 0 .217.143.275.327.13.655.26.996.347 1.054.26 2.037.116 2.934-.506a4.482 4.482 0 001.367-1.52c.214-.39.399-.81.57-1.215.242-.55.527-1.084.94-1.518.612-.651 1.068-1.404 1.452-2.214.086-.173.157-.361.185-.55.043-.274-.014-.361-.299-.347a2.043 2.043 0 00-.726.16l-.726.303c-.214.087-.271.058-.313-.159-.2-1.07-.542-2.098-.713-3.168-.028 0-.057-.015-.071-.015-.228.087-.47.189-.698.275-.398.145-.498.087-.64-.303a23.453 23.453 0 01-.584-1.78c-.015-.072 0-.173-.1-.188-.384.39-.684.854-.826 1.374-.128.434-.242.868-.356 1.302-.028.087-.028.188-.043.275-.028.174 0 .319.171.405.114.058.214.145.299.232.2.173.185.26-.071.361-.242.087-.498.145-.755.232a.99.99 0 00-.641.622 2.822 2.822 0 00-.156 1.2zM515.111 4.34a5.768 5.768 0 00-.84.101c-1.097.232-2.051.752-2.977 1.36-.128.072-.156.188-.17.318-.157.84-.314 1.678-.456 2.518-.1.564-.214 1.142-.313 1.707-.043.26-.043.26.213.289.029 0 .071.014.1.014.897.087 1.78.232 2.649.478.299.087.512.029.74-.16 1.083-.94 1.994-2.04 2.763-3.24.228-.347.356-.738.441-1.157.171-.97-.299-1.78-1.224-2.083-.299-.102-.613-.13-.926-.145zm-7.505 6.235c.014-.029.029-.043.014-.043-.27-1.49-.541-2.98-.797-4.47a.46.46 0 00-.185-.275c-.784-.507-1.581-.97-2.478-1.23-.641-.188-1.282-.275-1.951-.16-1.04.189-1.624.956-1.538 2.026.057.622.327 1.143.669 1.65.47.665.968 1.316 1.524 1.909.356.39.74.752 1.153 1.085.143.101.257.13.442.087.74-.203 1.509-.348 2.278-.463.285-.044.584-.03.869-.116zm1.353-9.866h-.684c-.299 0-.313.014-.37.318a1.337 1.337 0 01-.242.564 1.18 1.18 0 01-.684.492c-.185.044-.213.13-.156.304.028.072.028.16.043.246.199 1.085.398 2.155.598 3.24.27 1.49.541 2.98.811 4.456.029.188.1.26.285.246.242-.014.484-.014.712-.014.356 0 .356.014.427-.348v-.029c.314-1.692.627-3.385.926-5.077.171-.897.328-1.794.499-2.691.028-.145.042-.246-.157-.304-.555-.159-.883-.55-.968-1.128-.029-.203-.129-.26-.3-.26-.242-.015-.498-.015-.74-.015zm10.681 43.617c-1.866 2.43-4.144 4.224-7.078 5.178.085.03.128.058.157.058 1.025.073 2.036.145 3.061.26.129.015.214-.028.299-.115.243-.231.485-.448.769-.636.57-.377 1.197-.565 1.88-.449.456.072.926.145 1.382.203.313.043.626.072.954-.015.199-.058.313-.188.313-.39.014-.275.014-.55-.014-.825-.171-1.316-.826-2.33-1.723-3.27zm-21.39.028a6.418 6.418 0 00-1.168 1.577c-.37.71-.57 1.461-.555 2.257.014.506.128.637.626.665h.242c.484-.014.954-.1 1.424-.188.727-.13 1.424-.1 2.08.29.313.188.612.405.868.68a.599.599 0 00.513.202c.94-.101 1.88-.188 2.82-.231.071 0 .142.014.213-.087-2.905-.97-5.183-2.749-7.063-5.165zm4.429-30.466c4.229-1.823 8.416-1.808 12.617.043.1-.448.214-.853.427-1.273a16.276 16.276 0 00-6.536-1.432 16.31 16.31 0 00-6.893 1.403c.185.405.285.81.385 1.259zm-5.91 28.166c-.171.16-.299.29-.428.42-.996.998-1.766 2.14-2.164 3.515-.057.174-.029.275.085.42.598.723.926 1.562.954 2.502.015.565-.213.84-.754.999l-.086.043c.143.333.299.506.669.767a.586.586 0 00.513.101 68.228 68.228 0 014.515-.752c.284-.044.583-.044.897-.16-.2-.158-.399-.274-.584-.39-.399-.231-.812-.318-1.282-.231a20.26 20.26 0 01-1.353.202 2.801 2.801 0 01-.982-.029c-.542-.116-.826-.434-.898-.998-.057-.434-.014-.854.057-1.273.186-1.085.698-1.996 1.382-2.821.142-.174.285-.333.441-.492.071-.072.071-.13.014-.217-.356-.492-.669-1.027-.996-1.606zm14.554-37.049c.157-.029.242-.1.342-.159.883-.492 1.794-.897 2.805-1.027.783-.101 1.553-.058 2.265.318.883.463 1.324 1.375 1.196 2.373-.086.608-.285 1.172-.627 1.664-.769 1.142-1.609 2.213-2.649 3.124-.057.044-.142.073-.128.188.2.073.413.145.613.232.213.087.427.174.626.26.2.073.385-.058.385-.275 0-.057-.015-.115-.015-.173a1.236 1.236 0 011.083-1.259c.099-.014.199.015.299-.029-.328-1.041.228-1.953 1.367-2.04-.555-1.23-.043-2.097.897-2.575-.683-.462-.954-1.128-.812-1.967-.569.232-1.096.246-1.623-.014-.527-.26-.84-.71-1.011-1.331-.328.376-.684.564-1.139.564-.442.014-.798-.203-1.111-.521-.185.55-.513.883-1.068.955-.556.058-.955-.217-1.282-.738-.128.84-.271 1.62-.413 2.43zm4.03 11.154a.325.325 0 000-.202c-.057-.319-.128-.637-.1-.97.015-.26-.085-.361-.299-.463-1.523-.68-3.104-1.113-4.77-1.258-2.436-.203-4.757.188-7.007 1.157-.313.145-.484.29-.47.666.014.332-.071.68-.128 1.041 4.272-2.358 8.516-2.343 12.774.03zm-34.449-8.65c-.313-.247-.584-.435-.84-.652-.228-.173-.456-.347-.655-.564a1.516 1.516 0 01-.385-.608c-.114-.332-.014-.535.299-.665.157-.058.314-.087.47-.087.484-.014.954.101 1.41.246.299.101.613.188.94.174.171 0 .242.072.285.217.085.303.185.593.27.897.029.086.057.173.171.188.271.043.527.086.784.13.057-.116 0-.174-.015-.26-.128-.391-.256-.796-.398-1.187-.057-.145-.043-.231.085-.333.214-.173.385-.39.541-.622.242-.332.499-.65.826-.911.185-.145.37-.275.598-.304.242-.043.356.03.442.26.085.247.085.507.028.753a9.882 9.882 0 01-.612 2.01c-.029.087-.1.16-.071.247.071.057.156.029.242.043.285.043.27.101.413-.26.228-.565.384-1.129.527-1.722.085-.376.114-.752.028-1.128-.156-.637-.612-.912-1.239-.724-.356.102-.655.319-.925.579a5.245 5.245 0 00-.769.926c-.114.159-.228.333-.442.448-.057-.188-.128-.347-.171-.506-.156-.506-.156-.506-.655-.333-.228.087-.228.087-.157.319.072.245.186.491.214.752a1.35 1.35 0 01-.726-.087 5.208 5.208 0 00-1.225-.29c-.399-.043-.769 0-1.125.174-.413.217-.57.593-.47 1.042.1.39.313.694.584.955.299.303.641.564.983.81.057.043.128.116.213.087.128-.015.299.014.527-.015zm-11.678 18.053c-.427.275-.84.42-1.295.362-.114-.014-.157.058-.171.16-.043.274-.029.549-.029.824 0 .448.1.868.356 1.244.143.202.256.405.385.607.242.391.47.796.655 1.216.171.376.228.766.099 1.186-.028.116-.057.217-.071.333-.014.043-.014.087.043.115.057.015.085-.014.114-.043.114-.13.171-.304.242-.448.527-1.085 1.068-2.17 1.737-3.183.328-.492.57-1.027.769-1.577.129-.39.214-.781.186-1.186 0-.058.028-.145-.114-.145-.043.26-.043.52-.143.767a7.146 7.146 0 01-.954 1.75c-.114.16-.256.304-.427.39-.313.174-.641.102-.84-.187-.1-.145-.157-.304-.214-.463a8.958 8.958 0 01-.328-1.722zm47.793 24.391l1.282.174c1.381.188 2.763.42 4.144.708.086.015.157.044.228 0 .313-.202.641-.39.84-.737.257-.478.385-.998.456-1.534-.028-.014-.057-.043-.071-.043-.527-.058-.855-.333-.969-.883l-.042-.13c-.015-.087-.072-.116-.157-.101-.256.029-.498-.043-.74-.174.014.145.014.26.028.376.043.29.043.58.014.868-.057.58-.342.897-.897 1.028a2.807 2.807 0 01-.983.028c-.441-.057-.883-.1-1.31-.188-.726-.202-1.296.13-1.823.608zm32.997-19.5c0-.073-.043-.102-.086-.131-.427-.318-.612-.752-.555-1.302.085-.854.342-1.65.698-2.416.156-.347.185-.709.128-1.085a3.399 3.399 0 00-.256-.897c-.029-.058-.043-.13-.086-.188a.294.294 0 00-.313-.16c-.114.015-.086.145-.1.232l-.171 1.056c-.128.868-.398 1.707-.626 2.561-.114.42-.442.55-.826.347-.1-.058-.185-.13-.285-.188-.071-.043-.128-.159-.256-.145.057.651.17 1.273.413 1.867.099.26.242.491.441.694.185.174.399.275.655.246.47-.072.869-.232 1.225-.492zm-29.579-9.158c.014.072.029.101.043.13a20.263 20.263 0 011.566 3.154c.057.144.143.173.285.188.613.043 1.225.087 1.837.116.314.014.641.043.955.057.099.015.17-.014.199-.13.071-.405.214-.767.399-1.157-.613-.13-.954-.506-1.068-1.129-.171.145-.314.275-.47.377-.655.477-1.382.462-2.023-.03-.356-.274-.598-.621-.797-1.026-.086-.189-.057-.463-.242-.55-.2-.058-.442 0-.684 0zm2.777 7.45c.484-.26.954-.405 1.424-.535.271-.073.527-.203.798-.319.156-.072.185-.144.142-.318a7.343 7.343 0 01-.299-1.663c-.014-.246 0-.26-.285-.275-.64-.044-1.267-.087-1.908-.116a57.379 57.379 0 00-.684-.043 27.21 27.21 0 01.812 3.269zm-6.209-26.778c0 .637.527 1.172 1.154 1.172a1.173 1.173 0 00-.029-2.344c-.612 0-1.125.521-1.125 1.172zm-16.064-.014c0-.637-.512-1.172-1.153-1.172-.627 0-1.154.521-1.168 1.158-.014.65.527 1.2 1.168 1.2a1.189 1.189 0 001.153-1.186zm19.425 6.336c.555 0 1.025-.492 1.011-1.056a1.057 1.057 0 00-1.039-1.027c-.556 0-1.012.478-1.012 1.042.015.578.485 1.041 1.04 1.041zM497.31 3.067c-.57 0-1.011.477-1.011 1.042.014.55.47 1.012 1.011 1.012.555 0 1.025-.477 1.025-1.041.014-.55-.456-1.013-1.025-1.013zm23.327 0c-.57-.015-1.026.448-1.026 1.027 0 .55.442 1.013.983 1.042a1.048 1.048 0 001.054-1.013 1.04 1.04 0 00-1.011-1.056zm-22.017 4.21c.014-.565-.442-1.056-.983-1.07-.555-.015-1.025.448-1.054 1.012a1.058 1.058 0 00.983 1.07 1.047 1.047 0 001.054-1.012zm22.544 34.792c-.129.043-.143.144-.186.231-.185.318-.384.622-.569.94-.1.189-.356.348-.299.55.057.188.27.333.413.492 0 0 .014 0 .057.015.256-.71.868-.97 1.509-1.216-.028-.13-.114-.188-.185-.26-.256-.275-.498-.52-.74-.752zM484.208 6.597c.427-.333 1.082-2.2.968-2.763-.213.115-.356.275-.512.448-.285.304-.484.694-.784.998-.056.058-.071.116-.042.188.114.362.199.753.37 1.129zm19.268-5.15a.76.76 0 00-.726-.767.75.75 0 00-.755.738c0 .405.328.752.726.766a.77.77 0 00.755-.737zm11.008-.03a.743.743 0 00.727.767.762.762 0 00.769-.737c.014-.405-.328-.753-.727-.767a.744.744 0 00-.769.738zm-15.366 8.955a.743.743 0 00.727-.766c-.015-.405-.356-.752-.755-.738-.399.014-.741.362-.726.767.014.42.356.752.754.738zm18.984-.723a.75.75 0 00.754.738.743.743 0 00.727-.767c-.014-.405-.356-.752-.755-.738-.399 0-.726.348-.726.767zm-36.799-2.72c.114-.144.256-.274.456-.318.242-.058.242-.058.17-.304-.057-.202-.128-.347-.384-.347-.171-.014-.356-.087-.527-.144a4.64 4.64 0 00-.883-.217c-.128-.015-.256-.044-.384.014.185.347.996 1.027 1.552 1.316zm19.838 4.543a.545.545 0 00-.542-.55.545.545 0 00-.541.55.55.55 0 00.527.535c.285.03.556-.246.556-.535zm16.234-.55a.542.542 0 00-.569.507.556.556 0 00.512.578.564.564 0 00.57-.52c.029-.275-.214-.55-.513-.565zm-4.471-8.304a.554.554 0 00.555-.535.527.527 0 00-.513-.535.544.544 0 00-.569.52c-.014.29.228.55.527.55zm-7.32-.55c0-.289-.257-.549-.556-.535a.536.536 0 00-.526.565c.014.289.242.52.526.52a.558.558 0 00.556-.55z" fill="#fff"/><path d="M511.768 52.456c-.143.55-.285 1.085-.413 1.635-.029.1-.014.26-.128.303-.143.058-.314.03-.47 0-.114-.014-.086-.115-.1-.188l-.256-1.36c-.029-.144-.057-.274-.1-.491-.085.217-.071.376-.071.535-.014.42-.014.839-.029 1.244-.014.246-.014.246-.256.246h-.071c-.185.029-.242-.058-.228-.246.028-.593.028-1.186.043-1.765 0-.231.028-.463.028-.694 0-.16.057-.188.2-.188.655-.015.655-.015.783.622.1.477.185.969.285 1.446.142-.014.114-.115.128-.188.142-.506.256-1.027.399-1.548.099-.332.042-.289.356-.289.683.014.583-.101.569.622l-.042 1.91c-.015.39-.029.405-.413.376-.171-.015-.171-.101-.171-.232l.042-1.36v-.419c-.042.029-.071.029-.085.029zM493.409 58.951c-.114-.492-.242-.983-.356-1.475-.014-.073-.071-.174.029-.217.142-.058.299-.13.455-.087.029.015.043.072.057.116.2.81.413 1.634.613 2.445.028.13.014.202-.129.217-.071.014-.156.028-.227.057-.143.044-.228.015-.328-.1-.37-.406-.755-.811-1.125-1.202-.071-.072-.128-.159-.242-.217.028.362.157.666.228.999.042.202.099.405.156.607.057.26.057.26-.199.319-.043.014-.085.014-.128.028-.114.03-.171 0-.185-.115l-.214-.868c-.128-.507-.256-1.013-.384-1.505-.057-.246-.043-.217.17-.318.271-.116.456-.043.641.174.356.419.755.795 1.14 1.2.014.015.057.058.057.044a.277.277 0 00-.029-.102zM506.454 57.2v-.854c0-.26-.014-.506-.042-.767-.015-.144.028-.217.185-.217h.199c.114-.014.157.03.171.16.043.839.071 1.692.128 2.531.014.145-.043.188-.171.188-.042 0-.085 0-.142.015-.2.043-.328-.03-.442-.217-.27-.463-.555-.912-.826-1.36-.042-.073-.071-.174-.17-.217v1.027c0 .203.014.42.042.622.014.145-.042.217-.185.203-.085 0-.157.014-.242.014-.085 0-.128-.043-.128-.116 0-.058-.014-.116-.014-.173-.029-.782-.072-1.548-.1-2.33-.014-.26 0-.245.256-.274.257-.03.413.029.556.289.227.42.498.825.754 1.244.043.072.072.174.171.232zM521.436 58.401c.1-.55.2-1.07.299-1.591.043-.232.043-.232.299-.188.285.043.299.057.257.289l-.427 2.387c-.029.159-.086.202-.257.188-.256-.029-.427-.116-.498-.405-.143-.506-.342-.998-.513-1.505-.028-.072-.014-.173-.142-.202-.1.52-.185 1.041-.285 1.548-.014.101 0 .246-.128.26-.143 0-.285-.043-.428-.087-.071-.029-.028-.13-.014-.188.071-.448.157-.882.242-1.33.057-.348.128-.68.185-1.028.057-.29.057-.275.328-.246.271.03.384.16.456.405.128.449.299.897.455 1.346.029.101.043.217.171.347zM523.701 54.654c.199.217.214.434.171.666-.043.231-.157.463-.029.709-.057.014-.085.029-.114.029-.598-.145-.598 0-.484-.695.015-.072.029-.13.043-.202.028-.217-.043-.319-.242-.39-.029-.015-.071-.015-.1-.03-.555-.145-.555-.145-.669.42-.014.087-.043.173-.057.275-.057.289-.057.289-.356.217-.285-.058-.285-.058-.228-.333.157-.752.313-1.52.47-2.271.057-.29.071-.29.328-.232.398.087.811.16 1.196.275.569.16.783.781.456 1.273-.086.13-.214.217-.385.29zm-.456-.347a.353.353 0 00.342-.202c.071-.174.071-.362-.057-.449-.256-.173-.555-.188-.84-.231-.128.144-.1.347-.157.506-.014.029-.014.072-.028.101-.015.073.028.116.085.13.228.058.442.102.655.145zM516.039 57.389c0-.304.043-.593.171-.868.228-.477.598-.738 1.14-.738.954.015 1.509.651 1.395 1.62a2.66 2.66 0 01-.156.666c-.257.578-.784.853-1.425.752-.669-.116-1.068-.535-1.125-1.186v-.246zm2.137-.188c0-.072 0-.145-.015-.203-.071-.405-.299-.65-.655-.68-.356-.029-.626.16-.769.55a1.59 1.59 0 00-.071.854c.071.318.271.52.57.564.341.058.598-.072.769-.39.114-.203.142-.45.171-.695zM519.931 53.917c.242.246.185.55.142.84-.028.173-.057.346.029.506-.029.014-.057.029-.071.029-.684-.073-.584-.044-.542-.637 0-.072.015-.145.015-.203 0-.26-.057-.347-.314-.405-.583-.13-.583-.13-.683.478-.014.087-.029.159-.043.246-.028.101.029.246-.1.26-.156.015-.313.015-.469-.072-.057-.03-.043-.102-.029-.16.128-.838.256-1.663.37-2.502.015-.101.029-.188.157-.16.47.073.954.117 1.41.232.569.16.769.854.384 1.302-.057.102-.156.16-.256.246zm-.584-.347c.285.014.385-.072.427-.304.043-.246-.042-.39-.313-.448-.171-.044-.356-.058-.527-.087-.114-.014-.157.029-.185.145-.128.578-.114.622.484.68a.274.274 0 00.114.014zM503.217 57.084c.257.145.328.39.356.666.015.217.015.434.171.607-.028.03-.043.044-.057.044-.612.072-.612.072-.698-.55-.057-.434-.156-.506-.583-.448-.442.057-.456.057-.413.506.014.144.028.304.056.448.015.145-.014.217-.17.232-.029 0-.072.014-.1.014-.299.03-.299.03-.328-.275l-.213-2.242c-.029-.318-.029-.333.285-.362.356-.043.726-.072 1.082-.1.541-.044.74.187.869.462.128.347.057.666-.257.998zm-1.395-.723c.028.188.042.304.057.42 0 .159.085.188.213.173.157-.029.314-.043.47-.058.271-.043.385-.159.356-.39-.014-.246-.171-.377-.441-.362-.143.014-.299.043-.442.043-.171 0-.228.087-.213.174zM516.565 53.15c0 .29-.043.579-.156.839-.257.564-.769.839-1.439.738-.612-.087-1.025-.492-1.096-1.1a2.237 2.237 0 01.057-.926c.199-.708.74-1.084 1.438-.998.74.087 1.168.55 1.196 1.302 0 .058-.014.101 0 .145zm-.598-.029c-.014-.087-.028-.217-.057-.347-.085-.29-.256-.478-.57-.521-.327-.058-.583.072-.74.362a1.412 1.412 0 00-.114 1.1c.085.303.313.476.627.505.299.03.541-.115.697-.405.114-.202.143-.434.157-.694zM492.843 56.375c-.043.015-.072-.057-.086-.144-.071-.333-.157-.68-.228-1.013-.114-.477-.199-.94-.327-1.418-.043-.188.014-.231.171-.275.37-.086.37-.1.441.26.043.174.086.334.114.507.028.174.114.203.256.16.2-.059.399-.102.598-.145.171-.03.228-.102.186-.29-.057-.217-.086-.434-.157-.636-.043-.13-.029-.217.128-.246.484-.101.399-.16.513.304.171.723.327 1.46.512 2.184.043.188-.014.26-.17.275-.072.014-.129.029-.2.043-.128.044-.185-.014-.213-.144-.057-.29-.143-.564-.186-.84-.028-.159-.085-.216-.256-.173-.228.058-.47.101-.698.16-.099.028-.142.086-.114.202.072.289.129.593.2.882.042.174-.014.232-.157.26a2.06 2.06 0 01-.327.087zM528.684 57.46a1.732 1.732 0 01-.94-.333c-.256-.202-.413-.462-.398-.795.014-.188.057-.232.228-.174.199.058.413.073.384.376-.014.102.086.188.171.246.171.116.356.16.541.174.157.014.299-.058.356-.217.057-.16-.014-.275-.142-.347a4.605 4.605 0 00-.442-.275c-.128-.087-.27-.174-.398-.26-.271-.189-.371-.463-.3-.782.072-.347.285-.593.627-.65.47-.087.912.028 1.268.375a.798.798 0 01.256.724c-.014.13-.071.188-.199.144-.186-.057-.371-.072-.399-.361-.029-.29-.57-.478-.826-.333-.185.101-.228.304-.057.448.142.13.327.218.484.319l.299.173c.399.26.527.536.427.926-.114.376-.441.622-.94.622zM497.923 56.333c-.014-.073.071-.102.185-.116.556-.087 1.097-.16 1.652-.26.157-.03.2.043.214.173.028.275.071.333-.242.362-.328.029-.655.1-.983.144-.142.015-.214.073-.157.232.015.014.015.043.015.072.042.318.042.318.341.275.285-.044.556-.087.841-.13.185-.03.185-.015.242.275.028.144 0 .217-.157.231-.313.044-.626.101-.94.145-.142.014-.185.072-.185.217.029.52.057.535.541.463.299-.044.584-.087.883-.13.185-.03.214.072.228.216 0 .13.086.275-.142.304-.584.073-1.168.174-1.752.26-.114.015-.171-.014-.199-.13-.129-.839-.242-1.692-.385-2.603zM510.659 58.184c-.072.043-.157.029-.228.029-.413 0-.371.043-.47-.333-.043-.188-.143-.275-.328-.26h-.27c-.47 0-.485 0-.655.434-.043.115-.1.173-.214.159-.128-.015-.271 0-.385 0-.071-.13-.014-.203.015-.29.284-.78.569-1.562.84-2.343.071-.203.171-.29.37-.26.086.014.185 0 .271.014.085 0 .142.043.185.13.299.897.641 1.78.897 2.69-.014.015-.028.015-.028.03zm-1.638-1.1c.242.044.456.044.683 0-.099-.332-.199-.65-.313-1.027-.171.362-.242.68-.37 1.027zM522.758 59.704c.029-.16.114-.246.171-.333.427-.68.869-1.345 1.296-2.025.1-.16.199-.188.356-.145.441.101.441.101.484.55.071.795.157 1.577.228 2.372 0 .058 0 .116.014.174-.199.043-.342-.058-.512-.087-.086-.014-.129-.087-.129-.188 0-.087-.014-.16-.014-.246 0-.145-.043-.246-.199-.26-.114-.015-.214-.058-.328-.073-.156-.029-.313-.115-.455-.087-.143.03-.186.218-.257.348-.071.101-.142.13-.256.101a5.447 5.447 0 01-.399-.101zm1.182-.84c.256.073.442.145.669.145.015-.361-.028-.68-.085-1.085-.228.333-.385.608-.584.94zM489.679 56.245c.071.26.128.521.213.767.057.145 0 .202-.128.246-.399.13-.384.13-.498-.26-.214-.724-.413-1.447-.627-2.156-.057-.174-.028-.246.142-.304.356-.101.698-.217 1.054-.304.513-.13.883.102 1.04.622.171.55.014.926-.484 1.129-.228.101-.485.115-.712.26zm.655-1.041c0-.232-.143-.449-.328-.449-.228 0-.47.043-.641.188-.114.102.043.29.072.449.014.072.042.159.071.231.028.058.071.087.128.073.171-.058.342-.102.513-.174.128-.058.17-.188.185-.318zM503.933 53.063c-.014-.39-.028-.78-.057-1.172-.014-.144.043-.202.185-.216.37-.015.726-.044 1.097-.058.327-.015.626.086.769.405.171.361.185.738-.014 1.1-.1.187-.3.274-.513.317-.2.03-.413.058-.613.058-.185 0-.227.087-.213.246.028.188.028.39.043.593.014.145-.029.217-.186.217h-.028c-.37.03-.37.03-.399-.332-.028-.405-.043-.782-.071-1.158zm.57-.55c.028.565-.015.464.498.449h.071c.271-.029.399-.174.385-.42-.014-.26-.143-.39-.413-.405-.114 0-.228.015-.342.015-.157 0-.228.072-.199.231v.13zM512.013 57.085l.043-.969c.014-.145-.029-.217-.185-.217-.171 0-.342-.029-.513-.029-.114 0-.157-.058-.143-.173 0-.304.029-.333.328-.319l1.737.087c.086 0 .2-.029.242.087.043.116.015.246-.014.376-.014.043-.057.058-.114.058-.085 0-.185 0-.27-.015-.556-.043-.456-.057-.484.449-.029.535-.043 1.085-.086 1.62 0 .087.029.188-.071.246-.057.029-.47 0-.499-.029-.056-.058-.028-.13-.028-.202.028-.319.043-.651.057-.97zM496.13 59.514c-.157.03-.171-.043-.185-.13-.057-.304-.128-.608-.185-.911a22.09 22.09 0 01-.2-1.056c-.028-.16-.099-.189-.242-.16a5.438 5.438 0 00-.47.102c-.142.043-.171-.015-.199-.145-.071-.318-.086-.318.228-.376a63.667 63.667 0 001.766-.362c.227-.058.199.116.242.232.042.13.057.26-.143.275-.085.014-.185.043-.27.057-.385.087-.385.087-.299.478.099.52.213 1.041.313 1.562.071.362.071.362-.299.434-.029-.014-.057 0-.057 0zM528.257 60.674c-.086.506-.086.506-.541.376-.442-.13-.869-.275-1.311-.39-.156-.044-.185-.116-.142-.276.228-.78.456-1.562.669-2.358.043-.159.129-.202.271-.144a.203.203 0 00.1.029c.284.086.284.086.199.376-.157.55-.328 1.1-.484 1.663-.086.319-.086.319.228.42.356.101.697.174 1.011.304zM498.669 55.189c-.043.014-.114-.015-.128-.145-.114-.853-.242-1.692-.356-2.531-.014-.116.028-.174.142-.188.499-.044.413-.16.499.361.085.55.156 1.1.228 1.65.028.245.042.245.299.216.313-.043.626-.087.939-.144.186-.03.214.087.228.217.015.13.086.289-.142.318-.541.072-1.082.16-1.709.246zM514.291 58.04c.057-.738.129-1.49.2-2.257.014-.16.043-.217.213-.217.413.014.413.014.385.434-.071.723-.128 1.446-.185 2.17-.029.332-.029.332-.342.289-.313-.044-.299.029-.271-.42zM496.428 52.658c.085-.014.128.029.157.145.156.824.299 1.649.455 2.474.029.115 0 .188-.128.23-.413.102-.427.117-.498-.317-.143-.724-.271-1.447-.399-2.17-.057-.275-.043-.275.228-.333a.545.545 0 01.185-.029zM526.493 53.946c-.157.637-.328 1.273-.485 1.91-.057.202-.114.405-.156.607-.029.101-.086.13-.171.101a1.06 1.06 0 01-.2-.057c-.242-.073-.242-.073-.185-.29.2-.781.399-1.562.584-2.343.043-.188.114-.217.285-.16.071.03.157.044.228.058.1.015.128.073.1.174zM502.455 54.438c-.015.087.071.217-.072.26-.156.044-.313.087-.47.015-.071-.03-.056-.145-.071-.217-.042-.478-.099-.97-.142-1.447l-.086-.97c-.014-.144.029-.216.186-.216.042 0 .085-.015.128-.015.256-.029.27-.029.299.232.085.795.156 1.577.228 2.358zM490.034 58.068c.071 0 .1.014.128.072.015.058.043.101.057.159.214.752.442 1.505.655 2.257.072.246.072.246-.185.333l-.128.043c-.157.072-.228 0-.256-.145a18.7 18.7 0 01-.242-.868c-.143-.492-.285-.969-.428-1.46-.071-.232-.056-.232.171-.32.072-.028.157-.043.228-.072zM497.551 32.13c.043-3.211.898-6.307 2.849-9.041 1.324-1.852 3.004-3.298 5.141-4.094 3.19-1.186 6.209-.752 9.014 1.157 2.122 1.447 3.575 3.443 4.572 5.801 1.053 2.503 1.409 5.107 1.182 7.812-.228 2.575-.983 4.977-2.393 7.147-1.196 1.851-2.72 3.37-4.714 4.296-3.631 1.693-7.077 1.259-10.267-1.128-2.094-1.563-3.475-3.675-4.372-6.12-.698-1.837-.997-3.732-1.012-5.83zm11.607-8.347c-.043.145-.014.26.014.377.157.954.199 1.909.171 2.864a35.282 35.282 0 01-1.082 7.71c-.413 1.62-.898 3.198-1.681 4.673-.014.044-.028.087.014.13.114.03.186-.057.271-.1a4.845 4.845 0 001.381-1.375c.356-.535.627-1.1.855-1.693.299-.752.513-1.533.755-2.3.028-.101.042-.217.142-.318.114.202.142.405.185.607l1.154 4.5c.028.13.042.289.199.405.47-1.968.826-3.95 1.325-5.888.085.043.085.1.099.159.271 1.36.741 2.662 1.367 3.906.47.926 1.04 1.765 1.88 2.387.057.043.1.101.214.029-.385-1.302-.726-2.619-.954-3.979a48.379 48.379 0 01-.513-4.05 56.85 56.85 0 01-.185-4.123c-.014-1.375.028-2.734.199-4.138-.185.058-.242.174-.313.26-.199.29-.356.623-.513.941a46.697 46.697 0 00-2.107 5.628c-.029.086-.043.188-.129.289-.042-.116-.071-.188-.085-.26-.342-1.114-.684-2.228-1.082-3.328-.385-1.041-.755-2.083-1.339-3.038-.071-.087-.1-.202-.242-.275zm-1.41 4.008c-.014-.405-.028-.897-.114-1.39-.128-.752-.342-1.49-.755-2.14-.398-.637-.925-1.129-1.637-1.418-.442-.174-.841-.13-1.254.087-.341.188-.612.448-.754.824-.114.29-.314.449-.57.55-.1.044-.199.073-.285.101-.356.13-.456.275-.47.68 0 .087 0 .188.014.275.072.55.086 1.114.086 1.664.071 3.4 0 6.8-.328 10.184-.071.753-.171 1.52-.398 2.243-.029.1-.114.231 0 .318.128.101.227-.03.327-.101.114-.087.228-.188.342-.29.356-.347.641-.752.883-1.186.541-.984.854-2.04 1.039-3.14.057-.36.114-.737.157-1.099.029-.318.157-.55.484-.622.029-.014.057-.029.1-.043 1.239-.492 2.108-1.374 2.635-2.619.384-.868.498-1.808.498-2.878zM530.063 7.478c.513-.058.94.246 1.368.565.142.101.113.217-.057.275a8.897 8.897 0 01-.812.26c-.456.102-1.025-.202-1.225-.622-.071-.174 0-.333.185-.405.171-.073.328-.087.541-.073zM486.388 9.547h.214c.271.015.356.13.285.42-.143.652-.313.738-.883.449-.242-.13-.47-.275-.712-.42-.071-.043-.143-.101-.128-.188.014-.087.099-.116.171-.145l.128-.043c.327-.03.641-.044.925-.072zM508.89 5.208c-.67 0-1.225-.578-1.211-1.244.014-.68.57-1.23 1.239-1.215.641.014 1.182.564 1.196 1.23-.014.665-.569 1.23-1.224 1.23zm0-1.779a.555.555 0 00-.541.55c0 .289.27.55.555.55.285 0 .541-.261.541-.565a.575.575 0 00-.555-.535z" fill="#fff"/><path d="M503.966 28.094v-3.776c0-.217.014-.42.085-.622.114-.361.442-.477.769-.29.242.146.413.363.541.609.257.462.371.969.456 1.475.157.998.114 2.01.043 3.01-.057.882-.1 1.75-.257 2.618-.028.144-.057.289-.085.448-.114.593-.484.94-1.04 1.128-.341.116-.512.015-.598-.332-.042-.145-.057-.304-.042-.449.056-1.273.056-2.546.128-3.819zM609.539 44.8h26.491V19.2h-26.491v25.6zm8.157-19.2h3.206v5.928l3.416-5.928h3.556l-3.695 6.4 3.695 6.4h-3.556l-3.381-5.928V38.4h-3.241V25.6zm19.798 19.2h26.492V19.2h-26.492v25.6zm11.19-19.2h4.078l4.322 12.834h-3.486l-.592-1.853-4.706-.034-.592 1.853h-3.416l4.392-12.8zm3.555 8.455h-3.102l1.533-4.784 1.569 4.784zM665.45 44.8h26.491V19.2H665.45v25.6zm11.154-19.2l2.161 3.941 2.126-3.941h3.73l-4.287 7.175V38.4h-3.242v-5.659L672.77 25.6h3.834zm16.801 19.2h26.491V19.2h-26.491v25.6zm11.189-19.2h4.078l4.323 12.834h-3.521l-.592-1.853-4.706-.034-.593 1.853h-3.416l4.427-12.8zm3.556 8.455h-3.103l1.534-4.784 1.569 4.784zM721.36 19.2v25.6h26.492V19.2H721.36zm18.335 19.2h-3.555l-3.381-5.928V38.4h-3.207V25.6h3.207v5.928l3.381-5.928h3.555L736 32l3.695 6.4z" fill="#fff"/><path fill-rule="evenodd" clip-rule="evenodd" d="M836.379 43.269c-1.915 0-1.915-1.149-1.915-3.063-.383-5.335-.383-12.202-.383-16.412 0-2.297 0-3.063 2.681-3.446h.766V19.2c-1.149.383-2.681.383-3.447.383s-1.532 0-3.064-.383c0 1.914-1.149 3.828-2.681 7.25l-3.399 7.273c-1.149 1.914-1.915 3.828-3.064 5.718-1.15-1.532-1.916-3.446-2.682-5.336l-4.189-8.397c-1.149-2.656-2.298-4.953-1.915-6.484-1.532.383-2.298.383-3.447.383-.766 0-1.532 0-2.681-.383-.359.383-.359.765-.359 1.148h.766c2.298.383 2.681.766 2.298 3.445 0 1.915 0 4.953-.383 8.398 0 3.445-.383 5.718-.383 8.015-.383 2.68-.766 3.063-2.298 3.063l-1.149.358s0 .766.383.766h8.019v-.766l-1.532-.382c-1.532 0-1.532-.766-1.532-3.445v-8.781c.383-2.297.383-4.187.383-6.867 1.149 1.914 1.915 3.828 2.681 5.719l3.447 7.273c.766 1.914 2.681 5.335 3.064 7.25 0 .382.383.382.383.382.383 0 .383 0 .383-.383.743-1.531 2.275-4.976 4.19-8.398l3.447-6.483c.766-1.532 1.915-4.57 2.298-4.953V40.23c0 2.297 0 3.063-1.532 3.063l-1.149.383c-.383 0-.383.765 0 .765h9.144v-.766l-1.149-.406zM847.081 27.622c-5.338 0-9.168 3.828-9.168 8.78 0 4.57 3.447 8.398 9.168 8.398 5.338 0 9.168-3.445 9.168-8.78 0-4.594-3.064-8.399-9.168-8.399zm.766 16.03c-4.189.382-6.104-3.446-6.487-7.25-.766-5.335 2.298-7.632 4.955-7.632 4.189-.383 6.487 3.445 6.87 7.25.383 5.335-2.298 7.631-5.338 7.631zM919.25 23.052c0-1.914-1.149-3.445-2.681-3.445s-1.915.765-1.915 1.531c0 .766.383.766 1.149.766.766.383 1.915.765 1.915 2.297 0 1.53-1.532 2.68-3.064 3.062 0 .383 0 .765.383 1.148 2.298-.79 4.213-2.703 4.213-5.359zM925.737 35.253l-2.298-1.148c-1.532-.766-2.298-1.532-2.298-3.063 0-1.148.766-2.68 3.064-2.68 1.915 0 3.064 2.297 3.447 3.446 0 .383.766.383.766 0 0-1.532 0-3.063-.383-3.828-1.149 0-2.298-.383-3.447-.383-3.83 0-6.104 1.914-6.104 4.57 0 1.914 1.532 3.445 3.447 4.57l1.532.765c2.298 1.148 2.681 2.297 2.681 3.445 0 1.914-1.149 2.68-3.064 2.68-2.681 0-4.189-2.68-4.572-3.828 0-.383-.766-.383-.766 0 0 1.914.383 3.445.766 3.828s1.915 1.148 4.189 1.148c3.83 0 6.104-1.914 6.104-4.57 0-2.655-1.532-4.186-3.064-4.952zM891.362 28.77c-1.532-.765-3.447-.765-5.721-.765h-7.253c-.383.382-.383.765 0 1.148h1.149c.766 0 .766.766.766 3.445v7.632c0 2.68 0 3.063-1.532 3.063l-.766.383c-.383 0-.383.765 0 .765h8.426c1.915 0 3.83 0 5.721-1.148 3.064-1.531 4.572-4.187 4.572-7.25 0-3.469-1.915-6.124-5.362-7.273zm-4.955 14.499c-2.681 0-3.064-1.148-3.064-3.445v-8.78-1.532c.383-.383 1.149-.383 2.298-.383 4.189 0 7.636 2.297 7.636 6.867 0 4.593-2.298 7.273-6.87 7.273zM912.763 28.005h-5.362c-.383 0-.383.765-.383.765h.766c1.149.383 1.149.766.383 1.532l-1.532 3.038c-.383 1.148-1.149 1.914-1.915 3.062-.383-1.148-.766-1.914-1.532-3.062l-1.508-2.656c-.383-1.148-.383-1.531.383-1.914h.766c.383 0 0-.765 0-.765h-6.894c-.383 0-.383.765 0 .765l.766.383c1.149 0 1.532.383 2.298 1.914l2.681 4.953c1.149 1.914 1.149 2.296 1.149 3.445v1.148c0 2.297 0 2.68-1.915 2.68l-.766.383c-.383 0-.383.765 0 .765h8.019c.383 0 .383-.765.383-.765l-1.149-.383c-1.532 0-1.915-.383-1.915-2.68V38.7c0-1.148.383-1.531 1.532-3.445l2.298-3.828c1.149-1.914 1.532-2.297 2.681-2.297l.766-.383c.359.024.359-.741 0-.741zM867.307 27.622c-5.338 0-9.168 3.828-9.168 8.78 0 4.57 3.447 8.398 9.168 8.398 5.339 0 9.169-3.445 9.169-8.78 0-4.594-3.064-8.399-9.169-8.399zm.766 16.03c-4.189.382-6.104-3.446-6.487-7.25-.766-5.335 2.298-7.632 4.955-7.632 4.19-.383 6.488 3.445 6.871 7.25.383 5.335-2.274 7.631-5.339 7.631zM986.401 12h40.019v40h-40.019V12z" fill="#fff"/><path fill-rule="evenodd" clip-rule="evenodd" d="M1001.81 26.828h2.3v-1.724c-.11-2.644-1.95-3.218-3.91-3.218-2.066 0-3.906.804-3.906 4.827v3.908c0 4.138-.46 6.552 3.335 6.552.571 0 1.721-.46 2.181-1.035v.92h2.19v-8.39h-3.8v2.068h1.61v2.644c0 1.38-.8 1.609-1.61 1.609-1.491 0-1.491-1.38-1.491-3.218v-3.909c0-1.149-.23-3.678 1.491-3.678 1.27.115 1.61.345 1.61 1.724v.92zM1011.59 31.885l-1.96-9.655h-3.1v14.598h2.18v-9.655l1.96 9.655h1.72l1.96-9.77v9.77h2.18V22.23h-2.99l-1.95 9.655zM1016.53 42.23v-3.218h-20.237v3.218h20.237z" fill="#1B1B20"/></svg>