<svg width="315" height="68" fill="none" xmlns="http://www.w3.org/2000/svg"><path d="M48.033 21.692v-1.48h1.156v1.48h-1.156zm-38.04-2.948c.463.481 1.193.752 1.984.752.779 0 1.509-.27 1.983-.752.572-.592.755-1.171.743-2.417V10h2.251v6.919c0 1.443-.426 2.565-1.278 3.416-.973.962-2.166 1.418-3.699 1.418s-2.726-.456-3.7-1.418C7.415 19.485 7 18.362 7 16.919V10h2.251v6.327c-.012 1.233.17 1.825.742 2.417zm16.83-6.586h-5.695v2.627h5.208v2.122h-5.208v1.11c0 1.22.426 1.529 1.509 1.529h4.198v2.146h-4.32c-2.008 0-3.626-.913-3.626-3.429v-7.4c0-.542.353-.85.852-.85h7.106v2.145h-.024zm3.809 4.749v4.785H29.22c-.487 0-.84-.309-.84-.864v-7.4C28.38 10.914 30 10 32.007 10h4.32v2.146h-4.199c-1.083 0-1.509.296-1.509 1.53v1.11h5.22v2.12h-5.207zM41.06 10c.657 0 .876.358 1.022.765l4.223 10.927h-2.41l-.827-2.146h-2.75l.754-2.146h1.168l-1.484-3.823-2.835 8.127h-2.252l3.821-10.927c.146-.407.365-.765 1.023-.765h.547V10zm15.564 5.772c-.28-1.295-1.059-2.084-2.434-2.084-2.008 0-3.005 1.85-3.005 3.712 0 1.85.997 3.712 3.005 3.712 1.302 0 2.36-1.024 2.495-2.479h1.046c-.28 2.084-1.63 3.367-3.54 3.367-2.63 0-4.053-2.109-4.053-4.6 0-2.491 1.436-4.6 4.052-4.6 1.826 0 3.25.999 3.48 2.984h-1.046v-.012zm10.27 1.615c0 2.492-1.436 4.6-4.052 4.6-2.628 0-4.064-2.108-4.064-4.6 0-2.49 1.436-4.6 4.064-4.6 2.616 0 4.052 2.097 4.052 4.6zm-7.07 0c0 1.85.998 3.713 3.006 3.713s3.006-1.85 3.006-3.713c0-1.85-.998-3.712-3.006-3.712s-3.006 1.85-3.006 3.712zm8.324-4.353h.961V14.5h.049c.547-1.048 1.448-1.714 2.81-1.714 1.132 0 2.142.555 2.459 1.702.51-1.147 1.594-1.702 2.725-1.702 1.874 0 2.848 1 2.848 3.046v5.896h-1.046v-5.846c0-1.43-.536-2.208-2.033-2.208-1.813 0-2.324 1.517-2.324 3.133v4.92h-1.046v-5.895c.012-1.184-.463-2.158-1.801-2.158-1.814 0-2.544 1.381-2.556 3.207v4.859h-1.046v-8.707zM133.344 8.524c.094.718 1.152 1.65 1.435 1.627.188 0 .258-.933.258-1.627 0-.406.024-.717-.188-.813-.353.694-1.223.837-1.505.813zm.047-.31c.752 0 1.458-.622 1.458-1.149 0-.263-.117-.454-.423-.502.047.072.07.12.07.24 0 .406-.611.86-1.27.86-.235 0-.306.168-.306.263 0 .192.188.287.471.287zm-.165-.838c-.094 0-.259 0-.329-.167-.071-.144-.047-.359-.165-.454a.962.962 0 00.353.047c.329 0 .635-.239.894-.239.164 0 .212.096.212.216 0 .31-.659.597-.965.597zm-16.349 5.812c.259 0 .188-1.555.588-1.555.094 0 .117.096.117.215 0 .36-.164.861-.164 1.148 0 .144.047.192.094.192.165 0 .47-1.698.776-1.698.094 0 .141.095.141.191 0 .359-.447 1.387-.447 1.674 0 .048.024.072.047.072.189 0 .542-.813.659-1.196.071-.215.165-.31.235-.31.071 0 .142.07.142.262 0 .407-.377 1.34-.683 1.985-.258.478-.635 1.196-.635 1.579 0 .19.047.406.329.67-.47-.025-.658-.073-.823-.455-.776 1.578 1.435 1.435.682 2.822-.141-.263-1.223-.503-1.223-1.985 0-1.268 1.106-2.01 1.106-2.535a.332.332 0 00-.141-.263c-.236-.215-.259-.383-.447-.383-.142 0-.306.335-.142.622.048.095.118.167.118.239 0 .215-.329.765-.541.765-.235 0-.4-.574-.4-1.482 0-.814.188-1.65.4-1.65.071 0 .094.047.094.095 0 .096-.023.287-.023.622s.094.359.141.359zm11.197-7.294c.118 0 .141.287.165.454.023.096.023.096.07.096.095 0 .236-.335.33-.335.141 0 .517.383 1.129.383.894 0 1.717-.622 1.717-1.746 0-1.076-.753-1.698-1.764-1.698-.494 0-.847.239-1.035.239-.118 0-.282-.287-.377-.287-.047 0-.07.072-.07.191 0 .072 0 .335-.094.335-.165 0-.847-.502-.847-.335 0 .168.447.694.447.813 0 .144-.447.263-.447.36 0 .167.47.19.47.406 0 .215-.494.382-.494.526 0 .12.494.048.494.191 0 .168-.376.67-.376.813 0 .048 0 .048.047.048.118.024.541-.454.635-.454zm-9.362 10.976c0-.143.094-.287.258-.31.165-.024.283.095.306.263.024.167-.094.287-.259.31-.164 0-.305-.119-.305-.262zm-.824.216a.444.444 0 00.518.406c.094 0 .188-.048.235-.072.047.24.235.383.518.36.258-.025.47-.264.423-.527a.345.345 0 00-.047-.167h.047a.48.48 0 00.423-.526.476.476 0 00-.517-.43.693.693 0 00-.235.095c-.071-.215-.259-.407-.518-.383-.259.024-.447.263-.423.55 0 .048.023.096.047.144h-.047a.523.523 0 00-.424.55zm16.279-13.608c0 .096.071.192.188.192a.187.187 0 00.188-.192.187.187 0 00-.188-.191c-.094 0-.188.096-.188.191zm-4.07 7.031c0 .168.141.311.306.311a.314.314 0 00.306-.31.314.314 0 00-.306-.312.314.314 0 00-.306.311zm.024.933c0 .191.165.359.353.359a.365.365 0 00.353-.36.365.365 0 00-.353-.358c-.212.024-.353.168-.353.359zm-1.059.646a.5.5 0 00.494.502.5.5 0 00.494-.502.5.5 0 00-.494-.503c-.259-.024-.494.216-.494.503zm.283-1.053c0 .168.141.287.282.287a.289.289 0 00.282-.287.288.288 0 00-.282-.287.274.274 0 00-.282.287zm-.965.598c0 .168.141.287.282.287a.289.289 0 00.283-.287.29.29 0 00-.283-.287c-.141-.024-.282.12-.282.287zm.753-1.746c0 .263.212.479.47.479a.476.476 0 00.471-.479.476.476 0 00-.471-.478.476.476 0 00-.47.478zm.541-.908c0 .167.117.287.282.287.165 0 .282-.12.282-.287a.274.274 0 00-.282-.287.288.288 0 00-.282.287zm-1.317.717c0 .168.117.287.282.287.164 0 .282-.12.282-.287a.274.274 0 00-.282-.287.274.274 0 00-.282.287zm-.024.957c0 .263.188.454.447.454a.436.436 0 00.447-.454.436.436 0 00-.447-.455.45.45 0 00-.447.455zm-.941.478c0 .24.188.43.423.43a.425.425 0 00.424-.43c0-.24-.188-.43-.424-.43a.425.425 0 00-.423.43zm.259-1.052c0 .167.141.287.282.287a.288.288 0 00.282-.287c0-.144-.141-.287-.282-.287a.288.288 0 00-.282.287zm-.965 10.953c0 .167.141.287.283.287a.289.289 0 00.282-.287.288.288 0 00-.282-.287.274.274 0 00-.283.287zm-7.88-12.316c0 .167.141.287.282.287a.288.288 0 00.282-.287.288.288 0 00-.282-.287c-.141 0-.282.143-.282.287zm-.377-.646a.29.29 0 00.283.287.289.289 0 00.282-.287.288.288 0 00-.282-.287c-.141-.024-.283.12-.283.287zm.33 7.294c.306 0 .564-.24.564-.742v-.765c0-.287.024-.621.212-.837-.024.096-.024.191-.024.287 0 .646.353 1.076.353 1.698 0 .24-.07.359-.235.359-.165 0-.165-.168-.188-.168-.024 0-.071.096-.071.192 0 .167.118.406.424.406.259 0 .47-.239.47-.526 0-.67-.517-1.41-.517-2.128 0-.311.07-.526.141-.694 0 1.483 1.223 2.56 1.223 3.18 0 .144-.094.264-.259.264a.259.259 0 01-.258-.24c0-.047 0-.07-.024-.07-.047 0-.165.143-.165.334 0 .239.189.55.565.55.423 0 .635-.359.635-.67 0-.789-1.505-1.96-1.505-3.228 0-.215.047-.574.188-.837-.965.622-1.271 1.459-1.271 2.2 0 .646-.023.957-.352.957-.165 0-.212-.168-.259-.168-.047 0-.071.144-.071.168.024.334.212.478.424.478zm12.656-7.414c.329 0 .564-.143.564-.239 0-.024-.047-.048-.141-.048-.094 0-.282 0-.635-.071-.306-.048-.541-.168-.635-.168-.024 0-.047.024-.047.048 0 .167.353.478.894.478zm-1.6-.956c.094-.048.494.048 1.035-.24.071-.047.141-.047.188-.047.259 0 .188.287.424.287.188 0 .423-.168.564-.168.212 0 .541.694.541 1.029 0 .382-.564.598-1.223.598-.964 0-1.553-.861-1.553-1.411-.023 0 0-.024.024-.048zM118.9 18.162c-.235.048-.635.454-.635 1.052 0 .718.776 1.841 2.023 1.841 1.058 0 1.341-.74 1.341-1.267 0-1.124-.683-1.913-1.553-1.913-.47 0-.917.359-.917.885 0 .502.376 1.22 1.223 1.22.4 0 .659-.288.659-.646 0-.335-.306-.79-.73-.79-.141 0-.235.096-.235.24 0 .167.235.358.541.358.071 0 .141-.023.165-.023.023.023.023.047.023.095 0 .168-.164.263-.4.263a.718.718 0 01-.729-.717c0-.263.235-.455.565-.455.658 0 1.035.598 1.035 1.172 0 .526-.283.837-.871.837-1.176 0-1.764-1.052-1.505-2.152zm-.729-8.06c-.165.048-.518.264-.518.622 0 .264.212.43.471.43.141 0 .235-.023.282-.07a.847.847 0 01-.282-.647c0-.167.023-.263.047-.334zm-1.788.096v.12c0 .359.188.55.423.55.188 0 .4-.12.588-.359-.07.024-.164.024-.258.024-.283-.024-.589-.096-.753-.335zm-.259.67c0 .574.165.837.47.837.236 0 .542-.168.918-.502-.282.072-.494.12-.706.12-.259-.025-.47-.12-.682-.455zm11.127 11.646c.353 0 .329-.024.447-.024.117 0 .117.072.117.12 0 .167-.352.359-.988.359-.376 0-.588-.192-.658-.43-.377.238-.918.454-1.459.454-1.505 0-1.882-.67-2.352-.885-.353-.168-.918.167-1.67-.718.094.024.235.024.353.024.682 0 1.035-.335 1.035-.86 0-.072 0-.144-.024-.216.212.072.682.43.776 1.076.024.072.306.144.494.144.259 0 .588-.12.659-.55.87-.072 1.459-.598 1.6-1.268.305.096.682.383.752.55.118-.048.259-.072.447-.072.236 0 .494.048.8.144.024-.096.024-.215.165-.215.212 0 .165.239.235.382.047.072.212.12.212.264 0 .143-.118.19-.188.19-.024 0-.071 0-.094-.023-.142.048-.165 1.124-.777 1.124-.447 0-.87-.383-1.058-.861-.047-.143-.165-.24-.259-.24-.118 0-.188.025-.329.168-.4.43-1.059.813-1.859.813-.259 0-.447-.024-.494-.024-.023 0-.023 0-.023.024 0 .048.258.263.799.263 1.294 0 1.6-.741 1.812-.741.023 0 .117 0 .164.12.306.74.941.908 1.365.908zm-4.164-14.922c.471 0 .706.43.706.908 0 .216-.047.503-.165.503-.094 0-.07-.168-.094-.335-.023-.192-.047-.24-.118-.24-.117 0-.211.288-.211.575 0 .167.023.358.164.358.071 0 .142-.048.189-.071-.024.334-.283.645-.636.645-.635 0-.893-.765-.964-1.22-.376.407-.753.718-1.388.718-.588 0-.87-.454-.87-.86 0-.12.047-.455.188-.455.188 0 .023.598.376.598.094 0 .259-.072.33-.311.047-.144.07-.311.07-.43 0-.192-.047-.336-.188-.336a.603.603 0 00-.329.144c.164-.526.588-.813 1.058-.813.588 0 .894.526.894 1.1 0 .072 0 .167-.023.263.305-.43.658-.741 1.011-.741zm-1.835-4.425c0-.047-.211-.095-.517-.095-.471 0-.4.406-.777.406-.376 0-.282-.406-.776-.406-.282 0-.564.048-.564.12 0 .095.352.047.352.286 0 .263-.729.335-.729.479 0 .047.047.071.141.071.165 0 .424-.071.588-.071.118 0 .212.024.212.12 0 .19-.4.525-.4.669 0 .048.047.048.071.048.141 0 .4-.383.635-.383.376 0 .141.837.353.837s.117-.813.447-.813c.259 0 .447.574.611.574.047 0 .071-.048.071-.096 0-.167-.212-.478-.212-.693 0-.12.094-.192.212-.192.165 0 .4.096.517.096.048 0 .095-.024.095-.072 0-.167-.659-.382-.659-.598-.024-.19.329-.19.329-.287zm10.421 14.612c-.164 0-1.011 1.148-1.552 1.148-.141 0-.235-.263-.235-.454 0-.096.07-.168.305-.24 1.247-.286.988-1.243 2.047-1.243.588 0 1.247.407 1.247 1.34 0 .98-1.365 2.2-1.576 2.2-.165 0-.353-.24-.353-.407 0-.048.023-.12.164-.168.706-.286 1.106-.932 1.106-1.267 0-.072-.047-.143-.141-.143-.118 0-.659 1.243-1.247 1.243-.4 0-.823-.383-.823-.55 0-.287 1.176-.837 1.176-1.267.024-.168-.047-.192-.118-.192zm.8-.454c-.094 0-.211.072-.211.287a.48.48 0 00.258.406.554.554 0 00.212.048c.212 0 .376-.048.376-.239 0-.215-.329-.502-.635-.502zM122.97 3.933c0 .143.47.43.682.43.117 0 .164-.167.164-.359 0-.215-.094-.239-.282-.239-.235 0-.564.072-.564.168zm.776 1.458c0-.454-1.2-1.267-1.2-1.602v-.048c.094-.239 1.082-.406 1.082-.621 0-.096-.164-.096-.259-.096-.682 0-1.67.263-1.67.502 0 .263.894.861.894 1.172 0 .072-.047.12-.141.12-.259 0-.8-.311-1.035-.311-.118 0-.165.071-.165.19 0 .36.424 1.03.424 1.244 0 .024 0 .048-.047.048-.142 0-.753-.741-.965-.741-.07 0-.094.12-.094.263v.263c0 .167 0 .263-.094.263-.188 0-.282-.55-.471-.55-.188 0-.235.957-.399.957-.212 0-.024-1.053-.236-1.053-.235 0-.47.718-.635.718-.047 0-.07-.048-.07-.12 0-.215.117-.574.117-.765 0-.096-.023-.167-.117-.167-.236 0-.73.382-.918.382-.023 0-.07-.024-.07-.048.023-.167.799-.717.799-.98 0-.24-1.105-.072-1.105-.359 0-.239.776-.478.776-.717 0-.215-.917-.311-1.294-.311-.423 0-.658.048-.658.167 0 .192.988.263.988.43 0 .168-1.012.599-1.012.862 0 .215 1.435.024 1.435.239 0 .263-1.247 1.34-1.247 1.698 0 .072.047.12.141.12.377 0 1.365-.742 1.647-.742.094 0 .094.12.094.215 0 .192-.07.479-.07.718 0 .167.047.287.188.287.259 0 .517-.479.706-.479.235 0 .094 1.364.446 1.364.306 0 .424-1.483.612-1.483s.353.43.518.43c.211 0 .117-.741.352-.741.259 0 .988.885 1.318.885.094 0 .141-.072.141-.192 0-.382-.541-1.291-.541-1.578 0-.048.023-.072.094-.072.282 0 1.129.407 1.506.407.141 0 .235-.072.235-.168zm9.974 8.538c.118-.383.259-.622.494-1.028-.235-.12-.87-.383-.87-.837 0-.503.635-.91.752-.91.047 0 .071.049.071.144 0 .263-.118.694-.118.933 0 .215.142.407.259.407.118 0 .471-.455.471-.885a.998.998 0 00-.894-1.029c-.189 0-.565.335-1.388.335-1.576 0-1.929-1.578-1.929-2.272 0-.024 0-.047.023-.047.047 0 .189.19.683.19.258 0 .494-.07.87-.07.87 0 1.27.62 1.811 1.41.33.215 1.106.55 1.106 1.483 0 .837-.87 1.291-1.082 2.176.329-.048.541-.646.87-.646.165 0 .259.144.259.359 0 .335-.188.813-.541 1.124v-.12c0-.215-.071-.502-.306-.502-.353 0-.47.407-.682.742-.212-.766-.494-1.435-1.012-1.866-.517-.43-1.411-.191-1.411-.956 0-.216.141-.503.141-.742a.57.57 0 00-.047-.215c.706.263.447.741.894 1.244.259.31 1.011.597 1.435 1.889 0-.048.023-.144.023-.191 0-1.1-1.435-2.177-1.552-2.631.823.096.988.31 1.364 1.41.047.264.306.838.306 1.101zm-15.691-6.05c.047-.12.071-.263.071-.43 0-.36-.165-.91-.659-.91a.501.501 0 00-.494.503c0 .597.565.837 1.082.837zm-.635 1.889c-.235 0-.494-.311-.494-.574 0-.144.118-.335.188-.335.024 0 .048.024.048.072a.846.846 0 00.494.67c.023.023.047.023.047.047 0 .048-.142.12-.283.12zm.871-.718c0 .096-.047.24-.165.24-.259 0-.47-.383-.47-.622 0-.144.07-.168.188-.168.047 0 .07 0 .117.024.071.048.071.192.141.287.048.12.189.192.189.24zm-.259-.765h-.165c-.235 0-.564.048-.847.24-.635.43-.541 1.1-.635 1.267-.023.024-.023.048-.023.072 0 .071.07.143.141.143.047 0 .094-.024.117-.024.165 0 .377.12.659.12.165 0 .377-.048.612-.168.517-.263.729-.932.729-1.028 0-.144-.118-.12-.212-.263-.094-.168-.047-.215-.117-.311-.024-.048-.118-.048-.259-.048zm.776 1.196a1.419 1.419 0 00-.329.86c0 .407.235.742.612.742.352 0 .517-.31.517-.622 0-.526-.447-.884-.8-.98zm-1.576-1.435s-.212.167-.47.167a.562.562 0 01-.565-.574c0-.239.118-.478.376-.597v.12c0 .454.236.764.659.884zm13.009 4.329c0-.144.141-.264.282-.264.165 0 .283.12.283.263a.274.274 0 01-.283.287.288.288 0 01-.282-.287zm.188 8.537c.047 0 .071.024.071.168 0 .167-.071.382-.33.55-.188.12-.423.239-.799.239a2.07 2.07 0 00.094-.55c0-.048 0-.096-.024-.168h.118c.588 0 .823-.239.87-.239zm.047-.741c.047-.048.071-.144.071-.215v-.168c0-.215-.33-.335-.753-.335-.541 0-.823.24-.823.359v.335c0 .143.329.287.705.287.33 0 .612-.096.8-.263zm.4.095a2.154 2.154 0 01-1.364.479c-.4 0-.565-.12-.635-.12-.071 0-.165.072-.236.168-.164.215-.4.597-.4 1.028 0 .287.236.598.659.598 1.364 0 2.4-.861 2.4-1.579-.024-.406-.259-.574-.424-.574zm.259-6.241c0 .191.047.406.235.406.165 0 .282-.239.282-.502 0-.287-.047-.526-.047-.646 0-.047.024-.072.047-.072.118 0 .212.311.33.311.141 0 .329-.239.4-.239.023 0 .023.024.023.048 0 .12-.165.359-.165.455 0 .071.424.095.424.167 0 .12-.447.12-.659.215-.188.048-.329.168-.329.311 0 .144.141.167.353.167.494 0 .823-.263.941-.263.023 0 .047.024.047.048 0 .072-.259.311-.259.43 0 .12.447.264.447.36 0 .023-.047.023-.094.023-.071 0-.212-.024-.306-.024-.047 0-.118 0-.141.048-.047.048.023.455-.094.455-.094 0-.353-.885-.894-.885-.071 0-.141.072-.141.167 0 .287.282.646.564.813.118.072.33.168.33.216 0 .095-.471 0-.471.167 0 .143.047.335.047.454 0 .048 0 .072-.047.072-.094 0-.306-.407-.4-.407-.094 0-.282.24-.353.24-.023 0-.047-.024-.047-.048 0-.168.259-.55.259-.933 0-.167-.023-.574-.235-.574-.165 0-.376.287-.471.574-.047.167-.023.79-.141.79-.117 0-.07-.431-.235-.431-.118 0-.353.191-.423.191-.024 0-.024 0-.024-.024 0-.095.212-.382.212-.43 0-.12-.494-.12-.494-.216 0-.047.188-.095.376-.12.377-.07.918-.334.918-.716 0-.431-.4-.622-.683-.79-.141-.095-.282-.167-.282-.215 0-.048.165-.048.259-.048.118 0 .212 0 .212-.095 0-.072-.024-.192-.024-.311 0-.072 0-.144.047-.144.118 0 .259.359.329.359.118 0 .283-.287.377-.287.047 0 .047.024.047.096.07.239-.047.55-.047.837zm-3.505-2.177c.07.622.917.311.917 1.077 0 .12-.023.286-.023.406 0 .168.023.311.141.311.117 0 .164-.096.164-.215 0-.12-.023-.263-.023-.359 0-.263.188-.31.282-.31.283 0 .494.286.918.286-.094.478-1.059.359-1.059.861 0 .263.259.311.424.311.164 0 .211-.024.211-.167 0-.072-.023-.168-.023-.216 0-.024.023-.047.047-.047.164 0 .941.597.941.789 0 .167-.824.335-1.082.335-.071 0-.094-.048-.094-.072 0-.048.117-.215.117-.287 0-.072-.117-.12-.4-.12-.141 0-.235.024-.235.12 0 .191.329.454.329.621 0 .144-.094.24-.329.24-.188 0-.494-.168-.494-.407 0-.215.212-.406.212-.55 0-.048-.024-.096-.118-.096-.282 0-.353.718-1.294.813.165-.143.283-.286.283-.621 0-.168-.047-.287-.047-.455 0-.215.094-.334.258-.334.259 0 .4.382.588.382.094 0 .189-.095.189-.215 0-.574-1.059-.478-1.059-1.268 0-.19.071-.454.259-.813zm1.388 4.807c0 .096.07.192.164.192.118 0 .189-.096.189-.216 0-.167-.142-.382-.283-.382-.047 0-.047.095-.047.191.024.072-.023.167-.023.215zm-.377-.98c.777.143 1.176.741 1.176 1.291 0 .383-.235.718-.635.718-.376 0-.635-.264-.635-.67 0-.31.235-.646.235-.957a.519.519 0 00-.141-.382zm-.964 1.267c.07.072.094.144.094.215 0 .12-.047.24-.047.36a.34.34 0 00.329.334.35.35 0 00.353-.359c-.023-.287-.306-.55-.729-.55zm2.423-.478c.047.072.07.167.07.24 0 .214-.141.406-.141.62 0 .24.188.455.471.455.306 0 .494-.239.494-.526 0-.406-.353-.741-.894-.79zm-2.259-.383c.33.048.424.168.424.263 0 .168-.141.216-.282.216-.094 0-.212-.024-.353-.024a.55.55 0 00-.447.191c.094.024.235.072.235.24 0 .43-1.176.07-1.176 1.171 0 .598.588 1.22 1.505 1.22.471 0 .777-.144.777-.335 0-.144-.259-.048-.259-.168 0-.047.094-.143.094-.239 0-.048-.024-.095-.094-.095-.141 0-.376.215-.894.215-.4 0-.776-.24-.776-.55 0-.072.023-.096.07-.096.047 0 .094.024.165.024.047 0 .047-.024.047-.12 0-.071 0-.31.141-.31s.4.526 1.412.526c.329 0 .988-.072 1.223-.287 0 .813-.635 1.889-1.953 1.889-1.364 0-2.093-1.124-2.093-2.128 0-1.148.917-2.177 2.164-2.177.329 0 .588.12.588.263 0 .192-.47.072-.518.311zm-5.269-7.605c0-.12-.023-.167-.047-.167-.071 0-.165.096-.259.287.024.263.047.383.141.383.047 0 .165-.263.165-.503zm-1.011.287c.07 0 .188-.095.376-.31.023-.096.023-.192.023-.287 0-.144-.047-.311-.141-.311-.211 0-.329.598-.329.741-.024.096.023.167.071.167zm1.199.67c.188 0 .377-.717.377-1.148 0-.096-.024-.191-.047-.191-.165 0-.4.741-.4 1.148-.024.12.023.191.07.191zm-1.788-.407c.259 0 .541-1.363.541-1.602 0-.048-.023-.095-.07-.095-.235 0-.541 1.29-.541 1.578-.024.048 0 .12.07.12zm.777.55c-.306 0-.33.383-.33 1.172-.235-.502-.611-1.052-1.082-1.052-.306 0-.423.215-.423.574 0 .072 0 .191.023.263.047-.12.165-.167.306-.167.306 0 .682.239.941.574-.282-.048-.564-.096-.8-.096a.882.882 0 00-.376.072c-.212.095-.494.406-.494.909 0 .071 0 .167.023.239.259-.574.941-.837 1.365-.837.094 0 .165 0 .212.024-.236.215-.283.574-.283.813 0 .12-.047.12-.141.12 0 .238.188.597.188.788 0 .072-.047.12-.07.144 0 .335.329.574.329.765a.182.182 0 01-.047.12c.024.143.376.358.423.454.071.168.118.168.165.168.118 0 .329-.144.329-.287 0-.048-.047-.096-.07-.12-.141-.096-.212-.335-.259-.478-.047 0-.117-.024-.141-.096-.024-.096-.047-.454-.094-.622-.094-.024-.141-.048-.141-.263 0-.095.047-.478.047-.598-.047 0-.094-.024-.094-.12 0-.238.235-.43.306-.717.423.311.517.622.517.909 0 .143-.023.287-.047.43.306-.167.776-.382.776-.86 0-.264-.117-.574-.941-.694.259-.096.588-.143.847-.143.471 0 .729.143.8.478a.9.9 0 00.165-.478c0-.36-.306-.598-.682-.598-.447 0-.847.239-1.271.526.188-.407.33-.646.565-.646.047 0 .07 0 .117.024-.141-.359-.47-.693-.658-.693zm-4.658-4.615c0 .143-.565.646-.753.646-.07 0-.094-.096-.094-.168 0-.143.071-.358.141-.43.094-.096.306-.144.494-.144.094.024.212.024.212.096zm16.984 9.972c.377 0 .659.479.659 1.053 0 .598-.282 1.243-.776 1.698 0-1.005-1.224-.694-1.224-1.411 0-.311.212-.527.494-.527.236 0 .424.072.542.192-.142-.12-.189-.311-.189-.479 0-.262.165-.526.494-.526zm-5.434-7.58c-.047-.096-.282-.144-.376-.144a.606.606 0 00-.588.43.858.858 0 01-.047-.263c0-.334.211-.717.753-.717.47 0 .658.263.705.263.071 0 .141-.072.212-.072.071 0 .071.12.071.215 0 .287-.142.814-.471 1.005-.047-.12-.165-.263-.376-.359a.132.132 0 01-.071-.12.481.481 0 01.188-.239zm-1.105.526c.188.19.353.263.564.263.071 0 .165-.024.235-.024.071 0 .118.024.118.071 0 .072-.07.216-.165.287a.593.593 0 00.283.048c.423 0 .894-.263.894-.932.094.12.141.358.141.478 0 .813-.588 1.124-1.129 1.124-.353 0-.518-.12-.565-.12-.141 0-.141.287-.235.263-.165-.024-.33-.406-.33-.813 0-.191.071-.454.189-.645zm-5.058-2.153c0 .263.917 1.53 1.082 1.53.141 0 .259-.262.259-.477a.459.459 0 00-.047-.168c-.141-.191-1.059-.933-1.27-.933-.024 0-.024.024-.024.048zm10.539-.622c0-.526-1.247-.67-1.247-.789 0-.095.682-.263 1.059-.263-.541-.717-1.341-.645-1.341-.765 0-.072.588-.215 1.129-.215.447 0 .87.095.87.454 0 .191-.164.383-.164.694 0 .167.07.31.282.31.235 0 .282-.239.282-.502 0-.215-.047-.382-.047-.478 0-.31.212-.526.518-.526.258 0 .305.12.682.12a.578.578 0 00-.259.43c0 .31.188.526.188 1.172 0 1.172-1.082 1.578-2.399 1.578-.377 0-.753-.024-1.129-.096-.047 0-.071-.023-.071-.047 0-.096.518-.144.518-.622 0-.191-.047-.359-.047-.43 0-.048.023-.048.047-.048.117 0 .329.43.729.43.117-.024.4-.048.4-.407zm1.223-.74c0 .669-.47 1.171-1.341 1.314h.282c1.012 0 1.365-.454 1.365-.837a.5.5 0 00-.306-.478zm-.682 5.978c0-.168-.377-.168-.424-.598 0-.072-.023-.191-.117-.191-.141 0-.024.406-.165.406-.329 0-.447-.67-.564-.67-.024 0-.071.024-.071.12 0 .072.023.144.023.24 0 .095-.023.167-.117.167-.188 0-.377-.479-.541-.479-.047 0-.071.024-.071.048 0 .096.141.263.141.335 0 .167-.47.072-.47.24 0 .07.07.095.165.095.164 0 .399-.072.517-.072.071 0 .188.024.188.12 0 .095-.258.239-.258.334 0 .048.047.072.07.072.188 0 .541-.359.8-.359.047 0 .165.024.165.096 0 .096-.259.263-.259.407 0 .047.023.071.07.071.142 0 .306-.358.565-.358.094 0 .235.048.306.048.023-.024.047-.048.047-.072zm-5.246-5.668c0-.072-.282-.24-.282-.335 0-.024.023-.024.047-.024.07 0 .211.024.329.024.094 0 .118-.406.188-.406.047 0 .141.382.212.382.094 0 .259-.12.353-.12.023 0 .023 0 .023.025 0 .047-.188.263-.188.31 0 .072.4.144.4.216 0 .072-.423.072-.423.143 0 .048.164.263.164.335 0 .024 0 .024-.023.024-.047 0-.283-.096-.353-.096-.071 0-.212.311-.282.311-.024 0-.047-.024-.047-.072l-.024-.287c0-.023-.023-.047-.047-.047h-.306c-.047 0-.047 0-.047-.024.024-.096.306-.311.306-.359zm1.435 1.411c-.518 0-.847-.263-.847-.383 0-.071.047-.12.094-.12.165 0 .518.264.635.264.024 0 .047-.024.047-.048 0-.143-.117-.359-.117-.478 0-.024.023-.048.07-.048.188 0 .494.072.635.072.048 0 .071-.024.071-.048 0-.168-.47-.478-.47-.574 0-.096.588-.215.588-.359 0-.143-.8-.048-.8-.191 0-.096.164-.287.164-.359-.023-.072-.047-.096-.094-.096-.07 0-.423.144-.564.144-.071 0-.165-.024-.165-.12 0-.167.282-.358.729-.358.73 0 1.153.502 1.153 1.363 0 1.076-.729 1.339-1.129 1.339zm-4.94 12.842a.391.391 0 01-.071.215c-.07-.143-.306-.215-.4-.215-.752 0-.47 1.1-1.27 1.1-.329 0-.376-.048-.494-.048-.047 0-.07.024-.07.072 0 .191.258.67 1.011.67.753 0 1.482-.479 1.482-1.052a.82.82 0 00-.071-.311c.024-.048.095-.072.165-.072.118 0 .188.143.282.143a.213.213 0 00.212-.215c0-.095-.047-.167-.141-.215a.218.218 0 00.094-.191c0-.12-.094-.24-.235-.24a.212.212 0 00-.165.072c-.023-.143-.094-.263-.235-.263-.118 0-.188.072-.188.215 0 .12.094.216.094.335zm-1.976.287c-.212 0-.541-.239-.541-.383 0-.12.094-.167.188-.167.188 0 .518.24.518.43-.024.048-.048.12-.165.12zm-2.047-1.674c.588.144.871.478.941.837.047.359.141.67.259.813.188.215.541.383.847.383.259 0 .47-.096.47-.335 0-.263-.353-.86-.894-.86h-.188c-.07 0-.164-.025-.212-.073-.117-.095-.164-.67-.376-1.004-.235-.383-.494-.478-.87-.478-.259 0-.541.143-.541.358.047.168.117.24.564.36zm3.67-.885c0-.335-.682-.335-.682-.837 0-.12.07-.335.235-.574.071.383.212.598.541.718.659.239.729.622.729 1.004 0 .67-.47 1.507-1.646 1.507-.941 0-1.624-.861-1.624-1.579 0-.19.048-.43.165-.43.118 0 .141.096.235.167.33.335.683.43 1.2.43.518-.023.847-.214.847-.406zm.047.526c-.259.096-.353.096-.353.36 0 .095-.023.214-.023.286 0 .096.023.144.117.144.259 0 .682-.455.682-.837 0-.096-.047-.144-.117-.144-.071 0-.141.096-.306.191zm-2.352-3.754c0-.479 1.105-.718 1.105-1.316 0-.095-.047-.263-.094-.382.377.215.682.574.682.885 0 .502-.517.741-.517 1.076 0 .383.564.43.564.885 0 .382-.541.813-.541 1.315 0 .383.259.694.659.741-.141.024-.259.048-.376.048-.73 0-1.506-.622-1.506-1.363 0-.359.165-.694.377-.909.211.168.399.287.541.287.117 0 .164-.048.164-.143.024-.287-1.058-.526-1.058-1.124zM123.65 29.306c.212 0 .565-.072.847-.526-.164-.359-.282-1.1-.282-1.363-.071-1.363.423-2.63.988-2.679.423-.023.753.383.776 1.005.094 1.698-.447 2.391-.729 3.013.047.24.447.646.823.646a.615.615 0 00.353-.12 1.61 1.61 0 01-.047-.406c0-.98.612-1.818 1.153-1.818.423 0 .682.574.682.957 0 .454-.376.813-.917 1.172a.669.669 0 00.423.167c.776 0 1.2-.957 1.506-1.841.047-.168.141-.407.352-.407.33 0 .471 2.2 1.012 2.2.235 0 .423-.478.423-.86 0-.288-.094-.312-.094-.718 0-.455.235-.837.541-.837.188 0 .259.191.259.43 0 .885-.635 2.56-1.576 2.56-.706 0-.659-1.244-.894-1.244-.282 0-.659 1.243-2.023 1.243-.212 0-.447-.12-.635-.335-.33.215-.612.335-.918.335-.517 0-.729-.526-.941-.526-.258 0-.517.55-1.34.55-.659 0-.777-.885-1.012-.885-.212 0-.518.885-.87.885-.588 0-.706-1.554-1.224-1.554-.4 0-1.67 1.578-1.999 1.53-.141-.024-.188-.12-.188-.263.023-.191.188-.717.258-.957.118-.43.212-.884.283-1.052.047-.143.211-.263.329-.239.071 0 .071.12.094.215.071.359.165.694.282.694.189 0 .824-1.244 1.2-1.244.447 0 .518 1.961 1.129 1.961.212 0 .353-.263.494-.55.024-.526.141-1.267.565-1.267.282 0 .423.645.212 1.243-.047.718.399.885.705.885zm10.257-1.315c0-.359-.306-.837-.776-.837-.612 0-1.224.693-1.224 1.626 0 .861.518 1.124 1.035 1.124.918 0 1.459-.765 1.741-1.387.141.43.212 1.387.565 1.387.141 0 .235-.072.4-.454.423-.933.799-2.01 1.364-2.01.212 0 .094.383.588.383.235 0 .4-.19.4-.43 0-.31-.282-.574-.729-.574-1.294 0-1.576 1.985-1.765 1.985-.352 0-.235-1.578-.47-1.578-.212 0-.329.263-.353.382-.188.718-.682 1.77-1.458 1.77-.189 0-.494-.072-.494-.263-.024-.144 1.176-.167 1.176-1.124zm-8.398-1.818c-.024-.382-.118-.574-.33-.55-.282.024-.4.885-.352 1.818.047.598.117.693.211.693.165-.024.541-1.1.471-1.96zm-2.235-.837a.417.417 0 00-.424-.382c-.258 0-.517.287-.47.622 0 .215.141.43.423.43.283 0 .494-.335.471-.67zm4.281 2.87c0-.239-.117-.43-.282-.43-.118 0-.423.143-.423.598 0 .358.117.526.188.597.423-.167.517-.502.517-.765zm5.387-.478c.283 0 .377.358.306.55-.07.215-.306.454-.706.526-.07-.215-.117-1.076.4-1.076zm-18.937.215c-.023-.574.024-1.148.259-1.961.118-.43.235-.598.612-.67.306-.047.282.264.212.646-.142.837-.212 1.244-.165 2.2.047 1.005.517 1.411 1.011 1.411.753.024 1.083-.621 1.224-1.53.117-.718.023-1.077-.047-1.292a5.007 5.007 0 01-.189-.622c-.047-.526.189-.789.4-.86.259-.072.353.047.447.358.118.455.141 1.029.094 1.866-.047 1.148-.611 2.535-2.023 2.51-1.246-.047-1.788-.836-1.835-2.056zM63.63 47.518c-2.057 0-4.114.004-6.171-.004-.202 0-.278.029-.274.252.021.563.013 1.13 0 1.697-.004.186.046.244.244.244 1.594-.008 3.188-.004 4.785-.004.312 0 .274-.029.274.26 0 2.591.004 5.186-.004 7.776 0 .17.042.22.22.216a43.152 43.152 0 011.79 0c.199.004.241-.054.241-.24-.004-2.591-.004-5.186-.008-7.776 0-.186.042-.244.24-.244 1.606.008 3.216 0 4.827.008.181 0 .253-.029.248-.232a34.137 34.137 0 010-1.738c.005-.19-.054-.223-.236-.223-2.061.008-4.118.008-6.175.008zM42 44.004c.675 0 1.349.005 2.023-.004.173-.004.224.042.224.215-.008 1.16-.004 2.318-.004 3.476v.257c.303-.17.594-.298.902-.389.615-.178 1.248-.19 1.876-.194 1.108-.009 2.217-.013 3.33.012 1.201.029 2.297.364 3.195 1.183.772.704 1.202 1.577 1.32 2.608.046.405.03.81.03 1.216.004 1.8 0 3.6.004 5.4 0 .174-.047.22-.224.216a68.346 68.346 0 00-1.834 0c-.168.004-.21-.046-.21-.207.012-1.738.02-3.472.02-5.21 0-.48.022-.964-.109-1.436a2.108 2.108 0 00-1.952-1.56 45.301 45.301 0 00-4.106-.02c-1.353.045-2.25 1-2.25 2.337 0 1.958-.005 3.915.004 5.872 0 .166-.034.224-.215.22-.675-.013-1.35-.005-2.024-.005V44.005zM85 57.991h-8.511c-2.192 0-3.836-1.241-4.304-3.343-.333-1.498-.342-3.017.177-4.486.56-1.593 1.745-2.504 3.44-2.715 1.163-.145 2.34-.082 3.511-.058.063 0 .127.005.19.005 1.834.004 3.668.004 5.497.004v2.193c-.03 0-.055-.004-.084-.004a5275.26 5275.26 0 00-8.153-.009c-.194 0-.396 0-.586.038-.953.19-1.775 1.105-1.889 2.094a9.407 9.407 0 000 2.123c.097.898.574 1.518 1.446 1.833.49.178 1.008.161 1.518.17 1.332.012 2.668.008 4-.017 1.248-.02 2.5-.013 3.748-.017v2.19z" fill="#fff"/><path d="M63.628 47.518c2.058 0 4.115.004 6.172-.004.177 0 .24.033.236.223-.013.58-.017 1.159 0 1.738.004.203-.067.232-.249.232-1.606-.008-3.216 0-4.826-.008-.199 0-.24.058-.24.244.004 2.59.004 5.185.008 7.776 0 .186-.043.244-.24.24a43.148 43.148 0 00-1.792 0c-.177.004-.22-.046-.22-.216.005-2.59.005-5.185.005-7.775 0-.29.038-.26-.274-.26-1.594 0-3.187-.005-4.785.003-.198 0-.249-.058-.244-.244.012-.567.017-1.13 0-1.697-.009-.223.071-.256.274-.252h6.175zM205 12.006v.184c-.05.107-.107.209-.151.323-.075.177-.075.341.05.512.132.178.088.386-.087.526a.723.723 0 01-.271.133c-.037.012-.081.006-.106.044-.007.031.012.057.018.088.126.367.145.735-.062 1.083-.019.031-.032.076-.051.114a2.51 2.51 0 00-.176.702c-.018.222.057.348.258.418.044.013.088.025.126.05.094.058.113.14.044.228a.198.198 0 01-.076.07c-.239.133-.471.266-.741.335a.671.671 0 01-.754-.278 1.613 1.613 0 01-.201-.405 3.543 3.543 0 01-.176-1.057.267.267 0 00-.082-.203 3.673 3.673 0 01-.421-.512 2.344 2.344 0 01-.327-.646c-.113-.386-.031-.728.227-1.031.019-.026.056-.038.063-.076-.007-.026-.026-.032-.044-.045a1.504 1.504 0 00-.842-.19c-.44.02-.748.235-.93.633a2.357 2.357 0 00-.164.614c-.106.722.157 1.298.698 1.772.056-.063.107-.126.157-.183.05-.05.094-.108.151-.146.15-.107.295-.063.358.108a.377.377 0 01.025.088c.056.184.107.368.163.551.019.05.038.108.063.152.05.082.101.101.189.063.044-.019.081-.044.119-.057.163-.063.302 0 .364.159a.495.495 0 01.032.133c.012.132.044.259.075.386.044.19.076.38.145.556.05.14.075.152.207.102a1.35 1.35 0 01.352-.076c.295-.026.459.14.44.43-.007.12-.044.228-.082.336a3.465 3.465 0 01-.653 1.031 2.368 2.368 0 00-.346.494c-.069.133-.126.272-.188.411a2.6 2.6 0 01-.566.836c-.477.456-1.043.633-1.69.519-.119-.02-.233-.05-.352-.076.006.044.031.063.05.088.164.19.346.368.547.52.151.113.289.234.402.386a.653.653 0 01.151.436c-.019.234-.013.469-.019.696-.006.216.006.43.05.646.082.399.164.791.101 1.202-.032.184-.019.19.163.19h3.512c.057 0 .113-.006.183.013a2.423 2.423 0 01-.082.14c-.308.537-.616 1.082-.93 1.613a.215.215 0 00-.006.222c.289.563.578 1.126.861 1.69.025.044.062.088.056.158h-8.84c-.189 0-.151-.006-.195.145-.138.469-.27.944-.408 1.412-.026.076-.057.152-.057.234h-.063c-.019-.057-.075-.057-.119-.07-.383-.139-.767-.265-1.156-.386a28.293 28.293 0 00-6.767-1.164 24.925 24.925 0 00-4.122.139c-.823.095-1.64.222-2.456.386-1.27.253-2.514.589-3.733 1.025-.044.02-.1.026-.132.07h-.062c.018-.044-.007-.089-.013-.133-.151-.513-.295-1.019-.446-1.532-.038-.126-.038-.126-.176-.126h-8.821c-.057 0-.12.012-.176-.013-.007-.057.031-.095.056-.139.283-.557.566-1.114.855-1.67.05-.096.05-.166-.007-.26-.314-.532-.615-1.07-.923-1.602-.025-.044-.063-.082-.063-.139.057-.025.107-.013.163-.013h3.167c.025 0 .05-.012.05-.044 0-.038-.025-.038-.05-.038a8.721 8.721 0 01-.408-.025c-.227-.02-.352-.158-.352-.393 0-.05.006-.1.019-.152.056-.297.106-.594.163-.892.031-.164.05-.329.063-.494.019-.303-.013-.607-.013-.911 0-.145-.006-.291.032-.437.056-.215.15-.297.364-.316a6.64 6.64 0 00.496-.057c.333-.057.622-.203.824-.487.144-.197.232-.412.282-.646.007-.032.025-.07-.019-.114-.062 0-.138.006-.213 0-.371-.025-.742-.082-1.081-.247-.446-.215-.754-.55-.861-1.044a2.049 2.049 0 01.044-.975c.145-.519.409-.974.723-1.405.119-.164.245-.316.371-.48.15-.203.282-.419.32-.678.025-.165-.019-.234-.163-.297-.057-.026-.113-.045-.164-.076-.207-.127-.226-.323-.063-.494.07-.07.158-.127.239-.184a.891.891 0 01.773-.139c.138.032.138.032.189-.095a1.5 1.5 0 00.081-.778c-.094-.614-.427-1.045-.98-1.31a.743.743 0 00-.201-.064c-.22-.031-.352.045-.446.253-.145.336-.032.842.239 1.089.031.032.069.063.094.101.113.152.069.304-.107.361a.835.835 0 01-.352.05c-.107-.012-.113-.006-.113.108 0 .095-.006.19-.025.285-.075.405-.258.766-.478 1.108a9.16 9.16 0 00-.496.867c-.082.164-.163.329-.239.487a.726.726 0 01-.176.26.369.369 0 01-.408.038c-.107-.057-.157-.171-.132-.33a.529.529 0 01.032-.145c.056-.165.025-.316-.051-.468a5.092 5.092 0 00-.383-.64c-.182-.253-.239-.531-.233-.829.007-.114.013-.221.026-.335.006-.064-.013-.095-.076-.108a.628.628 0 01-.182-.063c-.232-.114-.251-.31-.057-.475.22-.19.409-.418.591-.645.038-.051.038-.089-.012-.127a1.625 1.625 0 00-.283-.17c-.088-.045-.176-.083-.258-.127-.05-.051-.113-.12-.107-.216.007-.107.082-.158.17-.19.339-.113.672-.234 1.03-.29a2.78 2.78 0 00.836-.285c.17-.095.333-.19.496-.285a3.77 3.77 0 01.893-.361 1.444 1.444 0 011.193.196c.157.101.302.222.428.36.326.362.628.742.747 1.229a3.392 3.392 0 01-.22 2.278c-.018.045-.037.083-.056.127-.038.101-.025.145.063.209.075.057.157.114.22.19a.454.454 0 01.106.449 1.176 1.176 0 01-.131.285c-.202.323-.409.639-.591.975-.038.07-.088.132-.138.196-.057.076-.126.126-.233.107-.113-.025-.188-.088-.213-.202l-.114-.456c-.006-.025.007-.063-.044-.07-.018.026-.043.051-.062.076-.201.266-.402.532-.585.81a2.788 2.788 0 00-.232.425.955.955 0 00-.076.474.69.69 0 00.71.646c.17 0 .34-.044.503-.089.088-.025.126-.07.119-.158a.495.495 0 01.019-.165c.126-.784.509-1.43 1.081-1.968.094-.089.195-.158.308-.222.201-.113.402-.227.603-.348.163-.095.327-.202.471-.322a.354.354 0 00.113-.14c.126-.316.252-.626.371-.943a2.5 2.5 0 00.17-.702c.063-.76-.151-1.45-.547-2.089-.025-.038-.038-.082-.094-.101-.032.057-.019.12-.032.177-.056.348-.245.469-.578.374a1.332 1.332 0 01-.917-.83c-.038-.095-.056-.19-.107-.278-.056.013-.081.063-.125.089-.107.063-.208.07-.315.006-.05-.025-.088-.07-.125-.108a2.799 2.799 0 01-.383-.652c-.026-.05-.032-.107-.038-.164-.025-.222.012-.43.05-.646.013-.095.057-.183.044-.278-.044-.007-.075.012-.113.019a1.295 1.295 0 01-.264.05c-.163.007-.251-.082-.232-.24.006-.057.018-.108.025-.165a2.84 2.84 0 00.05-.652c-.013-.215-.088-.38-.302-.462a.687.687 0 01-.276-.208c-.138-.178-.082-.336.138-.374.17-.031.333-.07.497-.12.647-.215 1.174-.614 1.614-1.146-.019-.038-.069-.057-.107-.088-.113-.095-.226-.184-.326-.291a1.158 1.158 0 01-.296-.507.673.673 0 01.384-.81c.056-.025.119-.044.182-.063.239-.057.477-.032.716.019.044.006.088.038.132 0l-.038-.114c-.031-.101-.031-.101.076-.14l.528-.17c.069-.026.144-.076.213-.05.069.018.038.126.101.189.037-.044.081-.089.119-.127.189-.196.396-.36.666-.424.396-.095.729.102.842.494.057.196.057.399.013.601a5.39 5.39 0 01-.239.817c-.013.038-.044.076-.032.126.057.026.114.007.164.007.195 0 .301.114.251.304a.243.243 0 00.076.265c.031.032.062.07.094.102.634.595 1.225 1.227 1.866 1.81.132.12.226.272.264.45.094.41-.333.79-.673.62-.012-.007-.037-.02-.062 0 .006.075.05.145.056.227.013.196-.05.298-.232.348-.245.064-.478.038-.679-.133-.144-.12-.289-.24-.427-.36-.214-.19-.465-.292-.741-.355-.032-.006-.063-.038-.101.007.069.094.138.183.207.272.308.398.679.715 1.125.943.245.126.49.253.741.38.352.177.692.373.993.626.767.646 1.225 1.437 1.156 2.481 0 .019-.019.05.025.063.019-.044.038-.088.057-.139.107-.291.232-.57.377-.842.528-1.025 1.219-1.917 2.149-2.6a.295.295 0 00.106-.16c.126-.335.17-.676.145-1.03-.019-.229-.069-.45-.207-.64-.082-.114-.088-.114-.22-.057a.528.528 0 01-.723-.386c-.025-.095-.006-.19.006-.285-.54.032-.885-.342-.722-.924-.39.006-.679-.152-.798-.538-.113-.36.025-.652.346-.88a.792.792 0 01-.434-.398.74.74 0 01-.019-.589.736.736 0 01.314-.373c.214-.127.446-.127.698-.045a.874.874 0 01.031-.57.754.754 0 01.377-.398c.427-.196.779-.063 1.068.297a.686.686 0 01.471-.43h.239c.27.076.434.247.503.532.044-.032.069-.051.1-.07a.515.515 0 01.729.14c.063.094.132.107.226.094.195-.031.289-.126.315-.329a.324.324 0 01.207-.272.583.583 0 01.232-.044h.635c.057 0 .119.012.176.025.144.044.245.133.258.297 0 .045.012.089.037.133.063.127.17.171.302.197.113.019.176-.032.245-.12.157-.222.465-.267.704-.121.037.019.056.07.113.057.1-.304.207-.411.502-.513h.239c.22.064.383.203.471.43.038-.044.057-.075.082-.1a.796.796 0 01.942-.228.812.812 0 01.478.848c-.006.044-.031.088 0 .133.465-.108.804.031.968.386a.745.745 0 01.044.506c-.063.253-.233.418-.478.525.308.216.446.494.352.848-.107.412-.415.57-.823.57.088.247.081.468-.069.67-.157.21-.384.26-.629.241v.057a.533.533 0 01-.741.608c-.063-.025-.094-.006-.126.032a.98.98 0 00-.207.398 2.13 2.13 0 00.075 1.355.254.254 0 00.101.126c.132.102.264.203.389.317.39.342.736.721 1.037 1.14.032.043.05.094.12.107.138.031.276.044.42.044.063 0 .088-.032.088-.095-.006-.095.013-.19.032-.285.044-.266.151-.493.371-.658.125-.095.27-.152.421-.196.295-.082.603-.101.911-.12.402-.032.804-.026 1.2-.09.772-.132 1.313-.55 1.57-1.31a.737.737 0 00.038-.385c-.056-.02-.1.012-.151.025-.27.07-.534.133-.81.158-.283.026-.547.12-.767.317-.113.107-.276.107-.402.019a.502.502 0 01-.119-.114 6.406 6.406 0 00-.365-.462.268.268 0 01-.056-.253.418.418 0 01.213-.279c.101-.063.214-.088.327-.114.101-.025.207-.044.308-.07.057-.012.088-.056.094-.12.007-.063-.012-.107-.063-.139a.76.76 0 00-.15-.063 1.222 1.222 0 00-.566-.007c-.22.051-.345-.019-.427-.227a.892.892 0 01-.069-.266c-.013-.127 0-.247.094-.342.063-.063.057-.127.025-.196-.025-.063-.056-.127-.088-.196a.598.598 0 01-.056-.247.366.366 0 01.22-.367c.05-.026.1-.038.157-.05.238-.052.477-.033.722-.02a.725.725 0 00.365-.07c.056-.031.119-.056.176-.088.182-.108.383-.146.59-.14l.798.02c.119.006.233-.007.346-.038.364-.108.729-.228 1.024-.494.201-.184.427-.12.528.14.025.062.044.126.056.19.025.1.044.208.063.31.038.278.157.506.364.695.082.076.157.159.239.235.151.145.264.316.346.506.075.183.163.373.238.557.145.354.428.57.748.74.138.07.283.102.434.032.163-.076.276.05.289.184a.445.445 0 01-.139.386c-.094.088-.194.177-.289.265-.119.114-.125.152-.062.31.012.026.018.045.031.07.151.234.088.43-.069.627-.044.05-.088.095-.132.145a.211.211 0 00-.044.24c.025.064.044.134.057.203.031.171-.026.279-.176.367-.12.07-.245.12-.377.152-.164.038-.214.114-.208.285.007.095.013.19.013.291 0 .184-.063.272-.233.33-.069.025-.138.037-.201.056a.242.242 0 00-.201.216c-.006.057-.019.12-.019.177-.006.107 0 .215-.012.316-.013.165-.019.336-.076.494-.075.202-.194.291-.408.291h-.132c-.012.057.025.089.038.133.081.184.163.367.239.557.295.721.515 1.468.571 2.253.019.234.032.462.076.696.063.342.176.652.452.886a.737.737 0 01.182.291c.107.273.183.558.208.855a.613.613 0 00.314.5c.245.145.509.183.785.127.453-.102.811-.557.842-1.051.025-.355-.126-.62-.44-.779a.934.934 0 00-.936.02c-.019.012-.031.025-.05.031-.094.044-.176.02-.239-.063a.337.337 0 01-.063-.171 1.602 1.602 0 01.025-.62c.057-.247.176-.45.409-.57.006-.006.006-.013.012-.025a17.6 17.6 0 01-.98-1.602c-.408-.76-.521-1.57-.308-2.41.346-1.343 1.866-1.931 2.853-1.438.327.165.66.171 1.011.07.516-.152.547-.133 1.031.057.006 0 .006.006.012.006.208.095.415.165.654.146.157-.013.295.063.358.24zm-20.03-6.829a.086.086 0 00.018.013c.013-.006.013-.025 0-.038-.056-.33-.119-.658-.175-.994-.158.19-.327.304-.566.279-.245-.026-.39-.184-.465-.412-.283.247-.597.342-.986-.006-.214.608-.692.734-1.15.576.012.544-.101.614-.365.86.214.096.371.241.453.463.081.228.037.443-.069.664.238 0 .421.089.553.279.125.19.132.392.056.614h.107c.283.019.49.221.515.5 0 .031-.006.07-.006.107 0 .12.075.171.176.133l.528-.209c.006-.031-.013-.044-.032-.057-.446-.373-.798-.829-1.131-1.29a1.948 1.948 0 01-.295-.608c-.176-.652.144-1.21.798-1.361.226-.05.459-.057.691-.025.44.057.842.227 1.225.443.032.025.069.063.12.07zm-7.999 25.418c6.051-2.063 12.108-2.057 18.152-.006a.164.164 0 00.044-.095c.308-1.064.622-2.127.936-3.184.05-.164.094-.329.145-.493.019-.058.006-.102-.057-.114l-.056-.02a25.542 25.542 0 00-2.042-.639 31.648 31.648 0 00-5.09-.95c-.71-.075-1.42-.126-2.136-.145a28.763 28.763 0 00-4.48.221c-.93.121-1.86.28-2.777.476a28.178 28.178 0 00-3.65 1.037c-.132.051-.132.051-.095.178l1.056 3.639c.013.032.019.063.05.095zm9.067-21.006a5.495 5.495 0 00-1.37.183c-.986.279-1.822.81-2.538 1.544-.937.969-1.54 2.127-1.91 3.418-.019.063-.026.114.025.165.132.133.163.304.151.487-.013.184-.051.36-.088.538-.107.544-.164 1.089-.114 1.646.019.215.032.436.044.651a.461.461 0 01-.157.393c-.05.044-.056.082-.044.145.183.969.516 1.88 1.018 2.728.559.937 1.276 1.735 2.206 2.304 1.313.804 2.714 1.026 4.197.595 1.043-.304 1.91-.892 2.632-1.696 1.15-1.266 1.766-2.779 1.992-4.469.019-.126.013-.126-.107-.19-.169-.088-.276-.214-.264-.417.007-.12-.006-.133-.119-.177-.189-.076-.314-.24-.289-.43.044-.31.126-.608.352-.836.107-.108.213-.209.326-.317.051-.044.063-.088.051-.158a8.959 8.959 0 00-.71-2.31c-.459-.975-1.068-1.835-1.891-2.525-.981-.823-2.112-1.266-3.393-1.272zm8.551 7.322c.05.064.119.095.176.12.207.108.427.178.653.222.314.064.61.171.893.317.483.24.785.651 1.049 1.1.012.026.044.064-.013.108-.289-.202-.502-.5-.823-.702v.14c-.006.17-.031.335-.107.486-.15.317-.226.659-.276 1.007-.032.177-.063.36 0 .544.295.905.798 1.64 1.677 2.064.258.12.516.227.798.253.208.019.415.063.629.095.213.031.352.158.465.329.245.36.213 1.19-.333 1.487-.252.133-.434.354-.585.601a.433.433 0 00-.069.304c.019.133.094.184.22.14.069-.026.132-.07.201-.102.05-.025.094-.057.145-.076.069-.025.094-.006.094.07-.006.076-.025.152-.031.228-.013.126.087.265.219.303.107.032.214-.019.283-.139.032-.057.063-.114.101-.17.056-.083.107-.077.163.012a.966.966 0 01.063.14c.038.1.113.138.214.138.144.007.245-.063.282-.221.101-.43.176-.86.076-1.304-.057-.253-.12-.506-.126-.76a6.32 6.32 0 01.019-.924.48.48 0 00-.126-.373 1.552 1.552 0 00-.301-.272 2.556 2.556 0 01-.327-.272c-.509-.506-.899-1.101-1.276-1.71-.012-.018-.018-.037-.025-.056-.025-.063-.094-.146-.037-.19.069-.063.138.025.188.07.176.139.314.316.434.5.037.057.062.126.132.164.012-.044.031-.082.037-.12.057-.266.069-.538.038-.81a3.513 3.513 0 00-.182-.81.689.689 0 00-.176-.279 1.492 1.492 0 01-.409-.683c-.094-.304-.119-.614-.144-.93a6.863 6.863 0 00-.295-1.545c-.208-.664-.503-1.291-.805-1.911-.006-.013-.018-.02-.031-.032-.05.095-.101.19-.157.279a1.123 1.123 0 01-.534.474c-.182.082-.352.032-.459-.133a.635.635 0 01-.1-.234c-.026-.114-.038-.228-.063-.342-.025-.126-.019-.26-.063-.386-.019.007-.038.013-.05.02-.321.195-.679.335-1.018.493-.132.063-.27.076-.415.063-.138-.012-.251-.07-.314-.202-.019-.038-.006-.102-.05-.12-.044-.026-.101-.007-.151-.007-.038 0-.069.006-.107.006-.069 0-.113.032-.144.089-.07.114-.126.228-.164.354-.075.254-.063.513-.019.766.026.14.044.285.107.418.314-.24 1.093-.557 1.276-.525-.007.006-.007.019-.013.025-.038.025-.075.044-.119.07a4.239 4.239 0 00-.848.576 2.611 2.611 0 01-.597.38c-.189.088-.39.139-.585.208-.138.05-.276.095-.389.196-.17.152-.34.317-.509.475-.176.17-.226.399-.27.627-.025.12.056.183.169.158.032-.007.069-.02.101-.025.163-.032.195 0 .182.158-.006.095-.025.19-.044.285-.006.044-.013.088.019.133.069.088.176.094.27.113.069.013.107-.031.151-.075.113-.12.151-.114.226.044a.234.234 0 00.025.057.433.433 0 00.195.202c.132.064.201.045.27-.088s.101-.273.113-.424a.524.524 0 01.352-.481c.528-.216 1.005-.526 1.458-.88.044-.032.081-.076.125-.108.07-.05.157-.044.208.007.05.05.05.126.006.196a.277.277 0 01-.038.044c-.031.032-.025.063 0 .089.051.05.107.095.183.088.15-.012.289-.057.358-.208.044-.102.094-.203.132-.304a.42.42 0 01.22-.235c.207-.1.427-.17.659-.208.025-.007.057-.02.076.019 0 .025-.019.038-.038.044-.157.082-.295.196-.44.291a.65.65 0 00-.257.323 1.61 1.61 0 01-.132.272.485.485 0 01-.239.222c-.289.126-.553.12-.754-.114l-.013-.013c-.025-.038-.056-.032-.088-.006-.125.082-.282.19-.452.303zm-19.346-4.044c0 .057.026.108.038.158.138.469.182.943.107 1.424-.05.317-.157.614-.277.912-.1.247-.219.487-.314.74a.465.465 0 01-.207.234c-.339.21-.672.43-1.024.614a1.894 1.894 0 00-.484.38c-.188.203-.352.43-.484.677-.195.361-.32.74-.339 1.152-.013.234-.031.462-.05.696a4.1 4.1 0 01-.151.867c-.201.627-.61 1.032-1.269 1.159-.17.031-.34.044-.509.063-.132.013-.138.019-.157.158a1.94 1.94 0 00-.007.424c.019.355.038.71-.012 1.064-.057.386-.12.765-.182 1.152-.032.177-.019.19.157.196.22.006.44.012.659.025.114.006.132.025.082.127-.069.145-.088.31-.17.449-.05.089-.025.14.063.183a.44.44 0 00.082.032c.27.064.54.05.804-.006a.24.24 0 00.182-.165.793.793 0 00-.226-.854c-.213-.177-.421-.36-.634-.538a.55.55 0 01-.176-.272 1.7 1.7 0 01-.063-.735c.025-.158.063-.316.094-.474a.328.328 0 01.207-.26.975.975 0 01.233-.063c.182-.032.358 0 .54.02.139.012.283.018.421-.014.201-.044.365-.145.459-.335.031-.057.019-.095-.044-.114a.38.38 0 00-.358.032c-.22.152-.459.101-.691.025a.142.142 0 01-.051-.032c-.025-.019-.05-.044-.037-.076.006-.031.037-.044.069-.05a.962.962 0 01.301-.007.254.254 0 00.233-.076.516.516 0 01.471-.139c.107.02.207.05.302.095.1.044.201.05.308.026.383-.108.684-.304.835-.697.107-.285.226-.563.346-.841.138-.323.295-.64.509-.93.414-.558.948-.906 1.633-1.02.157-.025.321-.038.478-.07.339-.07.628-.234.905-.436.502-.367.848-.874 1.168-1.399.063-.107.113-.221.17-.335-.107-.057-.201-.076-.295-.108-.56-.17-1.106-.36-1.678-.48a1.84 1.84 0 01-.408-.147.483.483 0 01-.151-.1c-.063-.064-.069-.14-.025-.203.05-.064.119-.083.201-.026.132.089.276.14.427.184.107.032.214.044.32.076.566.145 1.119.329 1.672.506a.862.862 0 01.201.101.4.4 0 01.201.425 6.158 6.158 0 00-.044.968c.006.221-.069.405-.182.582-.126.196-.465.374-.698.266-.012-.006-.031-.006-.044-.006-.169-.02-.289.088-.289.26 0 .138 0 .284.025.423.025.152.101.196.245.146.208-.07.415-.146.622-.222.164-.063.327-.12.49-.196.158-.07.195-.127.176-.297-.012-.152-.018-.304-.031-.456a6.21 6.21 0 01.119-1.899 3.5 3.5 0 00.076-.45.362.362 0 00-.126-.31 3.828 3.828 0 00-.358-.278c-.522-.373-1.068-.721-1.596-1.088-.333-.228-.685-.443-.98-.735-.032-.031-.057-.025-.094-.012a.655.655 0 01-.409.05 2.418 2.418 0 01-.829-.297c-.157.145-.157.145-.478.177zM198.17 8.07c.063.019.082.063.101.107a.955.955 0 01.094.348c.063.545-.006 1.076-.113 1.614-.082.405-.302.71-.616.956a2.42 2.42 0 01-1.187.48c-.471.064-.949.102-1.427.153-.351.038-.709.076-1.061.14-.409.075-.66.34-.71.752-.044.367.113.456.389.437.277-.019.553-.025.823-.07.032-.006.057-.019.088.007.019.05-.025.082-.037.126-.026.076-.101.171-.038.234.063.064.17.02.257-.006.013 0 .019-.006.026-.013.471-.208.961-.392 1.35-.753a.453.453 0 01.114-.076c.031-.019.062-.05.106-.031.019.038.007.082-.006.12a1.106 1.106 0 00-.05.55c.031.228.05.456.125.671.044.133.095.146.214.07.176-.107.289-.266.383-.443.107-.202.201-.405.308-.608.025-.05.038-.12.101-.145.05.032.056.082.075.127.044.132.088.272.126.405.05.177.169.272.333.316.163.044.232-.006.264-.177.019-.12.031-.24.031-.361 0-.158.006-.316.032-.468.044-.247.175-.412.427-.475a.988.988 0 01.132-.032c.063-.012.088-.044.081-.107-.006-.083-.006-.165-.012-.24-.006-.31.113-.476.408-.57.063-.02.126-.032.189-.057.182-.076.195-.083.119-.266-.088-.222-.031-.405.12-.57.043-.05.087-.095.131-.145.063-.076.082-.159.019-.247a.618.618 0 01-.088-.21.457.457 0 01.113-.486l.264-.247c.025-.026.063-.045.069-.089a.813.813 0 01-.395-.044c-.403-.171-.742-.424-.943-.83a7.751 7.751 0 01-.27-.607 1.426 1.426 0 00-.358-.519 4.593 4.593 0 01-.346-.36 1.122 1.122 0 01-.232-.456c-.025-.095-.044-.197-.063-.298-.025-.107-.044-.215-.075-.323-.026-.088-.051-.095-.126-.031a1.44 1.44 0 01-.283.202c-.257.14-.528.24-.81.317a1.431 1.431 0 01-.402.05l-.767-.019a.93.93 0 00-.534.127c-.031.019-.069.038-.107.057a.976.976 0 01-.553.12c-.163-.006-.333-.006-.496-.006a.782.782 0 00-.207.032c-.07.019-.101.063-.082.139.019.05.038.107.056.158.026.07.063.14.082.209.044.145.038.285-.075.411-.069.07-.051.279.019.348a.07.07 0 00.069.02 1.417 1.417 0 01.873.063c.239.1.327.303.258.557a.388.388 0 01-.277.278c-.132.038-.264.063-.396.095a.506.506 0 00-.207.089c-.031.025-.063.057-.025.1.119.153.239.305.358.45.031.038.069.05.113.007.245-.216.534-.317.848-.355a4.97 4.97 0 001.251-.31c.012-.006.031-.013.044.006 0 .007.012.02.012.038.094.494 0 .956-.276 1.38-.384.595-.943.893-1.621.994-.421.063-.855.063-1.276.095-.27.019-.54.038-.804.12a.703.703 0 00-.515.576 1.89 1.89 0 00-.025.468.846.846 0 00.251.57c.214.215.44.228.672.038.182-.152.34-.33.446-.544.126-.254.314-.444.578-.551.139-.057.283-.076.428-.095a51.436 51.436 0 012.218-.247c.295-.025.584-.107.848-.24.408-.21.703-.513.842-.962.037-.127.081-.254.113-.38.119-.487.201-.975.069-1.469.012-.063.006-.126.031-.19zm-22.958.019c.069.063.069.12.082.17.031.12.081.241.15.342.051.07.107.14.189.171.126.05.251.108.383.133.346.07.66.203.93.443.138.127.283.24.427.36.082.07.176.102.283.09.113-.013.138-.051.101-.159-.026-.082-.057-.164-.069-.247-.019-.196.106-.31.295-.265.063.012.119.044.182.07.107.044.163.03.239-.058.069-.082.075-.17.044-.272a.679.679 0 00-.195-.266c-.119-.107-.239-.215-.352-.329-.433-.424-.873-.854-1.307-1.285-.119-.114-.245-.221-.352-.354-.088-.114-.182-.228-.113-.386-.364-.057-.716-.171-1.062.019.019.044.076.063.07.126-.063.02-.12-.006-.176-.025-.145-.044-.283-.095-.428-.145a.962.962 0 00-.358-.051c-.088.006-.107.025-.081.114.037.133.106.247.188.36.025.039.057.07.075.114.038.064.026.127-.025.178-.05.05-.106.057-.163.019a.795.795 0 01-.119-.089c-.082-.07-.157-.14-.252-.196-.169-.108-.333-.108-.49.025-.069.057-.138.12-.201.184-.094.095-.182.202-.289.29-.433.38-.936.653-1.508.798-.038.013-.075.013-.113.038.006.026.032.038.057.051.264.108.395.316.439.589.032.183.026.36 0 .544a4.01 4.01 0 01-.044.304c.038.025.07.006.095 0 .075-.02.157-.045.232-.064.22-.044.327.064.295.285a.912.912 0 01-.031.133 3.997 3.997 0 00-.107.595.58.58 0 00.038.31c.082.184.188.36.308.52.056.075.069.075.138 0 .082-.09.151-.19.207-.298.038-.064.076-.064.114 0 .037.063.062.126.087.19.076.183.139.367.214.55.145.342.408.538.767.627.069.019.106-.007.125-.07.007-.031.019-.07.019-.101.025-.203.05-.399.057-.601 0-.057-.007-.127.05-.152.069-.032.1.044.151.082l.012.013c.22.246.44.5.578.81.063.133.17.196.302.228.138.031.182.006.207-.133.013-.057.019-.12.032-.177.006-.045.006-.102.056-.114.051-.013.076.038.107.07.025.025.05.05.069.082.101.17.251.253.427.31.126.038.252.082.377.1.057.007.107.014.164.014.069 0 .094-.032.094-.102 0-.063-.038-.126.006-.209.145.089.283.178.39.31.113.14.264.235.402.342.031.02.057.038.094.026.164-.07.321-.14.446-.279.082-.088.101-.183.044-.291-.213-.411-.484-.753-.936-.918a4.642 4.642 0 00-.961-.24c-.471-.064-.943-.14-1.395-.304-.446-.165-.873-.36-1.25-.652a1.573 1.573 0 01-.591-.892c-.144-.57-.069-1.133.075-1.697.007-.019.019-.031.051-.025.006.02.012.038.012.057 0 .05-.006.101-.012.152-.051.342-.051.684.006 1.025.088.538.339.969.804 1.266.145.095.289.177.446.26.585.297 1.207.436 1.848.512.351.045.703.12 1.042.24.566.197.905.621 1.144 1.14.094.203.05.393-.094.563a1.264 1.264 0 01-.302.247c-.031.02-.075.025-.1.082l1.721 1.165c.05-.152.057-.304.076-.443.081-.804-.151-1.5-.704-2.082-.295-.317-.66-.545-1.037-.747-.327-.171-.653-.33-.98-.5a3.448 3.448 0 01-1.143-.943c-.139-.171-.277-.348-.415-.525-.164-.216-.289-.45-.327-.722a.837.837 0 01.019-.43zm1.558 18c-.006-.051-.044-.064-.069-.083-.113-.082-.232-.164-.339-.253a.41.41 0 00-.289-.095H172.184c-.057 0-.095.013-.114.07-.088.215-.257.316-.477.342a2.884 2.884 0 01-.873 0c-.208-.032-.359-.127-.39-.355-.006-.05-.038-.07-.082-.063h-2.544c-.051 0-.101-.013-.151.019 0 .05.031.088.056.133.252.437.497.88.754 1.316.051.082.051.146.007.234-.245.475-.49.956-.729 1.43-.019.033-.05.064-.025.108h8.532c.006-.082-.025-.145-.044-.209l-.584-2.006c-.038-.133-.038-.139.1-.19.258-.088.509-.183.767-.272.119-.038.251-.082.383-.126zm27.665-.412c-.057-.025-.095-.019-.139-.019h-3.154c-.132 0-.138 0-.176.14-.107.398-.559.506-.835.348-.082-.051-.132-.032-.201.012-.189.133-.39.12-.578 0a.6.6 0 01-.252-.278c-.025-.076-.056-.082-.132-.063-.125.031-.264.044-.364-.07-.069-.082-.145-.089-.239-.089h-2.067c-.151 0-.314-.038-.446.02-.132.056-.245.176-.358.271-.051.045-.126.07-.151.146.044.013.082.025.119.038l1.037.36c.132.045.132.051.094.184-.195.677-.396 1.361-.59 2.038-.019.057-.044.114-.038.177.188.032 8.3.02 8.4-.012 0-.045-.031-.082-.05-.12a87.219 87.219 0 00-.704-1.374c-.05-.101-.056-.177 0-.278.252-.425.497-.855.742-1.285l.082-.146zm-24.819-.342a.823.823 0 01-.339-.43c-.031-.095-.088-.14-.182-.146-.05 0-.101-.012-.151-.018a1.269 1.269 0 01-.377-.09c-.163-.069-.27-.183-.295-.366-.006-.05-.006-.102-.044-.152-.239.063-.446-.038-.66-.14a2.442 2.442 0 01-.559-.38 1.168 1.168 0 00-.383-.265c-.139-.057-.283-.107-.421-.158a4.266 4.266 0 01-.798-.36c-.113-.07-.22-.14-.308-.241a.547.547 0 01-.107-.595c.025-.076.069-.146.113-.215.126-.165.251-.33.39-.482.019-.018.063-.038.044-.088a1.724 1.724 0 01-.541.012 2.227 2.227 0 01-.571-.183c-.101-.044-.101-.044-.151.063-.013.026-.025.057-.038.082-.069.152-.138.304-.264.418a1.595 1.595 0 01-.936.45c-.057.006-.088.019-.107.076-.144.354-.421.531-.785.57a2.854 2.854 0 01-.616-.02 1.01 1.01 0 00-.195-.006c-.226.025-.245.038-.295.26-.006.031-.013.069-.025.1-.05.229-.057.45-.006.678a.45.45 0 00.169.291c.195.158.371.33.566.481.251.196.364.45.377.76.006.113.006.113.119.113H176.161c.119 0 .213.026.301.102.183.152.377.285.566.43.075.063.144.076.245.044.515-.158 1.03-.297 1.558-.417.251-.051.503-.114.785-.178zm16.362-4.664a.533.533 0 00-.246.601c.057.184.139.348.277.481.289.266.17.728-.157.874a.806.806 0 01-.195.07c-.201.05-.408.056-.616.063-.1 0-.201 0-.301.018-.264.051-.515.133-.767.216a.985.985 0 00-.528.386c-.132.183-.251.367-.383.544a.446.446 0 00-.094.253c-.019.26-.082.506-.182.747-.057.127-.126.24-.22.342-.019.019-.063.032-.057.082.019.006.038.02.057.02.779.164 1.552.366 2.318.6a.168.168 0 00.164-.031c.194-.159.395-.317.59-.475a.357.357 0 01.245-.089h2.47c.05 0 .069-.025.069-.076 0-.164.075-.303.157-.436.169-.26.389-.475.653-.64a.612.612 0 00.289-.373c.032-.127.05-.26.032-.392-.038-.31-.176-.456-.478-.507-.245-.038-.49-.05-.729-.114-.93-.246-1.658-.778-2.13-1.639-.081-.177-.163-.348-.238-.525zm-25.045-5.791c.05.05.113.063.17.082.201.089.308.24.314.456a.851.851 0 01-.025.253 2.131 2.131 0 01-.39.747c-.295.373-.584.747-.791 1.183-.164.336-.283.684-.289 1.057-.013.488.182.861.615 1.101.402.222.842.285 1.295.298.05 0 .081-.019.081-.063.007-.152.038-.298.032-.456-.157.025-.302.057-.446.076-.547.07-.993-.247-1.119-.785-.063-.285-.006-.55.107-.81.107-.24.251-.462.409-.67.207-.292.433-.577.596-.893.038-.076.095-.133.189-.127.094.006.151.07.182.158.044.108.063.222.088.336.025.126.044.26.094.38.051-.013.069-.057.082-.09.157-.316.364-.607.547-.904a.77.77 0 00.069-.12c.081-.159.063-.235-.069-.342-.044-.038-.101-.07-.145-.108a.415.415 0 01-.138-.474c.025-.076.056-.152.094-.222.069-.133.119-.278.157-.424.094-.367.138-.747.113-1.127-.019-.348-.088-.683-.289-.974a5.147 5.147 0 00-.49-.614 2.167 2.167 0 00-.414-.348 1.082 1.082 0 00-.88-.14 3.23 3.23 0 00-.754.298c-.189.101-.377.215-.566.323-.295.17-.603.285-.942.335-.245.038-.471.12-.71.209.038.05.088.063.132.089.1.057.195.126.276.208.145.159.157.254.038.43a4.178 4.178 0 01-.452.545c-.057.057-.107.114-.176.184.094.031.169.05.245.082.201.07.383.05.559-.076.107-.076.214-.146.327-.215.069-.044.151-.063.226-.006.075.056.082.145.05.221-.075.177-.056.36-.044.538.013.152.057.304.12.45.15-.146.351-.488.427-.722a.821.821 0 00.044-.209c.019-.222.132-.335.352-.36a1.26 1.26 0 01.377.012.307.307 0 00.169.006v-.025c-.019-.025-.037-.044-.056-.07-.314-.424-.402-.873-.176-1.367.113-.253.314-.38.597-.386.213-.006.408.063.584.171.566.33.905.823.993 1.481.05.342.012.677-.138.994-.095.202-.233.272-.44.202-.346-.126-.578.013-.811.222zm4.7 6.019c.082 0 .163.006.239.038.15.07.188.215.094.348-.038.057-.088.095-.138.14-.214.157-.371.366-.515.588-.114.17-.082.29.069.424.075.063.157.114.238.158.296.177.622.285.943.399.251.088.471.215.666.398.176.171.389.285.609.387.176.082.333.082.497-.038.075-.058.094-.045.125.044.044.126.082.26.095.398.006.108.062.165.157.197.05.019.106.031.163.038.188.025.377.063.565.101.208.044.258.006.239-.209-.025-.278-.144-.525-.289-.76a.168.168 0 00-.094-.069c-.207-.038-.377-.158-.54-.291-.195-.158-.409-.285-.654-.33-.408-.069-.791-.22-1.168-.392-.063-.031-.126-.063-.189-.1-.239-.165-.289-.431-.126-.672a.535.535 0 01.17-.145c.189-.114.377-.228.565-.348.327-.203.591-.469.817-.779.107-.152.132-.297.032-.462-.107-.177-.201-.36-.302-.544-.126-.228-.289-.304-.54-.253a6.874 6.874 0 01-.88.126c-.358.032-.722.05-1.081-.006-.138-.02-.213.012-.289.114-.276.373-.458.797-.634 1.221-.025.057-.013.082.038.108.307.145.622.234.961.164.05.013.107.013.157.007zm20.527-2.393a6.852 6.852 0 01-.855.14c-.465.037-.923.019-1.363-.171-.164-.07-.252-.05-.339.107-.233.399-.333.83-.252 1.298.044.278.201.493.377.696.12.133.245.266.365.405.088.101.157.209.207.335.1.266.013.488-.239.608a1.426 1.426 0 01-.628.108c-.321-.007-.641-.026-.961 0-.277.019-.547.07-.798.202a.483.483 0 00-.195.165c-.063.101-.05.202.006.297.057.089.119.146.233.127a.661.661 0 01.194-.006c.101.006.126.044.101.139-.019.076-.063.145-.101.221-.05.102-.044.14.019.203.076.07.138.082.233.025.037-.019.069-.044.107-.063.081-.038.106-.02.131.057a.28.28 0 01.019.101c.019.114.051.215.088.323.044.107.138.12.214.038.063-.07.119-.152.176-.228.119-.171.239-.354.371-.513.131-.152.27-.285.464-.354.271-.101.541-.19.817-.253.151-.032.308-.051.465-.051.113.006.233 0 .346-.013.125-.012.251-.038.364-.095.138-.07.208-.272.076-.392-.026-.019-.044-.044-.063-.063-.252-.323-.409-.665-.258-1.082.006-.013.006-.032.006-.045-.025-.025-.056-.025-.081-.038a2.191 2.191 0 01-.779-.532 1.971 1.971 0 01-.095-.12c-.018-.025-.044-.057-.025-.095.025-.038.063-.019.095-.006.044.019.081.032.125.057.069.044.138.089.201.133.132.088.264.19.409.253a.829.829 0 00.245.07c.1.006.169-.051.238-.108.07-.057.019-.114.019-.165 0-.075-.012-.151-.006-.227a3.79 3.79 0 01.308-1.367c.006-.032.031-.064.019-.12zm-20.634.488c0 .012.006.031.006.044h.371a7.56 7.56 0 001.408-.152c.326-.07.628.05.785.317.144.234.276.468.396.715.094.19.088.38-.013.563l-.075.133c-.27.386-.603.703-1.018.93-.138.076-.277.152-.408.228a.354.354 0 00-.145.146c-.044.095-.031.145.044.209.025.019.05.038.075.05.352.158.704.323 1.087.386.327.057.61.197.867.393.044.031.088.07.132.101.132.095.139.095.183-.057.144-.5.395-.937.735-1.33.144-.164.295-.316.452-.468.094-.094.101-.063.038-.202a8.853 8.853 0 01-.679-2.05c-.006-.045-.012-.096-.044-.14-.019.007-.037.007-.05.013-.308.114-.616.221-.917.335-.214.076-.384.038-.522-.12a.544.544 0 01-.119-.323c-.013-.14-.019-.285-.025-.424 0-.12.006-.247.1-.342.164-.158.352-.26.584-.183a.32.32 0 00.359-.101c.106-.12.188-.26.188-.437-.006-.177-.006-.355-.012-.532v-.266c-.032.051-.051.076-.063.095a6.667 6.667 0 01-.679.943 3.3 3.3 0 01-.986.785c-.258.14-.534.228-.83.253-.119.007-.238.032-.358.057a2.19 2.19 0 00-.867.43zm24.881-2.52a.5.5 0 00.031-.094c.076-.228.107-.475.202-.696.018-.051-.013-.076-.038-.102a4.205 4.205 0 01-.321-.341c-.64-.779-.552-1.817-.207-2.488.145-.278.358-.487.66-.595.54-.19 1.062-.12 1.545.171.208.12.22.31.044.475-.276.266-.32.582-.188.93.075.19.182.36.308.52.226.297.484.563.747.828.019.02.038.045.076.05.006-.012.019-.018.025-.03.182-.583.308-1.172.333-1.786.006-.114.025-.133.138-.095.038.013.076.026.113.045l.296.114c.144.05.276.031.408-.045.088-.05.101-.095.038-.183a.662.662 0 01-.113-.26.903.903 0 01.081-.544c.025-.057.063-.114.088-.177.038-.082.025-.101-.056-.108-.038 0-.082-.006-.12 0a.826.826 0 01-.408-.076c-.151-.063-.308-.12-.465-.183a.623.623 0 00-.415-.026c-.113.032-.226.057-.333.09a1.422 1.422 0 01-.93-.052c-.081-.031-.157-.063-.238-.095a1.499 1.499 0 00-.723-.107c-.641.076-1.388.462-1.633 1.367-.202.753-.101 1.475.251 2.165.22.43.484.841.741 1.246a.463.463 0 01.063.083zm-7.37 5.254h.572a.7.7 0 00.32-.076c.113-.057.138-.114.094-.234a1.014 1.014 0 00-.188-.291c-.126-.14-.251-.273-.377-.418a1.604 1.604 0 01-.358-.608c-.17-.607-.05-1.177.264-1.702.163-.266.389-.323.678-.21.101.039.195.083.296.108.615.133 1.219.045 1.822-.1.025-.007.05-.014.063-.039.05-.082-.019-.304-.101-.348a3.151 3.151 0 00-.71-.247c-.383-.088-.76-.19-1.068-.455-.044-.038-.075-.026-.119 0-.114.057-.22.12-.333.17-.302.14-.264.095-.315.412-.031.196-.1.38-.232.538a.38.38 0 01-.434.133.713.713 0 01-.351-.222c-.038-.044-.076-.038-.12-.025-.044.013-.038.05-.044.088-.025.159-.044.323-.069.481a8.702 8.702 0 01-.735 2.336c-.038.076-.025.114.031.17.176.16.346.33.497.514.044.056.094.07.157.056.245-.05.502-.038.76-.031zm7.15-3.715c.063.012.101-.013.138-.026.421-.139.817-.082 1.175.171.283.203.428.488.434.842a1.47 1.47 0 01-.327.943c-.452.589-1.194.715-1.816.304-.025-.013-.044-.044-.088-.032-.018.158-.05.323-.106.475-.032.076 0 .095.062.12.145.057.289.114.44.152.465.114.899.05 1.295-.221.251-.178.452-.393.603-.665.094-.17.176-.355.251-.532.107-.24.232-.474.415-.664.27-.285.471-.614.641-.969a.84.84 0 00.081-.24c.019-.12-.006-.158-.132-.152a.903.903 0 00-.32.07l-.321.133c-.094.037-.119.025-.138-.07-.088-.469-.239-.918-.314-1.386-.013 0-.025-.006-.031-.006-.101.037-.208.082-.308.12-.176.063-.22.038-.283-.133a10.636 10.636 0 01-.258-.779c-.006-.031 0-.076-.044-.082-.169.171-.301.373-.364.601-.057.19-.107.38-.157.57-.013.038-.013.082-.019.12-.012.076 0 .14.075.177a.5.5 0 01.132.102c.088.076.082.114-.031.158-.107.038-.22.063-.333.101a.437.437 0 00-.283.272 1.232 1.232 0 00-.069.526zM188.752 4.899a2.584 2.584 0 00-.371.044c-.484.101-.904.33-1.313.595-.056.032-.069.082-.075.14-.069.366-.139.733-.201 1.1-.044.247-.095.5-.139.747-.018.114-.018.114.095.127.012 0 .031.006.044.006.396.038.785.101 1.168.21a.323.323 0 00.327-.07 6.52 6.52 0 001.219-1.418c.1-.152.157-.323.195-.507.075-.424-.132-.778-.541-.911a1.485 1.485 0 00-.408-.063zm-3.311 2.728c.006-.013.012-.02.006-.02-.119-.651-.239-1.303-.352-1.955a.196.196 0 00-.081-.12c-.346-.222-.698-.424-1.094-.538a1.883 1.883 0 00-.86-.07c-.459.082-.717.418-.679.886.025.272.144.5.295.722.208.29.428.576.673.835.157.171.326.33.508.475a.213.213 0 00.195.038 8.827 8.827 0 011.006-.203c.125-.019.257-.012.383-.05zm.597-4.317h-.302c-.132 0-.138.006-.163.14a.59.59 0 01-.107.246.518.518 0 01-.302.215c-.081.02-.094.057-.069.133.013.032.013.07.019.108l.264 1.418.358 1.949c.013.082.044.114.126.108.107-.007.213-.007.314-.007.157 0 .157.007.188-.152v-.012c.139-.74.277-1.481.409-2.222.075-.392.144-.785.22-1.177.012-.063.019-.108-.069-.133a.566.566 0 01-.428-.494c-.012-.088-.056-.114-.132-.114-.106-.006-.219-.006-.326-.006zm4.712 19.082c-.823 1.064-1.828 1.849-3.123 2.266.038.013.057.025.069.025.453.032.899.064 1.351.114.057.007.095-.012.132-.05.107-.101.214-.196.34-.279.251-.164.527-.247.829-.196.201.032.408.063.609.089.139.019.277.031.421-.007.088-.025.139-.082.139-.17.006-.12.006-.241-.007-.361-.075-.576-.364-1.02-.76-1.43zm-9.437.013a2.81 2.81 0 00-.515.69c-.164.31-.252.64-.245.987.006.222.056.279.276.291h.107c.213-.006.421-.044.628-.082.321-.057.628-.044.917.127.139.082.271.177.384.297a.264.264 0 00.226.089c.415-.044.829-.082 1.244-.101.031 0 .063.006.094-.038-1.282-.424-2.287-1.203-3.116-2.26zm1.954-13.33c1.866-.797 3.713-.79 5.567.02a2.25 2.25 0 01.188-.557 7.231 7.231 0 00-2.884-.627 7.246 7.246 0 00-3.041.614c.082.178.126.355.17.551zM180.659 21.4c-.075.07-.132.126-.188.183-.44.437-.779.937-.955 1.538-.025.076-.013.12.038.184.263.316.408.683.421 1.095.006.247-.095.367-.333.436l-.038.02c.063.145.132.221.295.335a.26.26 0 00.226.044c.66-.133 1.326-.24 1.992-.329.126-.019.258-.019.396-.07-.088-.07-.176-.12-.258-.17a.797.797 0 00-.565-.102 9.034 9.034 0 01-.597.089 1.25 1.25 0 01-.434-.013c-.238-.05-.364-.19-.395-.436a1.79 1.79 0 01.025-.557c.081-.475.308-.874.609-1.235.063-.076.126-.145.195-.215.031-.031.031-.057.006-.095a7.552 7.552 0 01-.44-.702zm6.422-16.21c.069-.012.107-.043.15-.069.39-.215.792-.392 1.238-.45.346-.043.685-.024.999.14.39.203.585.601.528 1.038a1.67 1.67 0 01-.276.728c-.34.5-.71.968-1.169 1.367-.025.019-.063.032-.057.082.088.032.183.064.271.102.094.038.188.076.276.114.088.031.17-.026.17-.12 0-.026-.007-.051-.007-.077a.542.542 0 01.478-.55c.044-.007.088.006.132-.013-.145-.456.1-.854.603-.892-.245-.538-.019-.918.396-1.127-.302-.203-.421-.494-.358-.86-.252.1-.484.107-.717-.007-.232-.114-.37-.31-.446-.582-.144.164-.301.246-.502.246-.195.007-.352-.088-.49-.227-.082.24-.227.386-.472.417-.245.026-.421-.095-.565-.322-.057.367-.119.708-.182 1.063zm1.778 4.88a.148.148 0 000-.088c-.025-.14-.057-.278-.044-.424.006-.114-.038-.158-.132-.203a6.553 6.553 0 00-2.105-.55 6.396 6.396 0 00-3.091.506c-.138.063-.214.127-.208.291.007.146-.031.298-.056.456 1.885-1.032 3.757-1.025 5.636.013zM173.66 6.286c-.138-.108-.258-.19-.371-.285-.1-.076-.201-.152-.289-.247a.662.662 0 01-.169-.266c-.051-.145-.007-.234.132-.29a.598.598 0 01.207-.039c.214-.006.421.045.622.108.132.044.27.082.415.076.075 0 .106.031.125.095.038.133.082.26.12.392.012.038.025.076.075.082l.346.057c.025-.05 0-.076-.007-.114-.056-.17-.113-.348-.176-.519-.025-.063-.018-.1.038-.145.094-.076.17-.171.239-.272.107-.146.22-.285.364-.399a.556.556 0 01.264-.133c.107-.019.157.013.195.114a.586.586 0 01.013.33 4.305 4.305 0 01-.271.879c-.012.038-.044.07-.031.107.031.026.069.013.107.02.125.018.119.044.182-.114.101-.247.17-.494.232-.754.038-.164.051-.329.013-.493-.069-.279-.27-.399-.547-.317a.985.985 0 00-.408.253c-.132.12-.239.26-.339.405-.051.07-.101.146-.195.197-.025-.083-.057-.152-.075-.222-.07-.221-.07-.221-.289-.145-.101.038-.101.038-.07.139.032.107.082.215.095.329-.12.019-.22 0-.321-.038a2.312 2.312 0 00-.54-.127.886.886 0 00-.496.076c-.183.095-.252.26-.208.456.044.17.138.304.258.418.132.133.283.247.433.354.025.02.057.05.095.038.056-.006.132.006.232-.006zm-5.152 7.899c-.189.12-.371.183-.572.158-.05-.007-.069.025-.075.07-.019.12-.013.24-.013.36 0 .196.044.38.157.544.063.09.113.178.17.266.107.171.207.348.289.532a.71.71 0 01.044.519c-.013.05-.025.095-.031.146-.007.018-.007.038.018.05.026.006.038-.006.051-.019.05-.057.075-.133.106-.196.233-.475.472-.95.767-1.393.144-.215.251-.449.339-.69.057-.17.095-.341.082-.518 0-.026.013-.064-.05-.064-.019.114-.019.228-.063.336a3.125 3.125 0 01-.421.766.536.536 0 01-.189.17c-.138.076-.282.045-.37-.082-.044-.063-.069-.133-.095-.202a3.9 3.9 0 01-.144-.753zm21.086 10.67l.565.076c.61.083 1.219.184 1.829.31.037.007.069.02.1 0 .139-.088.283-.17.371-.322a1.92 1.92 0 00.201-.671c-.013-.006-.025-.02-.031-.02-.233-.024-.377-.145-.428-.385l-.018-.057c-.007-.038-.032-.05-.07-.044a.553.553 0 01-.326-.076c.006.063.006.114.012.164.019.127.019.253.007.38-.026.253-.151.392-.396.45a1.25 1.25 0 01-.434.012c-.195-.025-.389-.044-.578-.082-.32-.089-.572.057-.804.265zm14.558-8.531c0-.032-.019-.044-.038-.057a.588.588 0 01-.245-.57 3.26 3.26 0 01.308-1.057.812.812 0 00.056-.474 1.422 1.422 0 00-.113-.393c-.012-.025-.018-.057-.037-.082a.131.131 0 00-.139-.07c-.05.007-.037.064-.044.102l-.075.462c-.056.38-.176.746-.276 1.12-.051.183-.195.24-.365.152-.044-.026-.081-.057-.125-.083-.032-.019-.057-.07-.114-.063.026.285.076.557.183.817a.864.864 0 00.194.303c.082.076.176.12.289.108.208-.032.384-.101.541-.215zm-13.05-4.007a.165.165 0 00.019.057c.27.444.502.9.691 1.38.025.063.063.076.126.082.27.02.54.038.81.051.138.006.283.02.421.025.044.007.075-.006.088-.057.031-.177.094-.335.176-.506-.27-.057-.421-.221-.471-.494-.076.064-.139.12-.208.165-.289.209-.609.203-.892-.013a1.23 1.23 0 01-.352-.449c-.037-.082-.025-.203-.107-.24-.088-.026-.194 0-.301 0zm1.225 3.26c.214-.114.421-.177.628-.234.12-.032.233-.089.352-.14.069-.031.082-.063.063-.139a3.19 3.19 0 01-.132-.728c-.006-.107 0-.114-.126-.12-.282-.019-.559-.038-.841-.05a24.765 24.765 0 00-.302-.02c.144.469.27.937.358 1.43zM189.588 3.86c0 .278.232.512.509.512a.516.516 0 00.508-.512.515.515 0 00-.521-.513.506.506 0 00-.496.513zm-7.088-.007a.513.513 0 00-.509-.512.521.521 0 00-.515.506.521.521 0 00.515.525.522.522 0 00.509-.519zm8.57 2.773a.457.457 0 00.447-.462.465.465 0 00-.459-.45.455.455 0 00-.446.456.465.465 0 00.458.456zm-10.172-2.285a.451.451 0 00-.446.455c.006.241.207.444.446.444a.46.46 0 00.453-.456.446.446 0 00-.453-.443zm10.292 0a.443.443 0 00-.453.45c0 .24.195.442.434.455a.46.46 0 00.465-.443.457.457 0 00-.446-.462zm-9.714 1.842a.46.46 0 00-.433-.469.464.464 0 00-.465.443.463.463 0 00.433.469.46.46 0 00.465-.443zm9.946 15.221c-.056.02-.063.063-.081.101-.082.14-.17.273-.252.412-.044.082-.157.152-.132.24.025.082.12.146.183.215 0 0 .006 0 .025.007.113-.31.383-.424.666-.532-.013-.057-.051-.082-.082-.114a7.788 7.788 0 00-.327-.329zM175.118 5.886c.188-.145.477-.962.427-1.209-.094.05-.157.12-.226.196-.126.133-.214.304-.346.437-.025.025-.031.05-.019.082.051.159.088.33.164.494zm8.501-2.253a.335.335 0 00-.321-.336.33.33 0 00-.333.323c0 .177.145.33.321.336a.339.339 0 00.333-.323zm4.857-.013a.325.325 0 00.32.336.334.334 0 00.339-.323.333.333 0 00-.32-.336.327.327 0 00-.339.323zm-6.78 3.918a.327.327 0 00.321-.335c-.007-.178-.158-.33-.333-.323a.335.335 0 00-.321.335.33.33 0 00.333.323zm8.375-.316a.327.327 0 10.654-.013.334.334 0 00-.333-.323.33.33 0 00-.321.336zm-16.235-1.19a.354.354 0 01.201-.14c.107-.025.107-.025.075-.133-.025-.088-.056-.151-.169-.151-.076-.007-.157-.038-.233-.064a2.04 2.04 0 00-.389-.095c-.057-.006-.113-.019-.17.007.082.152.44.45.685.576zm8.752 1.987a.24.24 0 00-.238-.24.24.24 0 00-.239.24c0 .12.107.234.232.234.126.013.245-.107.245-.234zm7.163-.24A.238.238 0 00189.5 8a.243.243 0 00.226.253.247.247 0 00.251-.228c.013-.12-.094-.24-.226-.247zm-1.973-3.633c.132 0 .245-.108.245-.235 0-.126-.1-.234-.226-.234a.24.24 0 00-.251.228c-.007.127.1.24.232.24zm-3.229-.24a.24.24 0 10-.478.012.236.236 0 00.233.228.245.245 0 00.245-.24z" fill="#fff"/><path d="M187.277 25.95c-.063.24-.126.474-.182.715-.013.044-.006.114-.057.133-.063.025-.138.012-.207 0-.05-.007-.038-.051-.044-.083l-.113-.595-.044-.215c-.038.095-.032.165-.032.234-.006.184-.006.367-.012.545-.006.107-.006.107-.113.107h-.032c-.081.013-.106-.025-.1-.107.012-.26.012-.52.019-.773 0-.1.012-.202.012-.303 0-.07.025-.083.088-.083.289-.006.289-.006.346.273.044.208.081.424.125.633.063-.007.051-.051.057-.083.063-.221.113-.45.176-.677.044-.146.019-.127.157-.127.302.007.258-.044.251.273l-.019.835c-.006.17-.012.177-.182.165-.075-.007-.075-.045-.075-.102l.019-.595v-.183c-.019.012-.032.012-.038.012zM179.177 28.791c-.05-.215-.107-.43-.157-.645-.006-.032-.031-.076.013-.095.062-.026.132-.057.201-.038.012.006.019.031.025.05.088.355.182.716.27 1.07.013.057.006.089-.057.095-.031.006-.069.013-.1.025-.063.02-.101.007-.145-.044-.163-.177-.333-.354-.496-.525-.031-.032-.056-.07-.107-.095.013.158.069.29.101.436.019.089.044.178.069.266.025.114.025.114-.088.14-.019.006-.038.006-.057.012-.05.013-.075 0-.081-.05l-.095-.38a98.242 98.242 0 00-.169-.659c-.025-.107-.019-.094.075-.139.12-.05.201-.019.283.076.157.184.333.348.503.526.006.006.025.025.025.018a.125.125 0 00-.013-.044zM184.933 28.025v-.374c0-.113-.007-.221-.019-.335-.006-.063.012-.095.081-.095h.088c.051-.006.07.013.076.07.019.367.031.74.056 1.107.007.064-.018.082-.075.082-.019 0-.038 0-.063.007-.088.019-.144-.013-.195-.095-.119-.203-.245-.399-.364-.595-.019-.032-.031-.076-.075-.095v.45c0 .088.006.183.018.272.007.063-.018.095-.081.088-.038 0-.069.006-.107.006-.038 0-.057-.018-.057-.05 0-.026-.006-.05-.006-.076-.012-.342-.031-.677-.044-1.02-.006-.113 0-.107.113-.12.113-.012.182.013.245.127.101.184.22.361.333.545.019.031.032.076.076.1zM191.543 28.55c.044-.24.088-.468.132-.696.018-.101.018-.101.132-.082.125.019.131.025.113.127l-.189 1.044c-.012.07-.038.088-.113.082-.113-.012-.188-.05-.22-.177-.063-.222-.151-.437-.226-.658-.013-.032-.006-.076-.063-.089-.044.228-.082.456-.126.677-.006.045 0 .108-.056.114a.668.668 0 01-.189-.038c-.031-.012-.012-.057-.006-.082.032-.196.069-.386.107-.582.025-.152.056-.298.082-.45.025-.126.025-.12.144-.107.119.012.17.07.201.177.057.196.132.392.201.588.013.045.019.096.076.152zM192.542 26.911c.088.095.094.19.075.291-.019.102-.069.203-.012.31-.025.007-.038.013-.051.013-.264-.063-.264 0-.213-.304l.019-.088c.012-.095-.019-.14-.107-.171-.013-.006-.032-.006-.044-.013-.245-.063-.245-.063-.296.184-.006.038-.018.076-.025.12-.025.127-.025.127-.157.095-.125-.025-.125-.025-.1-.146l.207-.993c.025-.127.032-.127.145-.101.176.037.358.07.527.12.252.07.346.341.201.557a.352.352 0 01-.169.126zm-.201-.152a.157.157 0 00.151-.088c.031-.076.031-.159-.026-.196-.113-.076-.245-.083-.37-.102-.057.064-.044.152-.069.222-.007.013-.007.032-.013.044-.006.032.013.05.038.057.1.025.194.044.289.063zM189.162 28.108c0-.133.018-.26.075-.38a.522.522 0 01.503-.323c.421.006.666.285.615.709a1.12 1.12 0 01-.069.291c-.113.253-.345.373-.628.33-.295-.051-.471-.235-.496-.52v-.107zm.942-.083c0-.031 0-.063-.006-.088-.032-.178-.132-.285-.289-.298-.157-.012-.277.07-.34.24a.688.688 0 00-.031.374c.031.14.119.228.251.247.151.025.264-.032.34-.17.05-.09.062-.197.075-.305zM190.878 26.589c.107.107.082.24.063.367-.012.076-.025.152.013.221-.013.007-.025.013-.032.013-.301-.032-.257-.019-.238-.278 0-.032.006-.064.006-.089 0-.114-.025-.152-.138-.177-.258-.057-.258-.057-.302.209l-.019.107c-.012.044.013.108-.044.114a.343.343 0 01-.207-.032c-.025-.012-.019-.044-.013-.07.057-.366.114-.727.164-1.094.006-.044.012-.082.069-.07.207.032.421.05.622.102a.35.35 0 01.17.57c-.026.044-.07.069-.114.107zm-.257-.152c.126.006.17-.032.188-.133.019-.108-.018-.17-.138-.196-.075-.02-.157-.026-.232-.038-.051-.006-.069.012-.082.063-.057.253-.05.272.214.298.012.006.031.006.05.006zM183.504 27.974c.114.064.145.171.158.291.006.095.006.19.075.266-.013.013-.019.02-.025.02-.27.03-.27.03-.308-.241-.025-.19-.069-.222-.258-.196-.194.025-.201.025-.182.221.006.063.013.133.025.196.007.064-.006.095-.075.102-.013 0-.032.006-.044.006-.132.012-.132.012-.145-.12l-.094-.981c-.012-.14-.012-.146.126-.159.157-.019.32-.031.477-.044.239-.019.327.082.384.203.056.151.025.29-.114.436zm-.615-.316l.025.183c0 .07.038.083.094.076.069-.012.138-.019.207-.025.12-.019.17-.07.158-.17-.007-.108-.076-.165-.195-.16-.063.007-.132.02-.195.02-.075 0-.101.038-.094.076zM189.394 26.253a.897.897 0 01-.07.367c-.113.247-.339.367-.634.323-.27-.038-.453-.215-.484-.481a.969.969 0 01.025-.405c.088-.31.327-.475.635-.437.326.038.515.24.528.57 0 .025-.007.044 0 .063zm-.264-.013c-.007-.038-.013-.095-.025-.151-.038-.127-.114-.21-.252-.228a.292.292 0 00-.327.158.617.617 0 00-.05.48c.038.134.138.21.277.222.132.013.238-.05.308-.177a.689.689 0 00.069-.304zM178.927 27.664c-.019.006-.031-.025-.037-.063-.032-.146-.07-.297-.101-.443-.05-.209-.088-.412-.145-.62-.018-.083.007-.102.076-.12.163-.039.163-.045.195.113.019.076.037.146.05.222.012.076.05.088.113.07.088-.026.176-.045.264-.064.075-.012.1-.044.082-.126-.026-.095-.038-.19-.07-.279-.018-.057-.012-.095.057-.107.214-.045.176-.07.226.132.076.317.145.64.226.956.019.082-.006.114-.075.12l-.088.02c-.056.018-.082-.007-.094-.064-.025-.127-.063-.247-.082-.367-.012-.07-.038-.095-.113-.076-.1.025-.207.044-.308.07-.044.012-.063.038-.05.088.031.127.056.26.088.386.019.076-.006.102-.069.114-.038.013-.076.026-.145.038zM194.74 28.139a.766.766 0 01-.414-.146c-.113-.088-.182-.202-.176-.348.006-.082.025-.101.1-.076.088.026.183.032.17.165-.006.044.038.082.075.107.076.051.157.07.239.076.069.007.132-.025.157-.095.025-.07-.006-.12-.063-.151a1.904 1.904 0 00-.194-.12c-.057-.039-.12-.077-.176-.115a.306.306 0 01-.132-.341c.031-.152.125-.26.276-.285a.613.613 0 01.559.164.35.35 0 01.114.317c-.007.057-.032.082-.088.063-.082-.025-.164-.032-.176-.158-.013-.127-.252-.209-.365-.146-.081.045-.1.133-.025.197.063.056.145.094.214.139l.132.076c.176.114.232.234.188.405-.05.164-.195.272-.415.272zM181.169 27.645c-.007-.031.031-.044.081-.05.245-.038.484-.07.729-.114.069-.013.088.019.095.076.012.12.031.145-.107.158-.145.013-.289.044-.434.063-.063.007-.094.032-.069.102.006.006.006.019.006.031.019.14.019.14.151.12.126-.018.245-.037.371-.056.082-.013.082-.007.107.12.012.063 0 .095-.069.101-.139.02-.277.044-.415.063-.063.007-.082.032-.082.095.013.228.025.235.239.203l.389-.057c.082-.013.095.032.101.095 0 .057.038.12-.063.133-.257.031-.515.076-.773.114-.05.006-.075-.007-.088-.057-.056-.367-.106-.74-.169-1.14zM186.788 28.455c-.032.02-.07.013-.101.013-.182 0-.163.02-.207-.145-.019-.083-.063-.12-.145-.114h-.119c-.208 0-.214 0-.289.19-.019.05-.044.075-.094.07-.057-.007-.12 0-.17 0-.032-.058-.006-.09.006-.128.126-.341.251-.683.371-1.025.031-.088.075-.126.163-.114.038.007.082 0 .12.007.037 0 .062.019.081.057.132.392.283.778.396 1.177-.006.006-.012.006-.012.012zm-.723-.48a.807.807 0 00.302 0c-.044-.146-.088-.285-.139-.45-.075.158-.106.298-.163.45zM192.126 29.12c.012-.07.05-.107.075-.145.189-.298.383-.589.572-.886.044-.07.088-.082.157-.064.195.045.195.045.214.24.031.349.069.69.1 1.039 0 .025 0 .05.006.076-.087.019-.15-.025-.226-.038-.037-.006-.056-.038-.056-.082 0-.038-.007-.07-.007-.108 0-.063-.018-.108-.088-.114-.05-.006-.094-.025-.144-.032-.069-.012-.138-.05-.201-.038-.063.013-.082.095-.113.152-.032.045-.063.057-.113.045a2.362 2.362 0 01-.176-.045zm.521-.367c.113.032.195.064.296.064a2.575 2.575 0 00-.038-.475c-.101.146-.17.266-.258.411zM177.531 27.607c.032.114.057.228.095.336.025.063 0 .088-.057.107-.176.057-.17.057-.22-.114-.094-.316-.182-.633-.276-.943-.025-.076-.013-.107.062-.133.158-.044.308-.095.465-.133.227-.056.39.045.459.273.075.24.006.405-.214.493-.1.045-.213.051-.314.114zm.289-.455c0-.102-.062-.197-.144-.197a.439.439 0 00-.283.083c-.05.044.019.126.032.196.006.031.018.07.031.101.012.025.031.038.056.032.076-.026.151-.044.227-.076.056-.026.075-.082.081-.14zM183.82 26.215c-.006-.17-.012-.342-.025-.512-.006-.064.019-.09.082-.095.163-.007.32-.02.484-.026.144-.006.276.038.339.177a.504.504 0 01-.006.482c-.044.082-.132.12-.227.139a1.956 1.956 0 01-.27.025c-.081 0-.1.038-.094.108.013.082.013.17.019.26.006.063-.013.094-.082.094h-.012c-.164.013-.164.013-.176-.146-.013-.177-.019-.341-.032-.506zm.252-.24c.012.246-.007.202.22.196h.031c.119-.013.176-.076.17-.184-.007-.114-.063-.17-.183-.177-.05 0-.1.007-.15.007-.07 0-.101.031-.088.1v.058zM187.385 27.975l.019-.424c.006-.063-.013-.095-.082-.095-.075 0-.151-.013-.226-.013-.05 0-.069-.025-.063-.076 0-.133.013-.145.145-.139l.766.038c.038 0 .088-.013.107.038.019.05.006.108-.006.165-.006.018-.025.025-.05.025-.038 0-.082 0-.12-.006-.245-.02-.201-.026-.213.196-.013.234-.019.474-.038.709 0 .037.012.082-.032.107a.62.62 0 01-.219-.012c-.026-.026-.013-.058-.013-.09.013-.138.019-.284.025-.423zM180.378 29.037c-.07.013-.076-.018-.082-.056-.025-.133-.057-.266-.082-.4-.031-.151-.063-.303-.088-.461-.012-.07-.044-.083-.107-.07-.069.013-.138.025-.207.044-.063.02-.075-.006-.088-.063-.031-.14-.038-.14.101-.164.264-.051.521-.102.779-.159.1-.025.088.051.107.102.018.057.025.114-.063.12-.038.006-.082.019-.12.025-.169.038-.169.038-.132.209.044.228.095.456.139.684.031.158.031.158-.132.19-.013-.007-.025 0-.025 0zM194.552 29.545c-.038.221-.038.221-.239.164-.195-.057-.383-.12-.578-.17-.069-.02-.082-.051-.063-.12.101-.343.201-.684.295-1.032.019-.07.057-.09.12-.064a.087.087 0 00.044.013c.126.038.126.038.088.164-.069.24-.145.482-.214.728-.038.14-.038.14.101.184.157.044.308.076.446.133zM181.498 27.145c-.019.006-.05-.006-.057-.063-.05-.374-.107-.74-.157-1.108-.006-.05.013-.076.063-.082.22-.019.182-.07.22.158.038.24.069.481.1.722.013.107.019.107.132.095a9.07 9.07 0 00.415-.064c.082-.012.094.038.101.095.006.057.037.127-.063.14-.239.031-.478.07-.754.107zM188.39 28.392c.026-.322.057-.652.088-.987.007-.07.019-.095.095-.095.182.006.182.006.169.19-.031.316-.056.633-.081.95-.013.145-.013.145-.151.126-.138-.02-.132.012-.12-.184zM180.509 26.038c.038-.006.057.012.069.063.069.36.132.722.201 1.082.013.051 0 .083-.056.102-.183.044-.189.05-.22-.14-.063-.316-.12-.632-.176-.949-.025-.12-.019-.12.1-.146a.247.247 0 01.082-.012zM193.773 26.601c-.069.279-.144.557-.213.836a4.33 4.33 0 00-.069.266c-.013.044-.038.057-.076.044a.477.477 0 01-.088-.025c-.106-.032-.106-.032-.081-.127.088-.342.176-.683.257-1.025.019-.083.051-.095.126-.07.031.013.069.02.1.025.044.007.057.032.044.076zM183.168 26.817c-.006.038.031.095-.031.113-.069.02-.139.038-.208.007-.031-.013-.025-.064-.031-.095-.019-.209-.044-.424-.063-.633l-.038-.424c-.006-.063.013-.095.082-.095.019 0 .038-.006.057-.006.113-.013.119-.013.132.1.037.349.069.69.1 1.033zM177.688 28.404c.032 0 .044.007.057.032.006.026.019.044.025.07.094.329.195.658.289.987.031.108.031.108-.082.146l-.056.019c-.069.031-.101 0-.113-.064-.038-.126-.076-.253-.107-.38l-.189-.639c-.031-.1-.025-.1.076-.139.031-.012.069-.019.1-.032zM181.005 17.057c.019-1.405.396-2.76 1.256-3.956.585-.81 1.326-1.443 2.269-1.79 1.407-.52 2.739-.33 3.977.506.936.633 1.577 1.506 2.017 2.538.465 1.095.622 2.234.521 3.417-.1 1.127-.433 2.178-1.055 3.127-.528.81-1.201 1.475-2.08 1.88-1.602.74-3.123.55-4.53-.494-.924-.684-1.533-1.608-1.929-2.677-.308-.804-.44-1.633-.446-2.55zm5.12-3.652a.292.292 0 00.007.165c.069.418.088.835.075 1.253a15.342 15.342 0 01-.477 3.373c-.183.71-.396 1.4-.742 2.045-.006.019-.012.038.007.057.05.012.081-.026.119-.045.245-.158.446-.36.609-.601.157-.234.277-.481.377-.74.132-.33.227-.671.333-1.007.013-.044.019-.095.063-.139.05.089.063.177.082.266.169.658.339 1.31.509 1.968.012.057.019.127.088.177.207-.86.364-1.727.584-2.576.038.02.038.045.044.07.119.595.327 1.165.603 1.709.208.405.459.772.83 1.044.025.02.044.044.094.013-.17-.57-.321-1.146-.421-1.74a20.711 20.711 0 01-.226-1.773 24.185 24.185 0 01-.082-1.804c-.006-.6.013-1.196.088-1.81-.082.026-.107.076-.138.114-.088.127-.157.272-.226.412-.365.803-.673 1.62-.93 2.462-.013.038-.019.082-.057.126-.019-.05-.031-.082-.038-.114a29.3 29.3 0 00-.477-1.455c-.17-.456-.333-.912-.591-1.33-.031-.037-.044-.088-.107-.12zm-.622 1.753c-.006-.177-.012-.392-.05-.607-.056-.33-.151-.652-.333-.937a1.51 1.51 0 00-.722-.62.63.63 0 00-.553.038.69.69 0 00-.333.36.414.414 0 01-.252.241c-.044.019-.088.032-.125.044-.157.057-.201.12-.208.298 0 .038 0 .082.007.12.031.24.037.487.037.728.032 1.487 0 2.975-.144 4.456a4.8 4.8 0 01-.176.98c-.013.045-.05.102 0 .14.056.044.1-.013.144-.044.051-.038.101-.083.151-.127.157-.152.283-.33.39-.519.239-.43.377-.892.458-1.373.026-.159.051-.323.07-.481.012-.14.069-.24.213-.273.013-.006.025-.012.044-.019.547-.215.93-.6 1.163-1.145.169-.38.219-.791.219-1.26zM195.349 6.272c.226-.026.415.107.603.247.063.044.05.095-.025.12a3.9 3.9 0 01-.358.114c-.201.044-.453-.089-.541-.272-.031-.076 0-.146.082-.178.076-.031.145-.038.239-.031zM176.08 7.177h.094c.119.006.157.057.126.184-.063.285-.139.323-.39.196-.107-.057-.207-.12-.314-.184-.031-.019-.063-.044-.057-.082.007-.038.044-.05.076-.063l.056-.02c.145-.012.283-.018.409-.031zM186.007 5.279a.541.541 0 01-.534-.545.54.54 0 01.547-.531.551.551 0 01.527.538.553.553 0 01-.54.538zm0-.779a.244.244 0 00-.239.24c0 .127.12.241.245.241a.25.25 0 00.239-.247.252.252 0 00-.245-.234z" fill="#fff"/><path d="M183.835 15.291V13.64c0-.095.006-.183.037-.272.051-.158.195-.209.34-.127a.641.641 0 01.238.266c.114.203.164.424.202.646.069.437.05.88.018 1.316-.025.386-.044.766-.113 1.146-.012.063-.025.127-.037.196-.051.26-.214.412-.459.494-.151.05-.226.006-.264-.146a.525.525 0 01-.019-.196c.025-.557.025-1.114.057-1.67zM231 23h14.748V9H231v14zm4.541-10.5h1.785v3.242l1.902-3.242h1.979L239.15 16l2.057 3.5h-1.979l-1.882-3.242V19.5h-1.805v-7zM246.563 23h14.748V9h-14.748v14zm6.229-10.5h2.271l2.406 7.018h-1.941l-.33-1.013-2.619-.018-.33 1.013h-1.902l2.445-7zm1.979 4.624h-1.727l.854-2.616.873 2.616zM262.126 23h14.748V9h-14.748v14zm6.21-10.5l1.203 2.155 1.184-2.155h2.076l-2.387 3.924V19.5h-1.805v-3.095l-2.406-3.905h2.135zm9.353 10.5h14.748V9h-14.748v14zm6.229-10.5h2.271l2.406 7.018h-1.96l-.33-1.013-2.62-.018-.33 1.013h-1.901l2.464-7zm1.979 4.624h-1.727l.854-2.616.873 2.616zM293.252 9v14H308V9h-14.748zm10.207 10.5h-1.979l-1.882-3.242V19.5h-1.786v-7h1.786v3.242l1.882-3.242h1.979l-2.057 3.5 2.057 3.5z" fill="#fff"/><path fill-rule="evenodd" clip-rule="evenodd" d="M227.3 57.163c-1.071 0-1.071-.628-1.071-1.675-.214-2.918-.214-6.673-.214-8.976 0-1.256 0-1.675 1.5-1.884h.428V44c-.643.21-1.5.21-1.928.21-.429 0-.857 0-1.714-.21 0 1.047-.643 2.093-1.5 3.965l-1.901 3.977c-.643 1.047-1.071 2.093-1.714 3.127-.643-.837-1.071-1.884-1.5-2.918l-2.343-4.592c-.643-1.453-1.286-2.709-1.071-3.546-.857.21-1.286.21-1.929.21-.428 0-.857 0-1.499-.21-.201.21-.201.419-.201.628h.428c1.286.21 1.5.419 1.286 1.884 0 1.047 0 2.709-.215 4.593 0 1.884-.214 3.127-.214 4.383-.214 1.465-.428 1.675-1.285 1.675l-.643.196s0 .419.214.419h4.486v-.419l-.857-.21c-.857 0-.857-.418-.857-1.883v-4.802c.214-1.256.214-2.29.214-3.755.643 1.046 1.072 2.093 1.5 3.127l1.928 3.977c.429 1.047 1.5 2.918 1.714 3.965 0 .209.214.209.214.209.215 0 .215 0 .215-.21.415-.837 1.272-2.72 2.343-4.592l1.928-3.546c.429-.837 1.071-2.499 1.286-2.708V55.5c0 1.256 0 1.675-.857 1.675l-.643.209c-.214 0-.214.419 0 .419h5.115v-.419l-.643-.222zM233.287 48.605c-2.986 0-5.128 2.094-5.128 4.802 0 2.5 1.928 4.593 5.128 4.593 2.986 0 5.129-1.884 5.129-4.802 0-2.512-1.714-4.593-5.129-4.593zm.429 8.767c-2.344.21-3.415-1.884-3.629-3.965-.429-2.917 1.285-4.173 2.772-4.173 2.343-.21 3.628 1.884 3.843 3.964.214 2.918-1.286 4.174-2.986 4.174zM273.657 46.107c0-1.047-.643-1.885-1.5-1.885s-1.071.42-1.071.838c0 .419.214.419.643.419.428.209 1.071.418 1.071 1.256 0 .837-.857 1.465-1.714 1.674 0 .21 0 .42.214.629 1.286-.432 2.357-1.479 2.357-2.931zM277.286 52.779l-1.285-.628c-.857-.419-1.286-.838-1.286-1.675 0-.628.429-1.465 1.714-1.465 1.071 0 1.714 1.256 1.928 1.884 0 .21.429.21.429 0 0-.838 0-1.675-.214-2.094-.643 0-1.286-.209-1.929-.209-2.142 0-3.414 1.047-3.414 2.5 0 1.046.857 1.883 1.928 2.498l.857.419c1.285.628 1.5 1.256 1.5 1.884 0 1.047-.643 1.465-1.714 1.465-1.5 0-2.344-1.465-2.558-2.093 0-.21-.428-.21-.428 0 0 1.047.214 1.884.428 2.093.214.21 1.071.628 2.343.628 2.143 0 3.415-1.046 3.415-2.499 0-1.452-.857-2.29-1.714-2.708zM258.057 49.234c-.857-.419-1.928-.419-3.2-.419h-4.058c-.214.21-.214.419 0 .628h.643c.429 0 .429.419.429 1.884v4.174c0 1.466 0 1.675-.857 1.675l-.429.21c-.214 0-.214.418 0 .418H255.299c1.071 0 2.142 0 3.2-.628 1.714-.838 2.557-2.29 2.557-3.965 0-1.897-1.071-3.35-2.999-3.977zm-2.772 7.929c-1.5 0-1.714-.628-1.714-1.884v-4.802-.838c.214-.209.643-.209 1.286-.209 2.343 0 4.271 1.256 4.271 3.755 0 2.512-1.285 3.978-3.843 3.978zM270.029 48.815h-3c-.214 0-.214.419-.214.419h.428c.643.21.643.418.215.837l-.857 1.662c-.215.628-.643 1.047-1.072 1.675-.214-.629-.428-1.047-.857-1.675l-.843-1.452c-.215-.629-.214-.838.214-1.047h.428c.215 0 0-.419 0-.419h-3.856c-.214 0-.214.419 0 .419l.429.21c.642 0 .857.208 1.285 1.046l1.5 2.708c.642 1.047.642 1.256.642 1.884v.628c0 1.257 0 1.466-1.071 1.466l-.428.21c-.214 0-.214.418 0 .418h4.486c.214 0 .214-.419.214-.419l-.643-.21c-.857 0-1.071-.208-1.071-1.465v-1.046c0-.628.214-.838.857-1.885l1.285-2.093c.643-1.047.857-1.256 1.5-1.256l.429-.21c.2.014.2-.405 0-.405zM244.601 48.605c-2.986 0-5.128 2.094-5.128 4.802 0 2.5 1.928 4.593 5.128 4.593 2.986 0 5.129-1.884 5.129-4.802 0-2.512-1.714-4.593-5.129-4.593zm.429 8.767c-2.343.21-3.415-1.884-3.629-3.965-.428-2.917 1.286-4.173 2.772-4.173 2.343-.21 3.629 1.884 3.843 3.964.214 2.918-1.272 4.174-2.986 4.174zM146 40h22.303v22.291H146V40z" fill="#fff"/><path fill-rule="evenodd" clip-rule="evenodd" d="M154.589 48.263h1.282v-.96c-.064-1.474-1.09-1.794-2.179-1.794-1.154 0-2.179.448-2.179 2.69v2.178c0 2.306-.257 3.651 1.858 3.651.321 0 .962-.256 1.218-.576v.512h1.218v-4.676h-2.115v1.153h.897v1.473c0 .769-.449.897-.897.897-.833 0-.833-.769-.833-1.793V48.84c0-.64-.129-2.05.833-2.05.705.064.897.192.897.96v.513zM160.036 51.081l-1.09-5.38h-1.73v8.135h1.217v-5.38l1.09 5.38h.961l1.09-5.445v5.445h1.217V45.7h-1.666l-1.089 5.38zM162.792 56.847v-1.794h-11.28v1.794h11.28z" fill="#1B1B20"/></svg>