<svg width="375" height="300" fill="none" xmlns="http://www.w3.org/2000/svg"><path d="M81.607 270.213c-55.602-4.036-73.813-62.783-69.759-103.684C17.911 105.366 75.757 34.442 166.14 22.674 281.354 7.672 362.888 92.35 349.752 159.36c-13.135 67.012-72.343 84.767-124.538 62.248-73.252-31.604-76.733 53.459-143.607 48.604z" fill="#fff"/><path d="M313.349 41.484c-.19 5.357 1.588 10.786 4.875 15.074 1.476 2.07 3.27 3.878 5.063 5.686 2.219 2.2 4.83 3.97 7.591 5.403l1.501.67c1.243.353 2.485.706 3.561.984 1.652.334 3.378.5 5.087.255 2.527-.284 4.962-.81 7.213-1.82 4.428-1.854 8.155-4.826 11.289-8.264 3.285-3.775 5.552-8.407 6.743-13.317.624-2.744.84-5.47.648-8.176a16.807 16.807 0 00-.36-2.78c-.601-2.687-1.519-5.112-3.088-7.424-1.476-2.07-3.603-4.027-5.714-5.573-1.943-1.472-4.037-2.608-5.963-3.67-1.593-.912-3.17-1.414-4.988-1.822-2.652-.78-5.529-1.057-8.206-.437-3.569.826-6.621 2.286-9.656 4.156-2.118.264-3.627 1.405-5.119 2.956-1.492 1.55-3.06 3.27-4.552 4.821-1.642 1.887-3.193 4.017-4.243 6.37-.975 2.185-1.616 4.519-1.682 6.908zm16.92-.713c.859-1.028 1.793-2.223 2.651-3.25.317-.263.726-.282 1.042-.544 1.434-.972 2.944-2.112 4.544-3.01.968-.375 2.01-.917 2.902-1.124l.167.074c.409-.019.909.204 1.318.185 1.167.521 2.335 1.042 3.428 1.732a19.15 19.15 0 013.553 2.795c.167.074.259.317.35.559l.184.485c.034.821.142 1.474.176 2.296-.133.746-.342 1.661-.475 2.408-.525 1.176-.883 2.427-1.65 3.697l-2.801 3.588-2.626 1.85c-.967.375-1.768.825-2.66 1.031-.242.094-.409.02-.65.113-.167-.075-.409.019-.576-.056l-2.168-.967c-1.352-1.006-2.461-2.106-3.737-3.28-1.035-1.268-2.069-2.536-2.862-3.897-.35-.56-.459-1.213-.643-1.698-.091-.242-.108-.653-.2-.895l.15-.337c.208-.915.433-1.419.583-1.755zm-.641 2.334c.017.41-.058.579-.042.99-.016-.411-.033-.822.042-.99zm10.819 10.27c.409-.02.575.055.984.036-.409.019-.742-.13-.984-.036zm.559-.355c.408-.02.725-.282 1.134-.3-.317.261-.726.28-1.134.3z" fill="#fff"/></svg>