<svg width="96" height="98" fill="none" xmlns="http://www.w3.org/2000/svg"><path d="M23.64 50.858c-3.49-2.744-3.325-3.392-2.877-9.141.199-2.556 2.243-2.6 3.968-2.64.89-.019 12.29 2.634 23.348 2.64 10.36.006 20.42-2.634 21.254-2.653 1.725-.038 4.6-.102 5.806 2.423 1.206 2.524.198 5.674-.321 8.237-.518 2.562-20.447 14.037-20.419 15.312.023 1.02 1.405 20.874 0 21.419C52.995 87 43.9 79.8 43.853 77.76c-.057-2.55.302-12.318-.315-14.217-.617-1.9-14.441-8.395-19.899-12.685z" fill="#FFD000"/><path d="M28.357 29.642c-15.084.391-15.444 11.417 19.785 11.417 23.376 0 42.06-7.743 15.47-11.428-5.431-.257-14.489-.574-22.257-.585" stroke="#1B1B20" stroke-width="3" stroke-miterlimit="10" stroke-linecap="round" stroke-linejoin="round"/><path d="M40.108 28.926c0 2.67-2.293 5.13-5.497 4.834-2.774 0-5.023-2.164-5.023-4.834 0-2.67 2.249-5.108 5.023-5.108 2.774 0 5.497 2.439 5.497 5.108zM71.19 5.425c0 1.512-1.299 2.905-3.113 2.737-1.57 0-2.844-1.225-2.844-2.737 0-1.511 1.534-3.014 3.105-3.014 1.57 0 2.852 1.503 2.852 3.014zM61.908 39.28c0-3.324-4.367-5.496-8.936-5.496s-8.273 3.038-8.273 6.363" stroke="#1B1B20" stroke-width="3" stroke-linecap="round" stroke-linejoin="round"/><path d="M18.646 36.337c-.474 6.077-.649 6.761 3.04 9.662 5.768 4.534 20.38 11.4 21.032 13.407.652 2.008.273 12.332.333 15.027.048 2.156 7.451 7.025 11.147 9.19l-.493-22.267c-.03-1.347 21.527-13.847 22.075-16.556.548-2.708 1.614-6.038.339-8.706M66.968 17.628c.044.42.221 7.357-.167 7.45-.387.093-6.315-3.294-6.312-3.65.003-.358 6.435-4.22 6.48-3.8zM45.515 17.798c-.83-2.842-2.58-8.68-2.926-9.307l8.33-3.283 2.709 8.617-8.113 3.973zM26.34 18.574c.28.547 1.178 1.739 1.84 3.093M19.413 20.657c.96.674 3.755 1.866 6.055 3.564" stroke="#1B1B20" stroke-width="3" stroke-linecap="round" stroke-linejoin="round"/></svg>