<svg width="436" height="555" fill="none" xmlns="http://www.w3.org/2000/svg"><path d="M137.417 322.342c22.394-4.855 41.166 21.644 47.375 33.641 8.624 14.992 21.175 44.631 5.411 58.127-19.704 16.87-91.636 20.535-104.197-1.302-13.608-23.657 23.417-84.397 51.411-90.466z" stroke="#fff" stroke-width="37.91"/><path d="M135.936 427.095c-4.378 6.738-7.633 13.057-12.293 24.38-3.907 9.495-5.578 15.742-6.514 20.831" stroke="#1B1B20" stroke-width="23.97" stroke-linecap="round" stroke-linejoin="round"/><path d="M100.771 437.226c6.821 3.611 16.662 8.298 27.97 12.378 9.483 3.422 17.272 5.562 22.289 6.542" stroke="#1B1B20" stroke-width="23.97" stroke-linecap="round" stroke-linejoin="round"/><path d="M75.31 313.648c-1.181-.036-2.39.878-2.435 2.303-.036 1.188.871 2.406 2.288 2.449 1.18.037 2.39-.877 2.434-2.303a3.045 3.045 0 00-2.288-2.449zM28.425 316.717c-1.18-.037-2.39.878-2.433 2.303-.037 1.189.87 2.406 2.287 2.45 1.18.036 2.39-.878 2.434-2.304.037-1.188-.871-2.406-2.288-2.449zM199.642 243.813c-1.18-.037-2.389.877-2.433 2.303-.037 1.188.871 2.405 2.287 2.449 1.18.036 2.39-.878 2.434-2.303.036-1.188-.871-2.406-2.288-2.449zM44.518 392.613c-1.18-.036-2.39.878-2.434 2.304-.036 1.188.871 2.405 2.288 2.449 1.18.036 2.39-.878 2.434-2.304.036-1.188-.879-2.167-2.288-2.449zM190.693 104.064c-1.18-.037-2.389.878-2.433 2.304-.037 1.188.871 2.405 2.287 2.449 1.18.037 2.389-.878 2.433-2.304-.199-1.195-1.106-2.413-2.287-2.449zM329.867 50.32c-1.18-.036-2.39.878-2.434 2.304-.037 1.188.871 2.406 2.287 2.45 1.181.036 2.39-.878 2.434-2.304.044-1.426-1.107-2.413-2.287-2.45zM125.45 223.576c-1.18-.037-2.389.877-2.433 2.303-.037 1.188.871 2.405 2.287 2.449 1.18.036 2.389-.878 2.433-2.304.037-1.188-1.114-2.174-2.287-2.448zM373.974 547.907c-1.18-.037-2.39.877-2.434 2.303-.036 1.188.871 2.405 2.288 2.449 1.18.036 2.39-.878 2.434-2.303-.2-1.196-1.107-2.413-2.288-2.449zM28.07 487.808c-1.18-.036-2.39.878-2.434 2.303-.037 1.188.871 2.405 2.288 2.449 1.18.037 2.39-.878 2.433-2.303-.192-1.433-1.107-2.413-2.287-2.449zM207.867 175.47c-1.18-.036-2.39.878-2.434 2.304-.037 1.188.871 2.405 2.287 2.449 1.181.036 2.39-.878 2.434-2.304.037-1.188-.871-2.405-2.287-2.449zM236.641 483.669c-1.181-.036-2.39.878-2.434 2.304-.037 1.188.871 2.405 2.287 2.449 1.18.036 2.39-.878 2.434-2.304.036-1.188-.879-2.168-2.287-2.449zM204.333 351.377c-.435-1.203-.878-2.168-1.793-3.148-.45-.727-1.38-1.232-2.066-1.966-.457-.49-1.165-.512-1.881-.296-.236-.007-.479.223-.716.216l-.472-.015c-.708-.022-1.187.201-1.674.662-1.932 1.367-4.101 2.728-5.576 4.585-.737.929-1.01 2.11-.811 3.305.2 1.195.643 2.161 1.329 2.895.457.49 1.143 1.225 1.608 1.477l1.395.756c1.394.757 3.032 1.283 4.448 1.327.472.014 1.18.036 1.66-.187.715-.216 1.195-.439 1.682-.899.722-.454 1.46-1.382 1.961-2.318.509-1.174 1.018-2.348 1.062-3.773.022-.713.051-1.664-.156-2.621zm-4.595 3.426c-.007.237-.25.468-.265.943-.007.237-.244.23-.251.468-.007.237-.243.23-.479.223l-.236-.007-.236-.008-.709-.022c-.464-.252-.936-.266-1.401-.518-.465-.253-.923-.742-1.623-1.002l-.458-.49s.007-.237-.229-.245l.244-.23c1.217-1.152 2.662-2.058 4.115-3.203l.915.98c.229.245.222.482.45.727.222.483.215.72.2 1.196l-.037 1.188zM84.689 146.807c-.713-.022-1.198.279-1.692.893-.495.615-.752 1.237-.781 2.181-.354 3.77-.936 7.217-1.29 10.987-.049 1.574.853 3.177 2.278 3.221 1.426.044 2.415-1.186 2.473-3.074.354-3.77.699-7.225 1.29-10.987l.01-.315c.049-1.573-1.1-2.869-2.288-2.906z" fill="#1B1B20"/><path d="M90.557 153.397l-6.138-.189c-.944-.029-1.888-.058-3.061-.332-.708-.022-1.652-.051-2.353-.311l-.472-.014c-.701-.26-1.173-.274-1.896.179-.48.223-.966.684-1.225 1.39-.258.705-.272 1.181.178 1.908.221.483.679.972 1.38 1.232.7.259 1.409.281 2.11.541l1.652.051c.944.029 1.881.295 2.825.325l6.374.196c1.18.037 2.39-.878 2.434-2.303.516-1.412-.391-2.629-1.808-2.673zM223.163 39.418c-.237-.007-.717.216-.725.454-.007.238.215.722.451.729.237.007.717-.216.725-.454.007-.238.022-.714-.451-.729zM224.026 65.129c-.236-.008-.717.216-.724.454-.007.238.215.721.451.728.236.008.717-.216.724-.454.007-.238-.214-.721-.451-.728zM218.506 67.813c-.236-.007-.716.216-.724.454-.007.238.215.722.451.73.237.006.717-.217.724-.455.008-.238-.214-.722-.451-.729zM225.638 89.444c-.236-.008-.716.216-.724.454-.007.238.215.72.451.728.237.007.717-.216.724-.454.008-.238-.214-.721-.451-.728zM108.547 315.835c-.236-.007-.716.216-.724.454-.007.238.215.722.451.729.237.007.717-.216.724-.454.008-.238.022-.714-.451-.729zM113.443 348.573c-.237-.008-.717.216-.724.454-.008.238.214.721.451.728.236.008.717-.216.724-.454.007-.238-.215-.721-.451-.728zM130.905 357.195c-.236-.007-.717.216-.724.454-.007.238.214.721.451.729.236.007.717-.217.724-.455.007-.238-.215-.721-.451-.728zM142.066 332.33c-.236-.007-.717.216-.724.454-.007.238.215.721.451.729.236.007.717-.217.724-.454.007-.238.022-.714-.451-.729zM119.332 334.01c-.236-.007-.717.216-.724.454-.007.238.215.721.451.728.236.008.716-.216.724-.454.007-.237.022-.713-.451-.728zM396.727 34.79c-.236-.008-.716.215-.724.453-.007.238.215.722.451.729.237.007.717-.216.724-.454.008-.238-.214-.722-.451-.729zM434.837 32.636c-.237-.008-.717.216-.724.454-.008.238.214.722.451.729.236.007.716-.216.724-.454.007-.239.022-.715-.451-.73zM433.636 40.919c-.236-.008-.716.216-.724.454-.007.238.215.722.451.729.237.007.717-.216.724-.454.008-.239-.214-.722-.451-.73zM423.615 28.722c-.236-.007-.717.216-.724.454-.007.238.214.721.451.729.236.007.717-.216.724-.454.007-.238.022-.714-.451-.729zM421.044 12.468c-.237-.007-.717.217-.724.455-.008.238.214.721.451.728.236.008.716-.216.724-.454.007-.238-.215-.721-.451-.729zM56.636 344.466c-1.652-.051-3.105 1.093-3.157 2.757-.05 1.663 1.086 3.125 2.738 3.176 1.652.051 3.105-1.094 3.157-2.757.05-1.663-1.086-3.125-2.738-3.176zM251.441 34.343c-.708-.022-1.195.438-1.217 1.151-.022.713.435 1.203 1.144 1.225.708.021 1.194-.44 1.216-1.152.022-.713-.671-1.21-1.143-1.224zM248.263 45.426c-.708-.021-1.195.44-1.217 1.152-.022.713.436 1.203 1.144 1.225.708.022 1.195-.44 1.217-1.152.022-.713-.672-1.21-1.144-1.225zM4.31 439.65c-.708-.021-1.195.439-1.217 1.152-.022.713.436 1.203 1.144 1.225.708.021 1.195-.439 1.217-1.152.022-.713-.436-1.203-1.144-1.225zM94.994 318.748c-.708-.022-1.195.439-1.217 1.152-.022.713.435 1.203 1.143 1.224.709.022 1.195-.438 1.217-1.151.022-.713-.435-1.203-1.143-1.225zM135.52 314.764c-.708-.021-1.195.439-1.217 1.152-.022.713.436 1.203 1.144 1.225.708.021 1.195-.439 1.217-1.152.022-.713-.436-1.203-1.144-1.225zM173.34 184.155c-.708-.022-1.195.439-1.217 1.151-.022.713.436 1.203 1.144 1.225.708.022 1.195-.439 1.217-1.152.022-.713-.436-1.202-1.144-1.224zM57.548 275.26c-3.54-.109-6.698 2.648-6.808 6.213-.11 3.564 2.392 6.733 6.17 6.849 3.54.11 6.697-2.647 6.807-6.212-.126-3.571-2.628-6.74-6.169-6.85zM167.375 500.084c-1.888-.059-3.585 1.316-3.651 3.455-.058 1.901 1.307 3.608 3.431 3.673 1.889.059 3.585-1.316 3.651-3.455-.177-1.908-1.542-3.615-3.431-3.673zM34.519 226.649c-1.889-.058-3.585 1.317-3.65 3.455-.06 1.901 1.306 3.608 3.43 3.674 1.888.058 3.585-1.317 3.65-3.455-.177-1.909-1.55-3.378-3.43-3.674z" fill="#1B1B20"/></svg>