<svg width="393" height="685" fill="none" xmlns="http://www.w3.org/2000/svg"><path d="M301.79 276.663c-7.173 10.977-12.504 21.275-20.128 39.729-6.394 15.476-9.121 25.661-10.645 33.959" stroke="#1B1B20" stroke-width="40" stroke-linecap="round" stroke-linejoin="round"/><path d="M244.04 293.085c11.218 5.909 27.402 13.583 45.996 20.271 15.592 5.608 28.398 9.121 36.644 10.734" stroke="#1B1B20" stroke-width="40" stroke-linecap="round" stroke-linejoin="round"/><path d="M191.145 291.482c-.951-.7-2.466-.634-3.311.514-.705.958-.649 2.475.492 3.315.951.7 2.466.634 3.312-.514a3.045 3.045 0 00-.493-3.315zM150.808 267.391c-.951-.7-2.466-.634-3.311.515-.705.957-.649 2.474.492 3.314.951.701 2.466.635 3.312-.514.704-.957.648-2.475-.493-3.315zM333.146 304.58c-.951-.7-2.466-.634-3.311.515-.705.957-.649 2.474.493 3.314.95.7 2.465.634 3.311-.514.704-.957.648-2.475-.493-3.315zM120.967 339.006c-.951-.7-2.466-.634-3.311.515-.705.957-.649 2.475.492 3.315.951.7 2.466.634 3.312-.515.704-.957.507-2.283-.493-3.315zM283.559 245.8c-.951-.7-2.465-.635-3.311.514-.704.957-.648 2.474.493 3.314.951.7 2.465.634 3.311-.514.704-.957.317-2.423-.493-3.314zM304.015 653.888c-.951-.7-2.466-.634-3.311.515-.705.957-.649 2.474.492 3.314.951.701 2.466.635 3.312-.514.514-1.097.458-2.614-.493-3.315zM53.382 408.034c-.95-.7-2.465-.634-3.311.514-.705.957-.648 2.475.493 3.315.95.7 2.465.634 3.31-.515.656-1.288.46-2.614-.492-3.314zM378.717 252.989c-.951-.7-2.466-.634-3.311.515-.705.957-.649 2.474.492 3.314.951.7 2.466.635 3.312-.514.704-.958.648-2.475-.493-3.315zM227.43 523.038c-.951-.7-2.465-.634-3.311.515-.705.957-.649 2.475.492 3.315.951.7 2.466.634 3.312-.515.704-.957.507-2.283-.493-3.315zM275.941 395.792c.324-1.238.507-2.284.31-3.61.043-.854-.436-1.797-.584-2.791-.098-.663-.669-1.083-1.38-1.312-.191-.14-.522-.088-.712-.228l-.38-.28c-.571-.42-1.092-.509-1.754-.406-2.368.029-4.925-.083-7.194.609-1.134.346-2.029 1.163-2.544 2.26-.514 1.098-.697 2.143-.55 3.138.099.663.247 1.657.486 2.129l.718 1.414c.719 1.414 1.768 2.777 2.909 3.617.381.28.951.701 1.473.789.711.229 1.233.317 1.895.214.852.037 1.987-.308 2.931-.794 1.085-.677 2.17-1.355 3.016-2.503.422-.575.986-1.341 1.36-2.246zm-5.728.211c-.141.192-.472.243-.754.626-.141.191-.331.051-.472.243-.141.191-.331.051-.521-.089l-.191-.14-.19-.14-.57-.42c-.24-.471-.62-.751-.86-1.223-.239-.471-.338-1.134-.767-1.746l-.099-.662s.141-.192-.049-.332l.331-.051c1.656-.258 3.361-.183 5.207-.301l.197 1.326c.049.332-.092.523-.043.855-.092.523-.232.714-.514 1.097l-.705.957zM293.587 159.461c-.575-.423-1.144-.451-1.9-.226-.756.226-1.321.592-1.881 1.353-2.432 2.902-4.868 5.41-7.3 8.312-.933 1.268-1.101 3.099.048 3.945 1.148.845 2.661.394 3.781-1.127 2.431-2.902 4.676-5.551 7.299-8.312l.187-.254c.933-1.267.723-2.986-.234-3.691z" fill="#1B1B20"/><path d="M294.677 168.218l-4.945-3.64c-.761-.561-1.522-1.121-2.332-2.012-.57-.42-1.331-.98-1.761-1.592l-.38-.28c-.43-.611-.81-.891-1.663-.928-.521-.089-1.183.014-1.796.448-.613.435-.895.818-.938 1.672-.091.523.007 1.186.437 1.797.429.612 1 1.032 1.43 1.643l1.331.98c.761.561 1.381 1.312 2.141 1.872l5.136 3.78c.951.701 2.465.635 3.311-.514 1.226-.869 1.17-2.386.029-3.226zM217.266 312.153c-.19-.14-.713-.229-.854-.037-.141.192-.233.716-.042.856s.713.229.854.037c.141-.192.423-.575.042-.856zM202.711 341.883c-.191-.141-.713-.23-.854-.038-.141.192-.233.716-.043.856.191.14.713.229.854.037.141-.191.233-.715.043-.855zM212.189 358.894c-.19-.14-.712-.229-.854-.037-.141.191-.233.715-.042.855.19.141.713.229.854.038.141-.192.233-.716.042-.856zM235.495 344.762c-.191-.141-.713-.229-.854-.038-.141.192-.233.716-.042.856.19.14.713.229.854.037.141-.192.423-.575.042-.855zM215.826 333.238c-.19-.141-.712-.229-.853-.037-.142.191-.233.715-.043.855.191.14.713.229.854.037.141-.192.423-.575.042-.855zM158.277 306.25c-1.331-.98-3.177-.863-4.164.477-.986 1.341-.881 3.189.451 4.17 1.331.98 3.177.862 4.163-.478.987-1.34.882-3.189-.45-4.169zM61.163 354.901c-.57-.42-1.232-.317-1.655.257-.423.575-.325 1.237.246 1.657.57.42 1.233.317 1.656-.257.422-.574.324-1.237-.247-1.657zM204.454 306.856c-.57-.42-1.232-.317-1.655.258-.423.574-.324 1.237.246 1.657.571.42 1.233.317 1.656-.257.422-.575.324-1.238-.247-1.658zM240.078 326.585c-.57-.42-1.232-.317-1.655.257-.423.574-.324 1.237.246 1.657.571.42 1.233.317 1.656-.257.422-.574.324-1.237-.247-1.657zM345.362 240.536c-.57-.42-1.232-.317-1.655.257-.423.575-.324 1.238.246 1.658.571.42 1.233.317 1.656-.257.423-.575.324-1.238-.247-1.658zM198.318 249.797c-2.853-2.1-7.017-1.623-9.131 1.249s-1.854 6.901 1.189 9.141c2.853 2.1 7.017 1.623 9.131-1.249 1.924-3.011 1.664-7.041-1.189-9.141zM161.09 497.227c-1.521-1.12-3.698-.951-4.967.772-1.127 1.532-.972 3.712.739 4.972 1.522 1.12 3.699.951 4.967-.772.938-1.671.783-3.851-.739-4.972zM206.958 196.706c-1.522-1.12-3.699-.952-4.967.771-1.128 1.532-.973 3.712.739 4.972 1.521 1.12 3.698.952 4.967-.772.937-1.671.641-3.66-.739-4.971z" fill="#1B1B20"/></svg>