<svg width="96" height="96" fill="none" xmlns="http://www.w3.org/2000/svg"><path d="M33.512 67.422s-3.77 5.263-2.703 7.89c1.067 2.63 12.48 5.937 18.317 5.29 1.116-.125.61-4.937 6.063-6.768 5.453-1.832 8.525-6.428 9.837-8.682 1.05-1.804 2.216-6.386 2.669-8.451-.427.46-.346.198 3.388-4.533 4.667-5.914 8.286-11.785 4.343-13.15-3.154-1.092-9.543 8.053-12.344 12.762 2.19-4.62 6.814-14.267 7.784-15.885 1.212-2.023 3.46-7.75-1.573-9.121-3.291-.896-9.832 12.986-12.652 19.872.973-2.692 3.476-9.372 5.705-14.564 2.788-6.49 4.46-13.643-.663-13.796-3.703-.11-10.482 16.472-13.66 26.213.994-3.752 3.167-12.327 3.907-16.608.926-5.351-.487-9.944-3.535-8.706-3.99 1.62-9.098 20.119-12.009 30.04-1.865-2.05-6.343-6.515-9.339-7.978-3.744-1.828-5.354 1.122-5.169 2.769.185 1.647 5.544 5.786 6.55 12.554.804 5.414 2.953 9.421 5.084 10.852z" fill="#FFD000"/><path d="M32.374 65.118s-3.77 5.262-2.702 7.89c1.067 2.629 12.48 5.936 18.316 5.289 1.117-.124.61-4.936 6.064-6.768 5.453-1.831 8.525-6.427 9.836-8.682 1.05-1.804 2.217-6.386 2.669-8.45-.427.46-.346.197 3.388-4.534 4.667-5.913 8.286-11.784 4.343-13.15-3.154-1.091-9.543 8.053-12.343 12.762 2.19-4.62 6.813-14.267 7.783-15.885 1.212-2.023 3.46-7.75-1.573-9.12-3.29-.896-9.832 12.985-12.652 19.87.973-2.69 3.476-9.37 5.706-14.563 2.787-6.49 4.46-13.643-.664-13.795-3.703-.11-10.482 16.47-13.66 26.213.994-3.753 3.167-12.328 3.908-16.608.925-5.352-.488-9.945-3.535-8.707-3.99 1.62-9.099 20.119-12.01 30.04-1.864-2.05-6.343-6.514-9.338-7.977-3.744-1.829-5.354 1.121-5.17 2.768.185 1.648 5.545 5.786 6.55 12.554.804 5.414 2.954 9.421 5.084 10.853zM77.283 26.152c1.326-1.105 4.906-3.58 8.618-4.64M79.328 30.348c1.473-.368 4.364-.884 6.573-1.326M75.23 22.544c1.067-1.356 2.437-2.844 4.106-4.554M18.306 53.35c-1.512.83-5.067 1.72-9.345 2.908M16.986 49.255c-1.517.08-4.452.034-6.706.046M20.756 57.817c-1.307 1.128-2.935 2.326-4.9 3.687" stroke="#1B1B20" stroke-width="3" stroke-linecap="round" stroke-linejoin="round"/></svg>
