<svg width="145" height="111" fill="none" xmlns="http://www.w3.org/2000/svg"><path d="M21.268 102h-5.504v-8.768H7.957V102H2.453V79.6h5.504v8.704h7.808V79.6h5.503V102zm18.658-6.688H29.494v.384c0 .853.245 1.557.736 2.112.512.533 1.226.8 2.144.8 1.365 0 2.272-.533 2.72-1.6h4.736c-.299 1.557-1.142 2.848-2.528 3.872-1.387 1.003-3.03 1.504-4.928 1.504-2.454 0-4.416-.672-5.888-2.016-1.45-1.344-2.176-3.2-2.176-5.568v-2.08c0-2.39.693-4.299 2.08-5.728 1.408-1.43 3.36-2.144 5.856-2.144 2.432 0 4.32.704 5.664 2.112 1.344 1.408 2.016 3.168 2.016 5.28v3.072zm-10.432-3.488v.352h5.504v-.608c0-.875-.235-1.579-.704-2.112-.448-.533-1.12-.8-2.016-.8-1.856 0-2.784 1.056-2.784 3.168zM48.337 102h-5.376V78.64h5.376V102zm3.595 5.568V85.232h5.12v1.76c.3-.533.875-1.024 1.729-1.472.853-.448 1.813-.672 2.88-.672 2.24 0 3.978.725 5.215 2.176 1.26 1.43 1.888 3.168 1.888 5.216v2.752c0 2.048-.629 3.797-1.888 5.248-1.237 1.429-2.976 2.144-5.216 2.144-.938 0-1.802-.171-2.591-.512-.769-.363-1.355-.779-1.76-1.248v6.944h-5.377zm5.377-15.136V94.8c0 1.003.288 1.781.864 2.336.575.555 1.29.832 2.143.832 1.024 0 1.792-.288 2.304-.864.513-.576.769-1.376.769-2.4v-2.176c0-1.003-.257-1.792-.769-2.368-.511-.597-1.28-.896-2.303-.896-.854 0-1.569.277-2.145.832-.575.555-.863 1.333-.863 2.336zM71.82 79.6h9.792c3.008 0 5.312.821 6.912 2.464 1.622 1.621 2.432 3.765 2.432 6.432v4.608c0 2.667-.81 4.821-2.432 6.464-1.6 1.621-3.904 2.432-6.912 2.432h-9.792V79.6zm13.632 13.536v-4.672c0-2.901-1.61-4.352-4.832-4.352h-3.328v13.376h3.328c3.222 0 4.832-1.45 4.832-4.352zm23.467 2.176H98.487v.384c0 .853.246 1.557.737 2.112.511.533 1.226.8 2.144.8 1.365 0 2.272-.533 2.72-1.6h4.736c-.299 1.557-1.142 2.848-2.528 3.872-1.387 1.003-3.03 1.504-4.928 1.504-2.454 0-4.416-.672-5.888-2.016-1.451-1.344-2.177-3.2-2.177-5.568v-2.08c0-2.39.694-4.299 2.08-5.728 1.409-1.43 3.36-2.144 5.857-2.144 2.432 0 4.32.704 5.664 2.112 1.344 1.408 2.016 3.168 2.016 5.28v3.072zm-10.433-3.488v.352h5.505v-.608c0-.875-.235-1.579-.704-2.112-.448-.533-1.12-.8-2.016-.8-1.857 0-2.785 1.056-2.785 3.168zm27.422 4.704c0 1.707-.694 3.115-2.08 4.224-1.387 1.088-3.19 1.632-5.408 1.632-2.24 0-4.032-.469-5.376-1.408-1.344-.96-2.016-2.283-2.016-3.968v-.352h4.736v.224c0 .576.234 1.024.704 1.344.49.299 1.152.448 1.984.448.746 0 1.354-.128 1.824-.384.469-.256.704-.619.704-1.088 0-.597-.374-.981-1.12-1.152l-4.64-1.056c-2.624-.576-3.936-2.08-3.936-4.512 0-1.77.629-3.147 1.888-4.128 1.28-1.003 2.965-1.504 5.056-1.504 2.026 0 3.669.49 4.928 1.472 1.258.96 1.888 2.272 1.888 3.936v.288h-4.64v-.288c0-1.13-.704-1.696-2.112-1.696-1.344 0-2.016.459-2.016 1.376 0 .597.352.97 1.056 1.12l4.896 1.184c2.453.597 3.68 2.027 3.68 4.288zm7.862 5.472h-5.376V78.64h5.376v14.368l4.288-7.776h5.984l-4.8 8.224 4.96 8.544h-5.984l-4.448-8.064V102z" fill="#1B1B20"/><path d="M72 24.552L88.296 10.4H72c-5.768 0-11.504.192-16.96.568a4.464 4.464 0 00-4.184 4.048 157.322 157.322 0 00-.456 11.816v2.336c0 4.208.176 8.408.448 11.784a4.456 4.456 0 004.192 4.04c11.296.776 22.632.776 33.928 0a4.448 4.448 0 004.184-4.04c.256-3.2.408-7.128.44-11.104L104 20.8v9.024c0 4.248-.2 8.472-.472 11.936a14.876 14.876 0 01-13.808 13.6C84 55.792 78 56 72 56c-6 0-12-.208-17.704-.608A14.88 14.88 0 0140.48 41.784 166 166 0 0140 29.168v-2.336c0-4.488.2-8.976.48-12.624A14.872 14.872 0 0154.296.616 250.095 250.095 0 0172 0h32v10.4L72 38.176 57.048 25.208l7.856-6.808L72 24.552z" fill="#2FC774"/></svg>