<svg width="151" height="325" fill="none" xmlns="http://www.w3.org/2000/svg"><g clip-path="url(#clip0)"><path d="M150.717 244.397c-1.059-15.112-7.671-29.842-18.185-40.918-4.767-5.378-10.345-9.927-15.924-14.475-6.891-5.522-14.755-9.72-22.941-12.928l-4.419-1.436c-3.598-.622-7.195-1.245-10.302-1.708-4.74-.447-9.642-.399-14.374.798-7.018 1.547-13.705 3.75-19.732 7.26-11.893 6.527-21.484 15.99-29.271 26.586-8.11 11.586-13.103 25.278-14.99 39.434-.94 7.899-.736 15.623.61 23.172.34 2.298 1.008 5.25 1.838 7.708 2.489 7.373 5.79 13.916 10.887 19.948 4.766 5.379 11.327 10.246 17.718 13.965 5.9 3.559 12.122 6.128 17.853 8.538 4.75 2.091 9.329 3.033 14.56 3.64 7.687 1.404 15.856 1.325 23.195-1.212 9.785-3.383 17.929-8.394 25.902-14.554 5.875-1.372 9.778-5.027 13.51-9.83 3.733-4.803 7.627-10.102 11.36-14.905 4.055-5.793 7.779-12.24 10.03-19.166 2.091-6.431 3.2-13.182 2.675-19.917zm-47.346 7.037c-2.107 3.144-4.376 6.782-6.484 9.926-.812.83-1.955 1.005-2.767 1.835-3.742 3.16-7.644 6.814-11.877 9.814-2.607 1.341-5.375 3.175-7.821 4.021l-.491-.159c-1.143.175-2.616-.303-3.759-.128-3.437-1.117-6.874-2.234-10.15-3.846-3.767-1.772-7.373-4.038-10.819-6.799-.49-.16-.82-.814-1.15-1.468l-.661-1.309c-.339-2.298-.838-4.102-1.177-6.4.152-2.138.465-4.771.618-6.909 1.125-3.463 1.76-7.086 3.538-10.884l6.805-10.915 6.831-5.985c2.607-1.34 4.724-2.841 7.17-3.686.652-.336 1.143-.176 1.794-.511.491.16 1.143-.175 1.634-.016l6.383 2.075c4.097 2.426 7.543 5.187 11.48 8.107 3.284 3.256 6.568 6.512 9.201 10.103 1.151 1.468 1.651 3.271 2.311 4.58.331.654.5 1.803.83 2.457l-.322.99c-.313 2.633-.795 4.118-1.117 5.107zm1.109-6.751c-.169-1.149-.009-1.643-.178-2.792.169 1.149.339 2.298.178 2.792zm-33.464-25.646c-1.143.175-1.634.015-2.776.191 1.142-.176 2.124.144 2.776-.191zm-1.464 1.164c-1.143.176-1.956 1.006-3.099 1.181.813-.83 1.956-1.005 3.099-1.181z" fill="#fff"/><path d="M145.436 214.742c-3.463 12.206-17.396 13.556-26.324 10.766-13.352-4.171-26.491-20.333-24.947-41.019 1.969-26.369 24.6-40.637 38.929-34.619 14.329 6.017 15.557 20.031 8.131 30.626-10.421 14.868 8.376 19.566 4.211 34.246z" stroke="#1B1B20" stroke-width="4"/><path d="M133.434 189.899c1.157-.265 2.101-1.462 1.781-2.858-.268-1.164-1.461-2.115-2.85-1.797-1.157.266-2.101 1.462-1.78 2.859.267 1.163 1.46 2.115 2.849 1.796zM98.44 231.744c1.157-.266 2.101-1.462 1.78-2.859-.267-1.164-1.46-2.115-2.85-1.797-1.157.266-2.1 1.463-1.78 2.859.267 1.164 1.407 1.883 2.85 1.797zM47.419 254.716c1.157-.266 2.1-1.462 1.78-2.859-.267-1.164-1.46-2.116-2.85-1.797-1.156.265-2.1 1.462-1.78 2.859.5 1.111 1.692 2.062 2.85 1.797zM63.816 140.018c1.157-.265 2.101-1.462 1.78-2.858-.267-1.164-1.46-2.115-2.849-1.797-1.157.266-2.1 1.462-1.78 2.859.267 1.164 1.638 1.829 2.849 1.796zM12.512 189.708c1.158-.265 2.102-1.462 1.781-2.859-.267-1.164-1.46-2.115-2.85-1.796-1.157.265-2.1 1.462-1.78 2.859.267 1.163 1.46 2.115 2.85 1.796zM21.119 127.877c.73 1.058 1.407 1.883 2.547 2.601.623.592 1.656.845 2.51 1.384.57.36 1.265.2 1.906-.192.232-.053.41-.339.641-.392l.463-.106c.695-.159 1.104-.498 1.46-1.07 1.532-1.822 3.295-3.696 4.257-5.877.48-1.09.445-2.307-.054-3.418-.499-1.111-1.175-1.936-2.03-2.475-.57-.359-1.425-.898-1.942-1.024l-1.549-.38c-1.55-.38-3.277-.474-4.666-.155-.463.106-1.157.266-1.567.605-.64.392-1.05.731-1.407 1.302-.587.625-1.068 1.716-1.317 2.753-.196 1.27-.392 2.54-.072 3.937.16.698.375 1.629.82 2.507zm3.597-4.501c-.053-.232.125-.518.018-.984-.054-.232.178-.286.124-.518-.053-.233.178-.286.41-.339l.232-.053.231-.054.694-.159c.517.127.98.02 1.496.147.517.127 1.087.486 1.835.559l.57.36s.053.232.285.179l-.178.286c-.89 1.43-2.066 2.679-3.188 4.162l-1.14-.719c-.285-.179-.338-.412-.623-.592-.339-.412-.392-.645-.499-1.111l-.267-1.164zM123.361 137.997c.232-.053.642-.393.589-.626-.054-.233-.393-.646-.624-.592-.232.053-.642.392-.589.625.054.233.161.699.624.593zM110.255 107.434c.232-.053.642-.392.588-.625-.053-.233-.392-.646-.624-.593-.232.053-.642.392-.588.625.053.233.392.646.624.593zM91.071 103.506c.232-.053.642-.392.589-.625-.054-.234-.393-.646-.624-.593-.232.053-.642.392-.589.625.054.233.393.646.624.593zM86.55 130.512c.23-.053.64-.392.588-.625-.054-.233-.393-.646-.624-.593-.232.054-.642.393-.589.626.054.233.16.699.624.592zM108.239 123.084c.232-.053.641-.392.588-.625-.054-.233-.392-.646-.624-.593-.232.054-.641.393-.588.626.053.233.16.699.624.592zM83.216 71.112c.695-.16 1.05-.731.89-1.43-.16-.698-.73-1.057-1.424-.898-.694.16-1.05.731-.89 1.43.16.698.73 1.057 1.424.898zM135.808 131.709c.695-.159 1.051-.731.89-1.429-.16-.699-.73-1.058-1.424-.899-.695.16-1.051.731-.89 1.43.16.698.73 1.057 1.424.898zM97.394 145.914c.694-.16 1.05-.731.89-1.43-.16-.698-.73-1.057-1.425-.898-.694.159-1.05.731-.89 1.429.16.699.73 1.058 1.425.899zM43.891 172.465c.695-.16 1.051-.731.89-1.43-.16-.698-.73-1.057-1.424-.898-.695.159-1.05.731-.89 1.43.16.698.73 1.057 1.424.898zM58.653 7.065c1.852-.425 3.152-2.194 2.672-4.289C60.897.914 59.133-.396 57.05.082c-1.852.425-3.152 2.193-2.67 4.288.658 1.809 2.421 3.12 4.273 2.695z" fill="#1B1B20"/></g><defs><clipPath id="clip0"><path fill="#fff" d="M0 0h151v325H0z"/></clipPath></defs></svg>