<svg width="185" height="102" fill="none" xmlns="http://www.w3.org/2000/svg"><path d="M138.987 19.667c-6.269 2.16-11.747 6.623-15.239 12.323-1.734 2.624-3.025 5.498-4.316 8.372-1.554 3.538-2.437 7.339-2.866 11.163l-.107 2.03c.145 1.592.289 3.184.445 4.55.348 2.054.924 4.121 1.966 5.986 1.449 2.791 3.137 5.369 5.304 7.52 4.107 4.288 9.194 7.27 14.556 9.363 5.816 2.115 12.171 2.676 18.369 1.87 3.446-.498 6.688-1.459 9.727-2.883a20.88 20.88 0 003.051-1.65c2.835-1.888 5.227-4.025 7.2-6.863 1.734-2.624 3.048-5.949 3.896-9.072.837-2.898 1.218-5.819 1.588-8.515.346-2.244.225-4.287-.111-6.568-.277-3.408-1.236-6.853-3.14-9.668-2.538-3.754-5.579-6.629-9.087-9.302-1.245-2.329-3.232-3.564-5.686-4.598-2.454-1.034-5.135-2.08-7.588-3.114-2.908-1.058-6.056-1.902-9.239-2.07-2.956-.155-5.935.141-8.723 1.126zm8.338 19.219c1.568.535 3.363 1.082 4.931 1.616.443.25.646.713 1.089.963 1.76 1.224 3.747 2.46 5.495 3.909.862.95 1.951 1.913 2.586 2.851l-.012.226c.203.463.168 1.14.372 1.603-.083 1.58-.166 3.16-.477 4.727a23.677 23.677 0 01-1.649 5.344c-.011.225-.251.44-.49.653l-.478.427c-.933.404-1.639.82-2.572 1.223-.922.178-2.07.344-2.992.521-1.591-.083-3.195.059-5.002-.262l-5.385-1.641-3.304-2.21c-.862-.95-1.736-1.675-2.371-2.614-.215-.237-.203-.463-.419-.7.012-.226-.203-.464-.192-.69l.155-2.933c.561-2.007 1.338-3.776 2.127-5.771 1.004-1.758 2.008-3.515 3.228-5.035.49-.653 1.196-1.068 1.675-1.496.239-.214.705-.415.945-.629l.455.024a10.53 10.53 0 012.285-.106zm-2.979.296c-.467.201-.694.19-1.161.391.467-.201.933-.403 1.161-.391zm-7.052 17.052c.203.464.192.69.395 1.152-.203-.463-.18-.914-.395-1.152zm.658.487c.204.464.647.713.85 1.177-.443-.25-.646-.713-.85-1.177z" fill="#fff"/><path d="M101.485 59.384c-5.185-2.215-4.995-8.432-3.262-12.211 2.591-5.65 10.456-10.532 19.487-8.685 11.513 2.354 16.527 13.134 13.067 19.111-3.46 5.977-9.707 5.729-13.958 1.858-5.967-5.431-9.097 2.59-15.334-.073z" stroke="#1B1B20" stroke-width="3"/><path d="M4.167 53.01c.076-.78-.47-1.62-1.406-1.709-.78-.073-1.62.478-1.713 1.414-.076.781.47 1.62 1.406 1.709.78.073 1.465-.492 1.713-1.414zM158.8 59.75c.077-.78-.47-1.62-1.406-1.708-.78-.074-1.621.477-1.713 1.414-.076.78.471 1.62 1.407 1.708.795-.082 1.636-.633 1.712-1.414zM90.895 25.714c.077-.78-.47-1.62-1.406-1.708-.78-.074-1.62.477-1.712 1.414-.076.78.47 1.62 1.406 1.708.78.074 1.48-.648 1.712-1.414zM111.085 68.166c.077-.78-.471-1.62-1.406-1.708-.78-.074-1.621.477-1.712 1.414-.077.78.47 1.62 1.406 1.708.779.074 1.62-.477 1.712-1.414zM74.43 49.964c.81-.239 1.464-.492 2.15-1.058.498-.268.87-.863 1.384-1.287.343-.283.389-.751.279-1.234.015-.156-.125-.327-.11-.483l.03-.313c.046-.468-.079-.795-.36-1.137-.813-1.337-1.61-2.83-2.766-3.885-.578-.527-1.342-.757-2.137-.674-.795.082-1.45.336-1.963.76-.342.283-.856.707-1.043 1.005l-.559.892c-.56.893-.979 1.956-1.07 2.893-.031.312-.077.78.048 1.107.11.483.236.81.517 1.152.266.498.843 1.025 1.436 1.396.75.386 1.498.772 2.434.86.467.044 1.091.103 1.73.006zm-2.048-3.187c-.156-.015-.296-.186-.608-.215-.156-.015-.14-.17-.297-.186-.156-.014-.14-.17-.125-.327l.015-.156.016-.156.046-.468c.186-.298.217-.61.403-.907.187-.298.53-.58.731-1.035l.343-.282s.155.014.17-.142l.141.171c.704.854 1.235 1.85 1.923 2.86l-.685.566c-.171.141-.327.127-.498.268-.328.127-.483.112-.795.082l-.78-.073zM106.913 44.925c.046-.469-.235-.81-.703-.854-.468-.045-.81.238-.856.707-.046.468.235.81.703.854.468.044.81-.239.856-.707z" fill="#1B1B20"/></svg>