<svg width="243" height="111" fill="none" xmlns="http://www.w3.org/2000/svg"><path d="M8.128 102H2.624V79.6h5.504v10.688L14.816 79.6h6.336L13.76 90.704 21.376 102h-6.464L8.128 91.12V102zm20.715 0h-5.376V85.232h5.152v1.952c.875-1.557 2.432-2.336 4.672-2.336 1.899 0 3.35.565 4.352 1.696 1.024 1.13 1.536 2.677 1.536 4.64V102h-5.376v-9.984c0-.79-.213-1.397-.64-1.824-.405-.448-1.003-.672-1.792-.672-1.685 0-2.528.853-2.528 2.56V102zm29.246-9.504v2.24c0 2.261-.725 4.107-2.176 5.536-1.45 1.408-3.445 2.112-5.984 2.112-2.538 0-4.533-.704-5.984-2.112-1.45-1.43-2.176-3.275-2.176-5.536v-2.24c0-2.261.726-4.096 2.176-5.504 1.45-1.43 3.446-2.144 5.984-2.144 2.539 0 4.533.715 5.984 2.144 1.45 1.408 2.176 3.243 2.176 5.504zm-5.216-.288c0-.917-.245-1.664-.736-2.24-.49-.576-1.227-.864-2.208-.864-.981 0-1.717.288-2.208.864-.49.576-.736 1.323-.736 2.24v2.816c0 .917.245 1.664.736 2.24.49.576 1.227.864 2.208.864.981 0 1.718-.288 2.208-.864.49-.576.736-1.323.736-2.24v-2.816zm20.914-6.976l3.072 10.176 1.888-10.176h5.216L79.643 102h-4.864l-3.296-10.144L68.187 102h-4.864l-4.32-16.768h5.216l1.888 10.176 3.072-10.176h4.608zM91.272 102h-5.376V78.64h5.376V102zm18.507-6.688H99.347v.384c0 .853.245 1.557.736 2.112.512.533 1.227.8 2.144.8 1.365 0 2.272-.533 2.72-1.6h4.736c-.299 1.557-1.141 2.848-2.528 3.872-1.387 1.003-3.029 1.504-4.928 1.504-2.454 0-4.416-.672-5.888-2.016-1.45-1.344-2.176-3.2-2.176-5.568v-2.08c0-2.39.693-4.299 2.08-5.728 1.408-1.43 3.36-2.144 5.856-2.144 2.432 0 4.32.704 5.664 2.112 1.344 1.408 2.016 3.168 2.016 5.28v3.072zm-10.432-3.488v.352h5.504v-.608c0-.875-.235-1.579-.704-2.112-.448-.533-1.12-.8-2.016-.8-1.856 0-2.784 1.056-2.784 3.168zm29.435-13.184V102h-5.12v-1.76c-.298.533-.874 1.024-1.728 1.472-.853.448-1.813.672-2.88.672-2.24 0-3.989-.715-5.248-2.144-1.237-1.45-1.856-3.2-1.856-5.248V92.24c0-2.048.619-3.787 1.856-5.216 1.259-1.45 3.008-2.176 5.248-2.176.939 0 1.792.181 2.56.544.79.341 1.387.757 1.792 1.248v-8h5.376zm-5.376 16.16v-2.368c0-1.003-.288-1.781-.864-2.336-.576-.555-1.29-.832-2.144-.832-1.024 0-1.792.288-2.304.864-.512.576-.768 1.376-.768 2.4v2.176c0 1.003.256 1.803.768 2.4.512.576 1.28.864 2.304.864.854 0 1.568-.277 2.144-.832.576-.555.864-1.333.864-2.336zm24.785-9.568v16.256c0 1.835-.789 3.371-2.368 4.608-1.557 1.237-3.563 1.856-6.016 1.856-2.091 0-3.904-.491-5.44-1.472-1.515-.96-2.411-2.261-2.688-3.904h5.216c.405.917 1.376 1.376 2.912 1.376.939 0 1.675-.245 2.208-.736.533-.469.8-1.099.8-1.888v-1.984c-.427.512-1.045.949-1.856 1.312a6.305 6.305 0 01-2.528.512c-2.197 0-3.904-.683-5.12-2.048-1.195-1.365-1.792-3.019-1.792-4.96v-2.304c0-1.984.597-3.648 1.792-4.992 1.216-1.344 2.933-2.016 5.152-2.016 1.067 0 2.027.224 2.88.672.853.448 1.429.939 1.728 1.472v-1.76h5.12zm-5.376 6.88c0-.917-.288-1.632-.864-2.144-.576-.512-1.291-.768-2.144-.768-.981 0-1.728.277-2.24.832-.491.555-.736 1.28-.736 2.176v1.6c0 .917.245 1.653.736 2.208.512.533 1.248.8 2.208.8.917 0 1.653-.256 2.208-.768.555-.533.832-1.248.832-2.144v-1.792zm23.733 3.2h-10.432v.384c0 .853.245 1.557.736 2.112.512.533 1.226.8 2.144.8 1.365 0 2.272-.533 2.72-1.6h4.736c-.299 1.557-1.142 2.848-2.528 3.872-1.387 1.003-3.03 1.504-4.928 1.504-2.454 0-4.416-.672-5.888-2.016-1.451-1.344-2.176-3.2-2.176-5.568v-2.08c0-2.39.693-4.299 2.08-5.728 1.408-1.43 3.36-2.144 5.856-2.144 2.432 0 4.32.704 5.664 2.112 1.344 1.408 2.016 3.168 2.016 5.28v3.072zm-10.432-3.488v.352h5.504v-.608c0-.875-.235-1.579-.704-2.112-.448-.533-1.12-.8-2.016-.8-1.856 0-2.784 1.056-2.784 3.168zm32.187 3.904c0 1.899-.725 3.424-2.176 4.576-1.451 1.131-3.296 1.696-5.536 1.696h-10.848V79.6h10.72c2.027 0 3.605.544 4.736 1.632 1.152 1.067 1.728 2.432 1.728 4.096 0 2.347-.981 4.043-2.944 5.088 2.88.79 4.32 2.56 4.32 5.312zm-5.44-.512c0-.747-.224-1.333-.672-1.76-.448-.427-1.077-.64-1.888-.64h-5.184v4.864h5.28c.768 0 1.365-.224 1.792-.672.448-.47.672-1.067.672-1.792zm-7.744-6.688h4.096c.704 0 1.248-.213 1.632-.64.405-.427.608-1.013.608-1.76 0-.683-.203-1.216-.608-1.6-.405-.405-.971-.608-1.696-.608h-4.032v4.608zM206.391 102h-5.152v-1.408c-1.024 1.195-2.678 1.792-4.96 1.792-1.899 0-3.403-.491-4.512-1.472-1.088-.981-1.632-2.25-1.632-3.808 0-1.685.576-2.976 1.728-3.872 1.173-.896 2.762-1.344 4.768-1.344 1.898 0 3.36.416 4.384 1.248v-1.952c0-.64-.214-1.163-.64-1.568-.406-.405-.971-.608-1.696-.608-1.195 0-2.006.405-2.432 1.216h-4.896c.341-1.685 1.184-2.997 2.528-3.936 1.344-.96 2.997-1.44 4.96-1.44 2.368 0 4.213.608 5.536 1.824 1.344 1.195 2.016 2.827 2.016 4.896V102zm-8.32-3.04c.832 0 1.525-.181 2.08-.544.576-.384.864-.853.864-1.408 0-.555-.278-1.013-.832-1.376-.534-.384-1.216-.576-2.048-.576-1.984 0-2.976.65-2.976 1.952 0 .619.266 1.099.8 1.44.533.341 1.237.512 2.112.512zm25.791-2.432c0 1.707-.694 3.115-2.08 4.224-1.387 1.088-3.19 1.632-5.408 1.632-2.24 0-4.032-.469-5.376-1.408-1.344-.96-2.016-2.283-2.016-3.968v-.352h4.736v.224c0 .576.234 1.024.704 1.344.49.299 1.152.448 1.984.448.746 0 1.354-.128 1.824-.384.469-.256.704-.619.704-1.088 0-.597-.374-.981-1.12-1.152l-4.64-1.056c-2.624-.576-3.936-2.08-3.936-4.512 0-1.77.629-3.147 1.888-4.128 1.28-1.003 2.965-1.504 5.056-1.504 2.026 0 3.669.49 4.928 1.472 1.258.96 1.888 2.272 1.888 3.936v.288h-4.64v-.288c0-1.13-.704-1.696-2.112-1.696-1.344 0-2.016.459-2.016 1.376 0 .597.352.97 1.056 1.12l4.896 1.184c2.453.597 3.68 2.027 3.68 4.288zm17.398-1.216h-10.432v.384c0 .853.245 1.557.736 2.112.512.533 1.227.8 2.144.8 1.365 0 2.272-.533 2.72-1.6h4.736c-.299 1.557-1.141 2.848-2.528 3.872-1.387 1.003-3.029 1.504-4.928 1.504-2.453 0-4.416-.672-5.888-2.016-1.451-1.344-2.176-3.2-2.176-5.568v-2.08c0-2.39.693-4.299 2.08-5.728 1.408-1.43 3.36-2.144 5.856-2.144 2.432 0 4.32.704 5.664 2.112 1.344 1.408 2.016 3.168 2.016 5.28v3.072zm-10.432-3.488v.352h5.504v-.608c0-.875-.235-1.579-.704-2.112-.448-.533-1.12-.8-2.016-.8-1.856 0-2.784 1.056-2.784 3.168z" fill="#1B1B20"/><path d="M142.6 10.72V0h-.512c-8.92.36-16.288 6.168-20.832 10.704l-.256.248-.256-.248C116.2 6.168 108.832.36 99.912 0H99.4v10.72H89v18.448a166 166 0 00.48 12.616 14.88 14.88 0 0013.816 13.6C109 55.792 115 56 121 56s12-.208 17.712-.608a14.88 14.88 0 0013.808-13.6c.288-3.648.456-8.136.48-12.616V10.72h-10.4zm0 18.448c0 4.208-.176 8.408-.448 11.784a4.447 4.447 0 01-4.184 4.04 247.522 247.522 0 01-33.928 0 4.457 4.457 0 01-4.192-4.04c-.272-3.352-.448-7.576-.448-11.784V10.72c7.552.32 15.008 8.36 17.272 11.528L121 28.264l4.328-6.016c2.264-3.2 9.728-11.2 17.272-11.528v18.448z" fill="#9146FF"/></svg>