<svg width="161" height="382" fill="none" xmlns="http://www.w3.org/2000/svg"><path d="M140.385 309.377c-6.467-.017-12.158.546-21.837 2.352-8.117 1.514-13.061 3.123-16.902 4.722" stroke="#1B1B20" stroke-width="25" stroke-linecap="round" stroke-linejoin="round"/><path d="M118.077 289.91c.57 6.226 1.746 14.98 3.976 24.465 1.87 7.955 3.859 14.194 5.407 18.037" stroke="#1B1B20" stroke-width="25" stroke-linecap="round" stroke-linejoin="round"/><path d="M55.362 310.637c1.18.025 2.381-.901 2.411-2.327.025-1.188-.894-2.396-2.31-2.427-1.181-.025-2.382.901-2.412 2.327a3.045 3.045 0 002.31 2.427zM33.362 338.637c1.18.025 2.381-.9 2.411-2.326.025-1.189-.894-2.397-2.31-2.428-1.181-.025-2.382.901-2.412 2.327-.025 1.189.894 2.397 2.31 2.427zM30.43 240.845c1.181.026 2.382-.9 2.412-2.326.025-1.189-.894-2.397-2.31-2.428-1.181-.025-2.382.901-2.412 2.327-.026 1.189.899 2.16 2.31 2.427zM61.362 127.637c1.18.025 2.381-.901 2.411-2.327.025-1.188-.894-2.397-2.31-2.427-1.181-.025-2.382.901-2.412 2.327.206 1.431 1.13 2.402 2.31 2.427zM58.474 300.034c.236.005.714-.223.72-.461.004-.239-.222-.72-.459-.725-.236-.005-.714.223-.72.461-.005.238-.015.715.459.725zM33.015 86.925c.236.005.714-.222.72-.46.004-.239-.222-.72-.459-.725-.236-.005-.714.223-.72.461-.004.238.222.72.459.725zM22.092 111.896c.236.005.715-.223.72-.461.005-.238-.222-.719-.458-.724-.237-.005-.715.223-.72.461-.005.238-.015.714.458.724zM34.473 258.033c.237.005.715-.223.72-.461.005-.238-.222-.719-.458-.724-.236-.005-.714.223-.72.461-.005.238-.015.714.458.724zM125.834 196.836c1.653.035 3.094-1.124 3.13-2.787.035-1.664-1.115-3.115-2.768-3.151-1.653-.035-3.095 1.124-3.13 2.788-.035 1.663 1.115 3.114 2.768 3.15zM158.813 3.26c.708.016 1.19-.45 1.205-1.163.015-.713-.447-1.198-1.155-1.213-.708-.015-1.19.45-1.206 1.163-.015.713.447 1.199 1.156 1.214zM43.18 298.235c.71.015 1.191-.45 1.206-1.163.016-.713-.447-1.199-1.155-1.214-.708-.015-1.19.451-1.205 1.164-.016.713.447 1.198 1.155 1.213zM28.806 129.398c.709.015 1.19-.45 1.206-1.163.015-.713-.447-1.199-1.155-1.214-.709-.015-1.19.451-1.206 1.164-.015.713.447 1.198 1.155 1.213zM-7.76 260.364c.708.015 1.19-.45 1.206-1.163.015-.713-.447-1.198-1.156-1.214-.708-.015-1.19.451-1.206 1.164-.015.713.447 1.198 1.156 1.213zM79.376 366.041c3.542.075 6.672-2.712 6.748-6.277.075-3.565-2.456-6.71-6.234-6.79-3.542-.076-6.672 2.712-6.748 6.277.16 3.57 2.692 6.715 6.234 6.79zM47.542 381.039c1.889.04 3.572-1.351 3.617-3.49.04-1.901-1.34-3.595-3.465-3.64-1.89-.041-3.572 1.35-3.618 3.489.196 1.907 1.582 3.363 3.466 3.641z" fill="#1B1B20"/></svg>