<svg width="430" height="500" fill="none" xmlns="http://www.w3.org/2000/svg"><path d="M307.486 146.276c-6.071 9.289-10.582 18.004-17.034 33.621-5.411 13.096-7.719 21.715-9.008 28.737" stroke="#1B1B20" stroke-width="35" stroke-linecap="round" stroke-linejoin="round"/><path d="M258.614 160.173c9.494 5.001 23.189 11.494 38.924 17.154 13.195 4.746 24.032 7.719 31.01 9.084" stroke="#1B1B20" stroke-width="35" stroke-linecap="round" stroke-linejoin="round"/><path d="M324.361 399.753c1.181.026 2.382-.9 2.412-2.326.025-1.189-.894-2.397-2.311-2.427-1.18-.025-2.381.9-2.412 2.326a3.043 3.043 0 002.311 2.427zM302.361 427.754c1.181.025 2.382-.901 2.412-2.327.025-1.188-.894-2.397-2.311-2.427-1.181-.025-2.381.9-2.412 2.327-.025 1.188.894 2.397 2.311 2.427zM145.738 480.242c1.181.025 2.382-.9 2.412-2.326.025-1.189-.894-2.397-2.311-2.427-1.18-.025-2.381.9-2.411 2.326-.025 1.189.894 2.397 2.31 2.427zM299.43 329.962c1.181.025 2.381-.901 2.412-2.327.025-1.188-.894-2.397-2.311-2.427-1.181-.025-2.381.901-2.412 2.327-.025 1.188.899 2.159 2.311 2.427zM244.654 339.735c1.181.025 2.381-.901 2.412-2.328.025-1.188-.894-2.397-2.311-2.427-1.18-.025-2.381.901-2.411 2.327.211 1.194 1.13 2.403 2.31 2.428zM106.002 394.809c1.181.025 2.382-.901 2.412-2.327.025-1.188-.894-2.397-2.311-2.427-1.18-.025-2.381.901-2.412 2.327-.03 1.426 1.131 2.402 2.311 2.427zM220.121 499.767c1.181.025 2.382-.9 2.412-2.326.025-1.189-.894-2.397-2.311-2.427-1.18-.025-2.381.9-2.411 2.326-.025 1.189 1.135 2.164 2.31 2.427zM330.361 126.753c1.181.025 2.382-.9 2.412-2.326.025-1.189-.894-2.397-2.311-2.427-1.181-.025-2.381.9-2.412 2.326.206 1.431 1.131 2.402 2.311 2.427zM226.797 268.496c1.18.025 2.381-.901 2.411-2.327.026-1.188-.894-2.397-2.31-2.427-1.181-.025-2.382.901-2.412 2.327-.025 1.188.894 2.397 2.311 2.427zM228.645 92.564c.447 1.198.899 2.159 1.823 3.13.457.723 1.392 1.218 2.085 1.946.462.486 1.17.5 1.884.278.236.005.477-.227.713-.222l.472.01c.709.015 1.186-.213 1.668-.678 1.92-1.386 4.075-2.767 5.532-4.639.729-.935.99-2.119.779-3.312-.211-1.194-.663-2.154-1.356-2.883-.462-.485-1.155-1.213-1.623-1.46l-1.401-.744c-1.402-.743-3.044-1.253-4.461-1.284-.472-.01-1.181-.025-1.658.203-.713.223-1.191.45-1.673.916-.719.46-1.447 1.396-1.939 2.336-.498 1.179-.995 2.357-1.026 3.783-.015.713-.035 1.664.181 2.62zm4.562-3.47c.005-.238.246-.47.256-.946.005-.238.241-.233.246-.47.005-.238.242-.233.478-.228l.236.005.236.005.708.015c.467.248.94.258 1.407.506.467.247.929.733 1.632.985l.463.486s-.005.237.231.243l-.242.232c-1.205 1.164-2.642 2.084-4.084 3.242l-.924-.97c-.232-.243-.227-.48-.458-.723-.226-.48-.221-.719-.21-1.194l.025-1.188zM212.806 404.688c.236.005.714-.223.719-.461.006-.238-.221-.719-.458-.724-.236-.005-.714.223-.719.461-.005.238-.016.714.458.724zM211.696 378.987c.236.005.715-.223.72-.461.005-.238-.222-.719-.458-.724-.237-.005-.715.223-.72.461-.005.238.221.719.458.724zM217.19 376.25c.236.005.714-.223.719-.461.005-.238-.221-.72-.458-.725-.236-.005-.714.223-.719.461-.005.239.221.72.458.725zM209.85 354.689c.237.005.715-.223.72-.461.005-.238-.221-.719-.458-.724-.236-.005-.714.223-.719.461-.005.238.221.719.457.724zM327.473 389.15c.237.005.715-.223.72-.461.005-.238-.222-.719-.458-.724-.237-.005-.715.223-.72.461-.005.238-.015.714.458.724zM302.014 86.042c.237.005.715-.223.72-.461.005-.238-.221-.72-.458-.724-.236-.005-.715.223-.72.46-.005.239.222.72.458.725zM291.091 111.013c.237.005.715-.223.72-.461.005-.238-.221-.719-.458-.724-.236-.005-.714.223-.719.461-.005.238-.016.714.457.724zM303.473 347.15c.236.005.714-.223.719-.461.005-.238-.221-.719-.458-.724-.236-.005-.714.223-.719.461-.005.238-.015.714.458.724zM39.293 410.98c.237.005.715-.223.72-.461.005-.238-.221-.719-.458-.724-.236-.005-.715.223-.72.461-.005.238.222.719.458.724zM1.206 413.499c.237.005.715-.223.72-.462.005-.238-.222-.719-.458-.724-.237-.005-.715.223-.72.461-.005.238-.015.715.458.725zM2.327 405.205c.237.005.715-.224.72-.462.005-.238-.222-.719-.458-.724-.237-.005-.715.223-.72.461-.005.238.222.72.458.725zM12.465 417.305c.236.005.715-.223.72-.461.005-.238-.222-.719-.458-.724-.237-.006-.715.223-.72.461-.005.238-.015.714.458.724zM15.192 433.533c.237.005.715-.223.72-.461.005-.238-.221-.72-.458-.725-.236-.005-.714.223-.72.462-.005.238.222.719.458.724zM394.833 285.952c1.653.035 3.095-1.123 3.13-2.787.036-1.664-1.115-3.115-2.767-3.15-1.653-.035-3.095 1.123-3.13 2.787-.036 1.664 1.114 3.115 2.767 3.15zM184.577 410.035c.709.015 1.191-.451 1.206-1.164.015-.713-.447-1.198-1.155-1.213-.709-.015-1.191.45-1.206 1.163-.015.713.683 1.204 1.155 1.214zM187.649 398.921c.708.015 1.191-.451 1.206-1.164.015-.713-.447-1.198-1.155-1.213-.709-.015-1.191.45-1.206 1.163-.015.713.683 1.203 1.155 1.214zM427.812 2.377c.708.015 1.191-.45 1.206-1.163.015-.713-.447-1.199-1.155-1.214-.709-.015-1.191.45-1.206 1.164-.015.713.447 1.198 1.155 1.213zM312.18 387.352c.709.015 1.191-.451 1.206-1.164.015-.713-.447-1.198-1.155-1.213-.708-.015-1.191.45-1.206 1.163-.015.713.447 1.198 1.155 1.214zM297.806 128.515c.708.015 1.19-.451 1.206-1.164.015-.713-.447-1.198-1.156-1.213-.708-.015-1.19.45-1.205 1.163-.015.713.447 1.199 1.155 1.214zM261.239 259.481c.709.015 1.191-.451 1.206-1.164.015-.713-.447-1.198-1.155-1.213-.709-.015-1.191.45-1.206 1.163-.015.713.447 1.199 1.155 1.214zM348.375 455.158c3.542.075 6.672-2.712 6.748-6.277.076-3.566-2.456-6.711-6.234-6.791-3.542-.075-6.672 2.712-6.748 6.277.161 3.57 2.692 6.715 6.234 6.791zM316.542 470.155c1.888.04 3.572-1.35 3.617-3.49.04-1.901-1.341-3.595-3.466-3.64-1.889-.04-3.572 1.351-3.617 3.49.195 1.906 1.582 3.363 3.466 3.64z" fill="#1B1B20"/></svg>