<svg width="96" height="96" fill="none" xmlns="http://www.w3.org/2000/svg"><path d="M28.914 52.791c-1.045 8.045-5.923 27.253-6.968 28.074-1.336 0 1.372 4.857 5.224 5.462 6.799 1.068 12.754 4.034 29.713 2.729 18.498-1.424 27.357-6.327 24.047-9.61-3.31-3.284-5.85-6.133-7.94-12.372-2.091-6.238 4.354-18.387-2.962-30.372-7.317-11.984-26.829-6.895-32.752-4.432-5.923 2.462-7.317 12.477-8.362 20.521z" fill="#FFD000"/><path d="M20.692 66.903c-.284 3.886-4.627 9.685-3.37 11.971 1.258 2.286 13.844 5.074 27.498 6.004 13.655.929 28.45-2.625 31.109-4.88 2.66-2.255-2.045-5.288-4.172-7.89-2.128-2.603-2.837-22.728-2.483-28.8.355-6.072-6.028-16.829-20.745-17.35-14.717-.52-19.118 6.86-22.143 12.055-3.026 5.196-5.34 24.032-5.694 28.89z" stroke="#1B1B20" stroke-width="3" stroke-miterlimit="10" stroke-linecap="round" stroke-linejoin="round"/><path d="M51.27 25.933c1.067-.654 8.69-9.333 8.062-13.738-.628-4.404-3.575-6.177-9.37-4.27-5.796 1.907-5.946 8.675-5.946 8.675-4.494-3.624-8.776-7.045-12.176-3.624-3.4 3.421-1.118 5.238 8.622 12.957M54.558 48.166c-.887-1.561-3.724-4.546-7.979-3.99-5.32.694-6.56 3.47-6.56 5.551 0 2.082 1.463 5.611 7.065 5.708 5.602.096 9.247 3.314 8.36 6.61-.886 3.297-6.737 4.338-8.865 4.338s-7.64 0-8.88-4.338M46.867 38.093v4.684M46.185 66.383v4.684" stroke="#1B1B20" stroke-width="3" stroke-miterlimit="10" stroke-linecap="round" stroke-linejoin="round"/><path d="M71.73 28.292l6.276-6.132M74.642 34.545l3.766-1.549M66.386 23.239l1.476-3.117" stroke="#1B1B20" stroke-width="3" stroke-linecap="round" stroke-linejoin="round"/></svg>