<svg width="401" height="361" fill="none" xmlns="http://www.w3.org/2000/svg"><g clip-path="url(#clip0)"><path d="M377.635 258.607c-1.097-15.655-7.946-30.914-18.838-42.387-4.937-5.571-10.716-10.283-16.495-14.995-7.138-5.72-15.285-10.068-23.764-13.391l-4.578-1.488c-3.726-.645-7.453-1.289-10.671-1.769-4.911-.463-9.988-.414-14.89.826-7.27 1.603-14.197 3.884-20.44 7.521-12.32 6.761-22.255 16.564-30.322 27.54-8.4 12.002-13.573 26.185-15.528 40.849-.973 8.183-.762 16.184.633 24.004.35 2.38 1.043 5.438 1.903 7.984 2.578 7.637 5.998 14.416 11.278 20.665 4.937 5.571 11.733 10.613 18.354 14.465 6.112 3.687 12.557 6.349 18.494 8.845 4.919 2.166 9.663 3.142 15.082 3.77 7.963 1.455 16.425 1.373 24.027-1.255 10.137-3.505 18.572-8.696 26.832-15.077 6.086-1.421 10.128-5.206 13.995-10.182 3.867-4.976 7.901-10.464 11.767-15.44 4.2-6.001 8.058-12.679 10.391-19.854 2.165-6.662 3.314-13.655 2.77-20.631zm-49.045 7.289c-2.183 3.257-4.533 7.025-6.716 10.282-.842.859-2.026 1.041-2.867 1.901-3.876 3.273-7.919 7.059-12.303 10.166-2.701 1.389-5.568 3.29-8.102 4.166l-.509-.166c-1.183.182-2.709-.314-3.893-.132-3.56-1.157-7.121-2.314-10.514-3.984-3.903-1.835-7.638-4.183-11.207-7.043-.509-.166-.851-.843-1.193-1.521l-.684-1.355c-.351-2.381-.868-4.249-1.219-6.63.158-2.215.482-4.942.64-7.158 1.166-3.587 1.824-7.34 3.665-11.274l7.049-11.307 7.077-6.199c2.7-1.388 4.893-2.943 7.427-3.819.675-.347 1.183-.182 1.859-.529.508.166 1.183-.181 1.692-.016l6.612 2.149c4.244 2.513 7.813 5.373 11.891 8.398 3.403 3.373 6.805 6.746 9.532 10.465 1.193 1.521 1.71 3.389 2.394 4.745.342.677.518 1.868.86 2.546l-.333 1.025c-.325 2.728-.824 4.265-1.158 5.29zm1.149-6.993c-.176-1.19-.009-1.703-.184-2.893.175 1.19.35 2.38.184 2.893zm-34.665-26.567c-1.184.182-1.692.016-2.876.198 1.184-.182 2.201.149 2.876-.198zm-1.517 1.206c-1.184.182-2.025 1.042-3.209 1.224.842-.86 2.025-1.042 3.209-1.224z" fill="#3B3B43"/><path d="M361.369 247.027c.137.466.319.932.591 1.313.5.975 1.27 1.82 2.308 2.41.814.464 1.626.843 2.439 1.264.813.421 1.581.885 2.394 1.306 1.671.927 3.432 1.769 5.058 2.738 1.491.843 3.07 1.473 4.561 2.231 1.038.505 2.032 1.053 3.115 1.515 1.038.463 2.122.883 3.16 1.303a49.38 49.38 0 002.257.925c.993.42 2.031.798 3.068 1.091 1.399.419 2.977.539 4.417.109 1.26-.388 2.519-1.03 3.416-1.967 1.167-1.194 1.524-1.917 2.104-3.405.401-.978.488-1.955.618-3.017.132-.85.128-1.699.035-2.59-.14-1.103-.28-2.206-.51-3.267-.23-1.187-.505-2.375-.735-3.52-.001-.17-.047-.34-.048-.509-.047-.637-.14-1.273-.233-1.91-.14-1.145-.325-2.248-.645-3.351a18.957 18.957 0 01-.597-2.672c-.278-1.782-.6-3.521-1.058-5.26l-.686-2.289a11.267 11.267 0 00-1.137-2.5c-.771-1.186-1.675-2.073-2.94-2.832-1.31-.759-2.663-1.051-4.151-1.087-1.577-.036-2.972.437-4.321 1.122-1.349.642-2.562 1.539-3.73 2.435-.898.683-1.706 1.493-2.559 2.219-.449.384-.943.81-1.437 1.194-.404.342-.808.725-1.257 1.067a29.18 29.18 0 01-3.101 2.008c-.719.428-1.483.855-2.203 1.283a14.13 14.13 0 00-2.021 1.579c-.134.128-.224.256-.359.341-.359.256-.674.47-.943.768a5.339 5.339 0 01-.718.683c-.494.341-.988.768-1.347 1.236-.582.724-1.165 1.406-1.613 2.215-.134.212-.223.425-.357.638a5.798 5.798 0 00-.803 2.041c-.001-.127.044-.212.044-.34-.133.68-.266 1.232-.352 2.039.137.467.184.934.276 1.443zm25.968 3.075c-1.174-.504-2.213-1.137-3.341-1.641-2.89-1.347-5.69-2.821-8.49-4.338.09-.085.18-.17.27-.213.089-.085.179-.171.269-.213l2.023-1.155a27.508 27.508 0 002.337-1.538c1.123-.812 2.246-1.623 3.324-2.476.718-.598 1.437-1.153 2.111-1.75a3.89 3.89 0 01.449-.384l.137.509c.368 1.739.555 3.521 1.013 5.26.184.763.412 1.527.551 2.333 0 .042 0 .127.045.169.186 1.4.237 2.759.558 4.116.138.679.321 1.357.459 2.036-.631-.252-1.173-.505-1.715-.715z" fill="#fff"/><path d="M240.131 256.808c12.09 24.826-8.552 47.229-27.084 55.658-27.711 12.604-72.474 5.448-99.981-30.35-35.063-45.633-19.049-101.611 12.926-112.639 31.975-11.027 54.298 9.926 57.623 37.886 4.666 39.238 41.975 19.588 56.516 49.445z" stroke="#fff" stroke-width="4"/><path d="M31.078 11.467c-1.144.319-2.032 1.558-1.647 2.938.32 1.15 1.556 2.045 2.929 1.663 1.144-.319 2.032-1.558 1.647-2.938a3.06 3.06 0 00-2.93-1.663zM98.52 93.543c-1.144.319-2.031 1.558-1.647 2.938.32 1.15 1.556 2.045 2.93 1.663 1.143-.319 2.031-1.558 1.646-2.938-.32-1.15-1.556-2.045-2.929-1.663zM131.547 50.129c-1.144.318-2.032 1.557-1.647 2.938.32 1.15 1.556 2.045 2.929 1.663 1.144-.319 2.032-1.557 1.647-2.938-.32-1.15-1.492-1.816-2.929-1.663zM181.454 24.828c-1.144.318-2.032 1.557-1.647 2.938.321 1.15 1.556 2.046 2.929 1.664 1.144-.319 2.031-1.558 1.647-2.938-.55-1.087-1.785-1.983-2.929-1.664zM170.365 140.16c-1.144.318-2.032 1.557-1.647 2.937.321 1.15 1.556 2.046 2.929 1.663 1.144-.318 2.031-1.557 1.647-2.937-.321-1.15-1.721-1.752-2.929-1.663zM28.492 356.235c-1.144.319-2.031 1.557-1.647 2.938.32 1.15 1.557 2.045 2.93 1.663 1.144-.319 2.031-1.558 1.647-2.938-.55-1.086-1.785-1.982-2.93-1.663zM219.322 88.156c-1.145.319-2.032 1.558-1.647 2.938.32 1.15 1.556 2.046 2.929 1.663 1.144-.318 2.032-1.557 1.647-2.938-.321-1.15-1.557-2.045-2.929-1.663zM266.752 217.938c-.778-1.023-1.492-1.816-2.664-2.481-.65-.563-1.693-.768-2.572-1.267-.586-.333-1.272-.142-1.895.28-.228.063-.393.357-.622.421l-.458.127c-.686.191-1.08.549-1.409 1.136-1.446 1.891-3.12 3.844-3.98 6.067-.43 1.112-.339 2.326.211 3.412.549 1.087 1.263 1.88 2.142 2.379.586.332 1.465.831 1.986.934l1.566.308c1.565.307 3.295.321 4.668-.061.457-.127 1.144-.318 1.537-.676.623-.421 1.016-.779 1.346-1.366.558-.652.988-1.763 1.189-2.811.137-1.278.274-2.555-.111-3.936-.192-.69-.448-1.61-.934-2.466zm-3.385 4.661c.064.23-.101.524.027.984.064.23-.165.294-.1.524.064.23-.165.294-.394.358l-.229.063-.229.064-.686.191c-.522-.102-.979.025-1.501-.078-.522-.102-1.108-.435-1.858-.474l-.586-.332s-.064-.23-.293-.167l.165-.293c.823-1.469 1.94-2.772 2.992-4.305l1.172.666c.293.166.357.396.65.562.357.397.421.627.549 1.087l.321 1.15zM164.152 212.545c-.229.064-.623.422-.559.652.064.23.422.627.651.563.229-.064.623-.422.559-.652-.064-.23-.193-.691-.651-.563zM178.654 242.47c-.229.064-.623.422-.559.652.064.231.422.627.651.564.229-.064.623-.422.559-.652-.064-.231-.422-.627-.651-.564zM197.998 245.509c-.229.064-.623.422-.558.652.064.231.421.627.65.564.229-.064.623-.422.559-.652-.064-.231-.422-.627-.651-.564zM201.27 218.323c-.229.064-.623.422-.559.652.064.23.422.627.651.563.229-.064.623-.421.559-.652-.065-.23-.193-.69-.651-.563zM179.946 226.744c-.229.064-.623.422-.559.652.065.23.422.627.651.563.229-.064.623-.422.559-.652-.065-.23-.193-.691-.651-.563zM51.619 18.864c-1.602.446-2.654 1.979-2.205 3.59.449 1.61 1.977 2.671 3.579 2.225 1.602-.446 2.654-1.978 2.205-3.589-.449-1.61-1.977-2.672-3.58-2.226zM95.611 242.624c-.686.191-1.015.778-.823 1.468.192.691.778 1.023 1.464.832.687-.191 1.016-.779.824-1.469-.193-.69-.778-1.023-1.465-.831zM152.008 219.4c-.686.191-1.015.779-.823 1.469.192.69.778 1.023 1.464.832.687-.192 1.016-.779.824-1.469-.193-.69-.778-1.023-1.465-.832zM189.727 203.439c-.687.191-1.016.778-.823 1.468.192.691.778 1.023 1.464.832.686-.191 1.016-.779.823-1.469-.192-.69-.778-1.023-1.464-.831zM188.772 106.829c-.687.191-1.016.778-.824 1.469.192.69.778 1.022 1.465.831.686-.191 1.015-.779.823-1.469-.192-.69-.778-1.023-1.464-.831zM22.785 29.587c-3.432.955-5.638 4.545-4.676 7.996.962 3.45 4.312 5.74 7.973 4.72 3.433-.956 5.638-4.545 4.676-7.996-1.19-3.387-4.54-5.676-7.973-4.72zM123.103 305.47c-1.831.509-3.048 2.336-2.471 4.406.513 1.841 2.335 3.069 4.394 2.495 1.831-.51 3.048-2.336 2.471-4.407-.742-1.776-2.564-3.004-4.394-2.494zM5.786 78.124c-1.83.51-3.047 2.336-2.47 4.406.513 1.84 2.334 3.069 4.394 2.495 1.83-.51 3.047-2.336 2.47-4.407-.742-1.776-2.5-2.774-4.394-2.494z" fill="#fff"/></g><defs><clipPath id="clip0"><path fill="#fff" d="M0 0h401v361H0z"/></clipPath></defs></svg>