<svg width="760" height="385" fill="none" xmlns="http://www.w3.org/2000/svg"><path d="M279.424 70.511c-.668-9.526-4.836-18.81-11.463-25.792-3.004-3.39-6.521-6.257-10.037-9.124-4.344-3.48-9.301-6.127-14.461-8.149l-2.785-.905c-2.268-.392-4.536-.785-6.494-1.076-2.988-.282-6.078-.252-9.06.502-4.424.976-8.639 2.364-12.438 4.577-7.497 4.114-13.542 10.079-18.451 16.758-5.111 7.303-8.259 15.934-9.448 24.856-.592 4.98-.464 9.848.384 14.606a30.03 30.03 0 001.159 4.859c1.568 4.647 3.65 8.772 6.862 12.574 3.004 3.39 7.14 6.459 11.168 8.802 3.72 2.244 7.641 3.864 11.254 5.383 2.993 1.317 5.88 1.911 9.178 2.294 4.845.885 9.994.835 14.62-.764 6.168-2.133 11.301-5.291 16.327-9.174 3.703-.865 6.163-3.168 8.516-6.196 2.353-3.028 4.807-6.368 7.16-9.395 2.556-3.652 4.904-7.716 6.323-12.081 1.318-4.054 2.017-8.31 1.686-12.555zm-29.844 4.436c-1.328 1.982-2.758 4.275-4.087 6.257-.512.523-1.232.633-1.745 1.156-2.358 1.992-4.818 4.295-7.486 6.186-1.643.845-3.388 2.002-4.93 2.535l-.309-.1c-.721.11-1.649-.191-2.369-.08-2.167-.705-4.333-1.41-6.398-2.425-2.375-1.117-4.648-2.546-6.82-4.286-.309-.1-.517-.513-.725-.925l-.417-.825c-.213-1.449-.528-2.586-.741-4.034.096-1.348.293-3.008.389-4.356.709-2.182 1.11-4.466 2.23-6.86l4.29-6.88 4.306-3.772c1.643-.845 2.977-1.791 4.519-2.324.411-.212.72-.11 1.131-.322.31.1.72-.11 1.03-.01l4.023 1.308c2.583 1.529 4.755 3.27 7.236 5.11 2.07 2.052 4.141 4.105 5.8 6.368.726.925 1.041 2.062 1.457 2.887.208.412.315 1.137.523 1.55l-.203.623c-.197 1.66-.501 2.595-.704 3.219zm.699-4.255c-.107-.724-.005-1.036-.112-1.76.107.724.213 1.448.112 1.76zm-21.093-16.166c-.721.11-1.03.01-1.751.12.721-.11 1.34.091 1.751-.12zm-.924.734c-.72.11-1.232.634-1.952.744.512-.523 1.232-.633 1.952-.744z" fill="#29292F"/><path d="M309.159 381.161c59.334-26.834 92.301-108.7 95.501-183.5 4-93.5-44.5-167.5-110.5-145.5s-63.247 130.699-100.501 181.5c-55.001 75-193 48.5-187.5-19.5M251.665 7.651c-4.47-3.043-9.653-3.585-15.719-1.006-6.074 2.583-10.606 8.7-11.636 14.196-1.231 6.572 2.383 13.09 8.55 16.386 6.166 3.296 22.583 6.67 26.963-6.042 3.436-9.972-1.474-18.981-8.158-23.533z" stroke="#fff" stroke-width="4"/><path d="M400.629 331.796c.211 1.169 1.362 2.169 2.772 1.914 1.175-.212 2.182-1.359 1.929-2.761-.211-1.169-1.361-2.168-2.771-1.914a3.062 3.062 0 00-1.93 2.761zM488.637 272.302c.211 1.169 1.362 2.168 2.772 1.914 1.175-.212 2.181-1.359 1.929-2.761-.211-1.169-1.361-2.168-2.772-1.914-1.175.212-2.181 1.359-1.929 2.761zM448.492 235.371c.211 1.168 1.362 2.168 2.772 1.913 1.175-.211 2.182-1.358 1.929-2.761-.21-1.169-1.361-2.168-2.771-1.914-1.176.212-1.947 1.317-1.93 2.762zM427.956 183.322c.21 1.169 1.361 2.168 2.772 1.913 1.175-.212 2.182-1.359 1.929-2.761-.21-1.169-1.361-2.168-2.772-1.913-1.133.445-2.14 1.592-1.929 2.761zM541.751 205.118c.21 1.169 1.361 2.168 2.771 1.914 1.175-.212 2.182-1.359 1.929-2.761-.21-1.169-1.361-2.168-2.771-1.914-1.175.212-1.905 1.55-1.929 2.761zM743.654 366.523c.21 1.169 1.361 2.168 2.771 1.914 1.175-.212 2.182-1.359 1.929-2.762-.21-1.168-1.361-2.168-2.771-1.913-1.133.445-2.14 1.592-1.929 2.761zM494.54 151.525c.21 1.169 1.361 2.168 2.771 1.914 1.175-.212 2.182-1.359 1.929-2.762-.21-1.169-1.361-2.168-2.771-1.914-1.175.212-2.182 1.359-1.929 2.762zM628.179 116.404c-1.091.679-1.947 1.316-2.719 2.421-.621.595-.922 1.614-1.501 2.443-.386.552-.26 1.253.102 1.912.042.234.319.426.361.659l.084.468c.127.701.446 1.126 1 1.509 1.747 1.616 3.536 3.465 5.669 4.529 1.067.532 2.284.553 3.417.108 1.133-.446 1.989-1.083 2.568-1.911.386-.553.965-1.381 1.115-1.891l.453-1.53c.452-1.529.628-3.25.375-4.653-.084-.467-.211-1.169-.53-1.594-.361-.659-.681-1.084-1.235-1.467-.596-.616-1.663-1.148-2.687-1.446-1.26-.256-2.519-.511-3.929-.257-.705.127-1.645.297-2.543.7zm4.325 3.806c.235-.043.512.149.983.064.235-.042.277.191.512.149.235-.042.277.191.319.425l.042.234.042.234.127.701c-.151.51-.067.977-.218 1.487-.151.51-.536 1.062-.645 1.806l-.386.552s-.235.043-.193.276l-.277-.191c-1.386-.957-2.579-2.19-4.006-3.381l.771-1.104c.193-.276.428-.319.621-.595.428-.318.663-.361 1.133-.445l1.175-.212zM613.241 218.054c.042.234.362.66.597.618.235-.043.664-.362.622-.596-.042-.234-.362-.659-.597-.617-.236.042-.706.127-.622.595zM644.389 206.406c.042.234.361.66.597.617.235-.042.663-.361.621-.595-.042-.234-.361-.66-.597-.617-.235.042-.663.361-.621.595zM649.219 187.43c.042.234.361.659.597.617.235-.043.663-.362.621-.596-.042-.234-.362-.659-.597-.617-.235.043-.664.362-.621.596zM622.456 181.637c.042.234.362.659.597.617.235-.042.663-.361.621-.595-.042-.234-.362-.66-.597-.617-.235.042-.705.127-.621.595zM628.851 203.653c.042.234.362.66.597.617.235-.042.664-.361.621-.595-.042-.234-.361-.659-.596-.617-.236.042-.706.127-.622.595zM409.91 312.035c.295 1.636 1.723 2.826 3.368 2.53 1.645-.297 2.845-1.72 2.55-3.356-.295-1.636-1.723-2.827-3.368-2.53-1.645.296-2.845 1.719-2.55 3.356zM636.797 289.101c.126.702.68 1.084 1.386.957.705-.127 1.09-.679.964-1.38-.126-.702-.68-1.084-1.386-.957-.705.127-1.09.679-.964 1.38zM618.934 230.784c.126.701.681 1.084 1.386.957.705-.127 1.091-.679.964-1.38-.126-.702-.68-1.084-1.385-.957-.705.127-1.091.679-.965 1.38zM606.56 191.742c.126.701.68 1.083 1.385.956s1.091-.679.965-1.38c-.126-.701-.681-1.084-1.386-.957-.705.127-1.091.679-.964 1.381zM510.282 183.683c.126.701.68 1.084 1.385.957.705-.127 1.091-.679.965-1.381-.126-.701-.681-1.084-1.386-.957-.705.128-1.091.68-.964 1.381zM417.897 341.743c.631 3.506 3.999 6.037 7.525 5.401 3.525-.636 6.117-3.758 5.443-7.498-.631-3.507-3.999-6.037-7.525-5.402-3.483.87-6.075 3.992-5.443 7.499zM701.933 267.591c.337 1.87 2.042 3.252 4.157 2.871 1.88-.34 3.273-2.039 2.893-4.143-.336-1.87-2.041-3.252-4.157-2.87-1.838.572-3.23 2.272-2.893 4.142zM464.637 363.194c.337 1.87 2.042 3.252 4.157 2.87 1.88-.339 3.273-2.038 2.894-4.142-.337-1.87-2.042-3.252-4.157-2.87-1.839.573-2.996 2.229-2.894 4.142z" fill="#fff"/></svg>