<svg width="291" height="608" fill="none" xmlns="http://www.w3.org/2000/svg"><g clip-path="url(#clip0)"><path d="M191.365 322.745c1.181.025 2.382-.901 2.412-2.327.025-1.189-.894-2.397-2.311-2.427-1.18-.025-2.381.9-2.412 2.327a3.046 3.046 0 002.311 2.427zM160.365 535.597c1.181.025 2.382-.901 2.412-2.327.025-1.189-.894-2.397-2.311-2.427-1.18-.025-2.381.9-2.412 2.326-.025 1.189.894 2.397 2.311 2.428zM3.742 588.085c1.18.025 2.381-.9 2.411-2.326.026-1.189-.893-2.397-2.31-2.427-1.18-.025-2.381.9-2.412 2.326-.025 1.189.894 2.397 2.31 2.427zM157.433 437.805c1.181.025 2.382-.901 2.412-2.327.025-1.188-.894-2.397-2.311-2.427-1.18-.025-2.381.9-2.411 2.327-.025 1.188.899 2.159 2.31 2.427zM102.658 447.578c1.18.025 2.381-.901 2.411-2.328.025-1.188-.894-2.397-2.31-2.427-1.181-.025-2.381.901-2.412 2.327.211 1.194 1.13 2.402 2.311 2.428zM78.126 607.61c1.18.025 2.38-.901 2.41-2.326.026-1.189-.893-2.397-2.31-2.427-1.18-.025-2.38.9-2.41 2.326-.026 1.189 1.134 2.164 2.31 2.427zM53.365 9.597c1.18.025 2.381-.901 2.412-2.327.025-1.188-.894-2.397-2.31-2.427-1.181-.025-2.382.9-2.413 2.327.211 1.193 1.13 2.401 2.311 2.427zM188.365 234.596c1.181.025 2.382-.901 2.412-2.327.025-1.188-.894-2.396-2.311-2.426-1.181-.025-2.381.9-2.412 2.326.206 1.431 1.131 2.402 2.311 2.427zM84.8 376.339c1.181.025 2.382-.901 2.412-2.327.026-1.188-.894-2.397-2.31-2.427-1.18-.025-2.382.901-2.412 2.327-.025 1.188.894 2.397 2.31 2.427zM53.075 68.43c1.18.025 2.381-.9 2.411-2.327.026-1.188-.893-2.397-2.31-2.427-1.18-.025-2.381.9-2.412 2.327-.025 1.188.9 2.159 2.31 2.427zM86.648 200.407c.447 1.198.9 2.159 1.824 3.13.457.723 1.391 1.218 2.084 1.946.463.486 1.17.501 1.884.278.236.005.478-.227.714-.222l.472.01c.708.015 1.185-.213 1.668-.678 1.92-1.386 4.075-2.767 5.532-4.639.728-.935.99-2.119.779-3.312-.211-1.194-.663-2.154-1.356-2.883-.463-.485-1.156-1.213-1.623-1.461l-1.402-.743c-1.401-.743-3.044-1.254-4.46-1.284-.473-.01-1.181-.025-1.658.203-.714.223-1.191.45-1.673.916-.719.46-1.448 1.396-1.94 2.336-.497 1.179-.995 2.357-1.025 3.783-.015.713-.035 1.664.18 2.62zm4.562-3.47c.005-.238.247-.471.257-.946.005-.238.24-.233.246-.47.005-.238.241-.233.477-.228l.236.005.236.005.709.015c.467.248.94.258 1.406.505.468.248.93.734 1.633.986l.462.486s-.005.237.231.242l-.24.233c-1.207 1.164-2.644 2.084-4.086 3.242l-.924-.97c-.231-.243-.226-.481-.457-.723-.226-.481-.221-.719-.21-1.194l.024-1.188zM173.083 114.279c.713.015 1.195-.29 1.684-.909.489-.62.74-1.244.76-2.189.318-3.772.867-7.225 1.184-10.998.034-1.574-.883-3.168-2.309-3.199-1.426-.03-2.403 1.209-2.443 3.098-.318 3.773-.63 7.231-1.185 10.998l-.007.315c-.033 1.574 1.128 2.859 2.316 2.884z" fill="#1B1B20"/><path d="M167.152 107.745l6.139.131c.945.02 1.889.04 3.065.303.708.015 1.653.035 2.356.288l.472.01c.704.252 1.176.262 1.894-.198.478-.228.96-.693 1.211-1.401.251-.708.262-1.183-.196-1.906-.226-.481-.688-.966-1.391-1.219-.703-.253-1.412-.268-2.115-.52l-1.653-.036c-.944-.02-1.884-.277-2.828-.298l-6.376-.135c-1.18-.025-2.381.901-2.411 2.327-.503 1.416.416 2.624 1.833 2.654zM70.81 512.531c.236.005.714-.223.719-.461.005-.238-.221-.719-.458-.725-.237-.005-.715.224-.72.462-.005.238-.015.714.458.724zM69.7 486.83c.236.005.714-.223.72-.461.004-.238-.222-.719-.459-.724-.236-.005-.714.223-.72.461-.004.238.222.719.459.724zM75.193 484.093c.237.005.715-.223.72-.461.005-.239-.222-.72-.458-.725-.237-.005-.715.223-.72.461-.005.239.221.72.458.725zM67.854 462.532c.236.005.714-.223.72-.461.005-.238-.222-.719-.458-.724-.237-.005-.715.223-.72.461-.005.238.221.719.458.724zM185.477 496.993c.237.005.715-.223.72-.461.005-.238-.222-.719-.458-.724-.237-.005-.715.223-.72.461-.005.238-.015.714.458.724zM177.561 202.339c.237.005.715-.222.72-.461.005-.238-.222-.719-.458-.724-.237-.005-.715.223-.72.461-.005.238.221.719.458.724zM160.018 193.885c.236.005.715-.223.72-.461.005-.238-.222-.719-.458-.725-.237-.005-.715.224-.72.462-.005.238.221.719.458.724zM149.095 218.856c.237.005.715-.223.72-.461.005-.238-.222-.719-.458-.724-.237-.005-.715.223-.72.461-.005.237-.015.713.458.724zM209.477 312.141c.236.005.714-.223.719-.461.005-.238-.221-.719-.458-.724-.236-.005-.714.223-.719.461-.005.238-.015.714.458.724zM206.837 375.943c1.653.035 3.095-1.123 3.13-2.787.036-1.664-1.115-3.115-2.767-3.15-1.653-.035-3.095 1.123-3.13 2.787-.036 1.664 1.114 3.115 2.767 3.15zM42.581 517.877c.708.015 1.19-.45 1.206-1.163.015-.713-.447-1.198-1.155-1.213-.709-.015-1.191.45-1.206 1.163-.016.713.683 1.203 1.155 1.213zM45.652 506.763c.709.015 1.191-.45 1.206-1.163.015-.713-.447-1.198-1.155-1.213-.709-.015-1.19.45-1.206 1.163-.015.713.683 1.203 1.155 1.213zM285.816 110.22c.708.015 1.191-.45 1.206-1.163.015-.713-.447-1.199-1.155-1.214-.709-.015-1.191.45-1.206 1.163-.015.713.447 1.199 1.155 1.214zM78.184 23.194c.709.015 1.19-.45 1.206-1.163.015-.713-.447-1.198-1.155-1.213-.708-.016-1.19.45-1.206 1.163-.015.713.447 1.198 1.155 1.213zM170.184 495.194c.709.015 1.191-.45 1.206-1.163.015-.713-.447-1.198-1.155-1.214-.708-.015-1.191.451-1.206 1.164-.015.713.447 1.198 1.155 1.213zM155.809 236.358c.709.015 1.191-.451 1.206-1.164.015-.713-.447-1.198-1.155-1.213-.708-.015-1.191.45-1.206 1.163-.015.713.447 1.199 1.155 1.214zM119.243 367.324c.708.015 1.191-.451 1.206-1.164.015-.713-.447-1.198-1.155-1.213-.709-.015-1.191.45-1.206 1.163-.015.713.447 1.199 1.155 1.214zM206.379 563c3.542.076 6.672-2.711 6.748-6.277.076-3.565-2.456-6.71-6.234-6.79-3.542-.075-6.672 2.712-6.748 6.277.161 3.57 2.692 6.715 6.234 6.79zM122.18 51.352c1.888.04 3.572-1.35 3.617-3.49.04-1.901-1.341-3.595-3.466-3.64-1.889-.04-3.572 1.35-3.618 3.49.196 1.906 1.578 3.6 3.467 3.64zM174.546 577.998c1.888.04 3.571-1.351 3.617-3.49.04-1.901-1.341-3.595-3.466-3.64-1.889-.04-3.572 1.351-3.617 3.49.195 1.906 1.582 3.362 3.466 3.64z" fill="#1B1B20"/><path d="M202.205 257.876c-12.535 19.181-21.849 37.176-35.171 69.422-11.172 27.042-15.938 44.839-18.6 59.339" stroke="#DAEDFF" stroke-width="55" stroke-linecap="round" stroke-linejoin="round"/><path d="M101.295 286.573c19.602 10.325 47.881 23.733 80.37 35.419 27.246 9.8 49.622 15.939 64.031 18.758" stroke="#DAEDFF" stroke-width="55" stroke-linecap="round" stroke-linejoin="round"/><path d="M212.04 206.467c-.248-1.155-1.425-2.11-2.82-1.81-1.162.249-2.126 1.423-1.829 2.808.248 1.155 1.426 2.11 2.82 1.81a3.043 3.043 0 001.829-2.808zM257.386 248.978c-.248-1.155-1.425-2.11-2.82-1.81-1.162.249-2.126 1.422-1.829 2.808.248 1.154 1.426 2.109 2.821 1.81 1.162-.25 1.893-1.373 1.828-2.808zM166.372 220.775c1.063-.712 1.894-1.373 2.625-2.496.599-.612.865-1.635 1.414-2.478.366-.561.217-1.254-.164-1.897-.05-.231-.332-.412-.382-.643l-.099-.462c-.148-.692-.48-1.104-1.044-1.466-1.791-1.548-3.632-3.327-5.789-4.313-1.079-.493-2.29-.475-3.403.006-1.113.48-1.943 1.142-2.492 1.984-.366.562-.914 1.404-1.048 1.916l-.399 1.535c-.4 1.535-.518 3.251-.221 4.637.1.462.248 1.154.58 1.566.381.643.713 1.055 1.277 1.417.613.593 1.692 1.086 2.721 1.348 1.261.213 2.522.425 3.917.126.697-.15 1.627-.35 2.507-.78zm-4.428-3.639c-.233.05-.515-.131-.98-.031-.232.05-.282-.181-.514-.131-.233.049-.282-.182-.332-.412l-.049-.231-.05-.231-.149-.693c.134-.512.035-.973.168-1.485.133-.512.499-1.074.583-1.816l.365-.562s.233-.05.183-.281l.282.181c1.41.905 2.637 2.091 4.097 3.227l-.731 1.123c-.183.281-.416.331-.599.612-.415.331-.647.381-1.112.48l-1.162.25zM178.895 202.311c-.05-.232-.382-.644-.614-.594-.233.05-.649.381-.6.612.05.232.382.645.615.595.233-.05.649-.382.599-.613zM150.222 208.859c-.049-.231-.382-.644-.614-.594-.233.05-.649.381-.599.613.049.231.381.643.614.593.233-.05.649-.381.599-.612zM181.749 109.686c-.049-.231-.381-.643-.614-.593-.233.05-.649.381-.599.612.05.231.382.644.615.594.232-.05.698-.15.598-.613zM170.776 148.556c-.149-.692-.713-1.054-1.41-.904-.697.149-1.063.711-.914 1.403.148.693.712 1.055 1.41.905.697-.149 1.063-.711.914-1.404zM245.045 180.014c-.744-3.464-4.178-5.867-7.664-5.118-3.487.748-5.963 3.937-5.17 7.632.744 3.464 4.177 5.867 7.664 5.118 3.437-.979 5.913-4.168 5.17-7.632z" fill="#fff"/></g><defs><clipPath id="clip0"><path fill="#fff" d="M0 0h291v608H0z"/></clipPath></defs></svg>