<svg width="245" height="483" fill="none" xmlns="http://www.w3.org/2000/svg"><g clip-path="url(#clip0)"><path d="M110.768 37.356c32.49-7.043 59.724 31.401 68.732 48.807 12.511 21.749 30.721 64.75 7.851 84.33-28.587 24.475-132.946 29.792-151.17-1.889C16.44 134.283 70.155 46.161 110.768 37.356z" stroke="#4E4E58" stroke-width="55"/><path d="M110.798 240.408c-1.166.187-2.181 1.313-1.955 2.721.189 1.174 1.31 2.198 2.709 1.973 1.166-.187 2.181-1.313 1.955-2.721a3.042 3.042 0 00-2.709-1.973zM65.338 252.275c-1.166.187-2.181 1.313-1.955 2.722.188 1.173 1.31 2.197 2.709 1.973 1.166-.187 2.18-1.314 1.955-2.722-.189-1.174-1.31-2.198-2.709-1.973zM219.707 148.35c-1.165.187-2.181 1.313-1.955 2.721.189 1.174 1.31 2.197 2.709 1.973 1.166-.187 2.181-1.313 1.955-2.722-.188-1.173-1.31-2.197-2.709-1.972zM95.473 323.767c-1.166.187-2.181 1.313-1.955 2.722.188 1.173 1.31 2.197 2.709 1.973 1.166-.187 2.18-1.314 1.955-2.722-.189-1.174-1.272-1.963-2.709-1.973zM143.028 142.487c-1.166.187-2.181 1.313-1.955 2.722.188 1.173 1.309 2.197 2.708 1.973 1.166-.188 2.181-1.314 1.955-2.722-.188-1.173-1.505-1.925-2.708-1.973zM97.298 420.355c-1.166.187-2.181 1.313-1.955 2.721.188 1.174 1.31 2.198 2.708 1.973 1.166-.187 2.182-1.313 1.955-2.721-.459-1.371-1.542-2.16-2.708-1.973zM214.878 79.683c-1.166.188-2.181 1.314-1.955 2.722.188 1.174 1.31 2.198 2.709 1.973 1.166-.187 2.181-1.313 1.955-2.721-.189-1.174-1.31-2.198-2.709-1.974zM244.626 253.092c-.655-1.098-1.272-1.963-2.355-2.752-.58-.629-1.588-.949-2.401-1.541-.541-.394-1.241-.282-1.903.065-.233.037-.428.31-.662.347l-.466.075c-.7.112-1.128.422-1.519.966-1.64 1.708-3.512 3.453-4.61 5.556-.549 1.051-.594 2.262-.172 3.398.422 1.136 1.039 2.001 1.851 2.592.542.395 1.355.987 1.859 1.147l1.512.479c1.512.48 3.22.688 4.619.463.466-.075 1.166-.187 1.594-.497.662-.347 1.091-.656 1.482-1.201.624-.581 1.173-1.633 1.489-2.647.278-1.248.556-2.497.33-3.905-.114-.704-.264-1.643-.648-2.545zm-3.865 4.233c.037.234-.158.506-.083.976.038.235-.195.272-.158.507.038.235-.195.272-.429.309l-.233.038-.233.037-.699.113c-.504-.16-.971-.085-1.475-.245-.504-.16-1.046-.555-1.783-.677l-.542-.395s-.037-.235-.271-.197l.196-.272c.978-1.361 2.226-2.525 3.437-3.923l1.083.789c.271.198.309.432.58.63.308.432.346.667.421 1.136l.189 1.174zM88.502 74.798c-.704.113-1.123.499-1.493 1.196-.37.697-.504 1.357-.354 2.29.364 3.768.443 7.263.808 11.032.25 1.554 1.437 2.958 2.846 2.732 1.408-.226 2.147-1.62 1.847-3.486-.364-3.768-.678-7.226-.808-11.032l-.05-.31c-.249-1.555-1.622-2.61-2.796-2.422z" fill="#fff"/><path d="M95.51 80.161l-6.063.973c-.933.15-1.865.3-3.069.252-.7.112-1.632.262-2.37.14l-.466.074c-.737-.122-1.204-.047-1.828.535-.428.31-.82.853-.94 1.595s-.044 1.211.535 1.84c.308.433.85.827 1.587.95.738.122 1.437.01 2.174.132l1.633-.262c.932-.15 1.903-.064 2.836-.214l6.296-1.01c1.166-.188 2.181-1.314 1.955-2.722.24-1.484-.88-2.508-2.28-2.283zM143.852 236.279c-.234.037-.663.347-.625.583.037.235.347.667.58.63.234-.038.663-.348.626-.583-.038-.235-.114-.705-.581-.63zM154.842 267.503c-.234.037-.663.347-.626.582.038.235.347.668.581.631.234-.038.663-.348.625-.583-.037-.235-.347-.668-.58-.63zM173.617 272.672c-.233.038-.663.348-.625.583.038.235.347.668.58.63.234-.037.663-.347.626-.582-.038-.235-.347-.668-.581-.631zM179.882 246.147c-.233.038-.662.348-.625.583.038.235.347.667.581.63.233-.038.663-.348.625-.583-.038-.235-.113-.705-.581-.63zM157.875 252.09c-.234.037-.663.347-.625.583.038.235.347.667.58.63.234-.038.663-.348.625-.583-.038-.235-.113-.705-.58-.63zM98.28 274.197c-1.632.262-2.842 1.66-2.579 3.304.264 1.643 1.656 2.864 3.289 2.602 1.632-.262 2.842-1.66 2.579-3.303-.264-1.644-1.656-2.865-3.288-2.603zM64.871 377.55c-.699.113-1.09.657-.977 1.361.113.704.655 1.099 1.354.987.7-.113 1.09-.657.978-1.361-.113-.704-.655-1.099-1.355-.987zM131.092 241.699c-.699.112-1.09.656-.977 1.361.113.704.655 1.098 1.354.986.7-.112 1.091-.656.978-1.361-.114-.704-.655-1.098-1.355-.986zM170.137 230.134c-.7.112-1.091.656-.978 1.361.113.704.655 1.098 1.355.986.699-.112 1.09-.656.977-1.361-.113-.704-.655-1.098-1.354-.986zM182.612 94.732c-.7.112-1.091.657-.978 1.361.113.704.655 1.099 1.355.986.699-.112 1.09-.656.977-1.36-.113-.704-.654-1.1-1.354-.987zM86.108 206.065c-3.498.561-6.077 3.865-5.512 7.386.565 3.521 3.62 6.16 7.35 5.561 3.499-.561 6.078-3.864 5.513-7.385-.798-3.484-3.853-6.124-7.351-5.562zM54.313 162.677c-1.865.299-3.271 1.97-2.932 4.082.301 1.878 1.964 3.297 4.063 2.96 1.865-.3 3.271-1.97 2.932-4.082-.534-1.841-2.16-3.025-4.063-2.96z" fill="#fff"/><path d="M74.782 285.909c-1.296-.955-3.361-.865-4.514.701-.96 1.305-.884 3.373.672 4.518 1.296.955 3.361.865 4.514-.701.701-1.496.625-3.564-.672-4.518zM79.773 387.046c-1.296-.954-3.36-.865-4.513.701-.96 1.305-.884 3.373.671 4.519 1.297.954 3.362.864 4.514-.702.894-1.756.625-3.563-.671-4.518zM122.085 471.396c-1.296-.954-3.361-.864-4.514.702-.96 1.305-.884 3.373.671 4.518 1.297.954 3.362.864 4.514-.702.961-1.305.693-3.112-.671-4.518zM90.38 314.616c-.777-.572-1.68-.432-2.256.351-.577.783-.442 1.686.335 2.259.778.572 1.68.432 2.257-.351.577-.783.442-1.686-.335-2.259zM31.653 436.211c-2.074-1.527-5.042-1.297-6.771 1.052-1.537 2.088-1.326 5.06 1.007 6.778 2.075 1.526 5.042 1.297 6.771-1.052 1.278-2.279 1.067-5.251-1.007-6.778z" fill="#1B1B20"/></g><defs><clipPath id="clip0"><path fill="#fff" d="M0 0h245v483H0z"/></clipPath></defs></svg>