<svg width="1028" height="412" fill="none" xmlns="http://www.w3.org/2000/svg"><path d="M221.661 284.366c-1.178-16.822-8.538-33.218-20.242-45.546-5.305-5.987-11.515-11.05-17.725-16.113-7.67-6.147-16.424-10.819-25.536-14.39l-4.918-1.598c-4.005-.693-8.01-1.386-11.468-1.901-5.276-.498-10.732-.445-15.999.887-7.812 1.723-15.255 4.174-21.964 8.082-13.239 7.265-23.914 17.798-32.582 29.593-9.027 12.896-14.585 28.137-16.686 43.894-1.045 8.793-.819 17.391.68 25.793.377 2.558 1.121 5.844 2.045 8.58 2.77 8.207 6.446 15.49 12.118 22.205 5.305 5.987 12.608 11.405 19.722 15.544 6.568 3.962 13.494 6.822 19.873 9.504 5.286 2.328 10.384 3.376 16.207 4.051 8.556 1.564 17.649 1.476 25.818-1.349 10.893-3.765 19.957-9.343 28.833-16.2 6.539-1.527 10.883-5.595 15.038-10.941 4.155-5.347 8.489-11.245 12.645-16.591 4.513-6.449 8.658-13.625 11.165-21.334 2.327-7.159 3.561-14.673 2.976-22.17zm-52.7 7.833c-2.347 3.499-4.872 7.549-7.218 11.048-.904.924-2.176 1.12-3.081 2.043-4.164 3.517-8.508 7.585-13.219 10.924-2.903 1.492-5.984 3.535-8.707 4.476l-.546-.177c-1.272.195-2.912-.338-4.184-.142-3.826-1.244-7.651-2.487-11.298-4.281-4.193-1.972-8.207-4.496-12.042-7.569-.547-.178-.914-.906-1.282-1.634l-.735-1.456c-.377-2.558-.933-4.566-1.31-7.124.17-2.38.518-5.311.688-7.691 1.253-3.855 1.959-7.888 3.938-12.116l7.575-12.149 7.604-6.661c2.902-1.492 5.258-3.163 7.981-4.104.725-.373 1.272-.195 1.997-.568.547.177 1.272-.195 1.819-.018l7.105 2.31c4.56 2.7 8.395 5.773 12.777 9.024 3.656 3.624 7.312 7.248 10.243 11.245 1.281 1.634 1.838 3.641 2.573 5.098.367.728.555 2.007.923 2.736l-.358 1.101c-.349 2.931-.885 4.584-1.243 5.685zm1.234-7.514c-.189-1.279-.01-1.83-.199-3.109.189 1.279.378 2.558.199 3.109zm-37.25-28.548c-1.272.195-1.818.018-3.09.213 1.272-.195 2.365.16 3.09-.213zm-1.63 1.296c-1.272.196-2.176 1.12-3.448 1.315.904-.924 2.176-1.119 3.448-1.315z" fill="#68AFFF"/><path d="M133.797 237.859c-1.658 1.767-4.738 2.198-6.871.195-1.778-1.669-2.229-4.751-.24-6.87 1.658-1.766 4.738-2.197 6.872-.195 1.446 2.022 1.542 4.77.239 6.87zM208.393 148.422c-.332.353-1.353.727-1.709.393-.356-.335-.736-1.357-.404-1.711.332-.354 1.353-.728 1.709-.393.356.334 1.068 1.003.404 1.711zM172.321 109.903c-.332.354-1.352.727-1.708.393-.357-.335-.737-1.357-.405-1.711.333-.354 1.353-.727 1.709-.393.356.335.736 1.357.404 1.711zM160.424 114.024c-.332.354-1.353.728-1.709.393-.356-.334-.736-1.357-.404-1.711.332-.354 1.353-.727 1.709-.393.356.335.737 1.357.404 1.711zM139.361 72.319c-.333.354-1.353.727-1.709.393-.356-.335-.736-1.357-.404-1.71.332-.354 1.353-.728 1.709-.393.356.334.736 1.356.404 1.71zM157.107 315.553c-2.321 2.473-6.088 2.923-8.577.587-2.489-2.337-2.965-6.106-.644-8.578 2.321-2.473 6.089-2.923 8.578-.587 2.489 2.337 2.964 6.106.643 8.578zM129.115 206.197c-.995 1.06-2.369 1.099-3.436.097-1.066-1.001-1.114-2.375-.12-3.435.995-1.059 2.37-1.098 3.436-.097 1.067 1.001.783 2.729.12 3.435zM90.13 205.914c-.995 1.06-2.37 1.099-3.436.097-1.067-1.001-1.115-2.375-.12-3.435.995-1.059 2.37-1.098 3.436-.097 1.066 1.001.783 2.729.12 3.435zM127.425 174.032c-.332.354-1.352.727-1.708.393-.356-.334-.737-1.357-.404-1.711.332-.353 1.352-.727 1.708-.392.356.334.737 1.356.404 1.71zM115.529 178.154c-.333.354-1.353.727-1.71.392-.356-.334-.736-1.357-.404-1.711.332-.354 1.353-.727 1.709-.392.357.334.737 1.357.405 1.711zM148.399 148.138c-.332.354-1.353.728-1.709.393-.356-.334-.737-1.357-.404-1.711.332-.354 1.353-.727 1.709-.393.356.335.736 1.358.404 1.711z" fill="#fff"/><path d="M151.832 82.617c16.621-7.937 31.459 5.946 36.986 18.35 8.266 18.548 3.264 48.37-20.754 66.534-30.617 23.155-67.874 12.187-75.067-9.197-7.192-21.384 6.899-36.167 25.565-38.242 26.197-2.912 13.28-27.898 33.27-37.445z" stroke="#3B3B43" stroke-width="7.847"/><path d="M198.036 320.855c14.494-.013 20.335 14.872 20.063 25.554-.406 15.974-14.053 35.466-37.264 40.24-29.587 6.085-52.342-14.317-50.213-31.942 2.129-17.626 17.143-23.358 31.105-18.513 19.595 6.798 18.877-15.324 36.309-15.339z" stroke="#fff" stroke-width="3.139"/><path d="M93.306 82.848c.113.386.264.77.488 1.085a4.78 4.78 0 001.907 1.991c.672.383 1.343.696 2.015 1.044.671.348 1.305.731 1.977 1.08 1.38.765 2.835 1.46 4.179 2.261 1.231.697 2.536 1.217 3.767 1.843.858.418 1.679.87 2.574 1.252.858.382 1.752.73 2.61 1.076.634.278 1.231.521 1.865.764.82.347 1.677.66 2.535.901 1.155.346 2.458.446 3.648.09 1.041-.32 2.081-.85 2.822-1.625.964-.986 1.259-1.583 1.738-2.813.332-.808.403-1.614.511-2.492a8.175 8.175 0 00.028-2.14c-.115-.91-.231-1.822-.42-2.698-.191-.981-.418-1.962-.608-2.908-.001-.14-.039-.28-.039-.42a22.913 22.913 0 00-.193-1.578c-.116-.947-.268-1.858-.533-2.769a15.748 15.748 0 01-.493-2.207c-.229-1.472-.496-2.909-.874-4.345l-.566-1.891c-.227-.7-.527-1.401-.94-2.066a7.162 7.162 0 00-2.429-2.34c-1.082-.626-2.2-.867-3.428-.897-1.303-.03-2.456.361-3.57.927-1.115.53-2.117 1.271-3.082 2.012-.742.564-1.409 1.233-2.114 1.832-.371.318-.779.67-1.187.987-.334.282-.667.6-1.038.881-.817.6-1.671 1.165-2.562 1.66-.594.353-1.226.706-1.82 1.059-.594.388-1.15.812-1.67 1.305-.11.105-.185.21-.296.281-.297.212-.557.389-.78.635a4.38 4.38 0 01-.592.564c-.409.282-.817.634-1.113 1.021-.481.599-.963 1.162-1.332 1.83-.111.175-.185.351-.296.527a4.805 4.805 0 00-.663 1.686c0-.105.037-.176.036-.28-.11.56-.219 1.017-.29 1.684.113.385.151.77.228 1.191zm21.452 2.541c-.97-.417-1.828-.94-2.76-1.356-2.387-1.112-4.7-2.33-7.014-3.583.075-.07.149-.141.223-.177a.96.96 0 01.223-.176l1.671-.954a22.573 22.573 0 001.93-1.27c.928-.67 1.856-1.34 2.746-2.046.594-.493 1.188-.952 1.744-1.445.111-.106.222-.211.371-.317l.113.42c.304 1.437.459 2.91.837 4.345.152.631.341 1.262.455 1.927 0 .035.001.106.038.14.154 1.157.196 2.28.461 3.4.114.561.265 1.122.379 1.682-.522-.208-.969-.416-1.417-.59zM147.226 4.717c1.158-.265 2.102-1.462 1.781-2.858-.267-1.164-1.46-2.115-2.849-1.797-1.158.266-2.102 1.462-1.781 2.859.498 1.11 1.692 2.062 2.849 1.796zM74.938 115.112c.694-.16 1.05-.731.89-1.43-.16-.698-.73-1.057-1.424-.898-.695.159-1.05.731-.89 1.429.16.699.73 1.058 1.424.899zM50.375 51.065c1.852-.425 3.152-2.194 2.671-4.288-.427-1.863-2.19-3.173-4.274-2.695-1.852.425-3.152 2.193-2.671 4.288.659 1.809 2.422 3.12 4.274 2.695z" fill="#1B1B20"/><path d="M106.036 378.501c1.157-.266 2.101-1.462 1.78-2.859-.267-1.164-1.46-2.115-2.849-1.797-1.158.266-2.101 1.463-1.781 2.859a3.062 3.062 0 002.85 1.797zM5.857 370.164c1.621-.372 2.743-1.854 2.369-3.484-.374-1.629-1.852-2.76-3.473-2.388-1.62.371-2.742 1.854-2.368 3.483.374 1.63 1.852 2.761 3.472 2.389zM115.155 360.783c3.473-.797 5.842-4.28 5.04-7.772-.801-3.491-4.043-5.933-7.747-5.083-3.473.796-5.841 4.28-5.04 7.772 1.033 3.438 4.275 5.88 7.747 5.083zM54.375 239.082c1.852-.425 3.152-2.193 2.67-4.288-.427-1.862-2.19-3.173-4.273-2.695-1.852.425-3.152 2.193-2.671 4.288.659 1.809 2.368 2.887 4.274 2.695z" fill="#fff"/><path d="M1001.96 159.711c-1.06-15.113-7.671-29.843-18.185-40.918-4.766-5.379-10.345-9.927-15.924-14.476-6.89-5.522-14.755-9.72-22.941-12.927l-4.418-1.436c-3.598-.623-7.196-1.245-10.303-1.708-4.74-.447-9.642-.4-14.373.797-7.018 1.548-13.705 3.75-19.732 7.26-11.893 6.527-21.484 15.99-29.272 26.587-8.109 11.585-13.102 25.278-14.989 39.433-.94 7.899-.736 15.624.61 23.172.339 2.298 1.008 5.25 1.837 7.708 2.489 7.373 5.791 13.916 10.887 19.949 4.766 5.378 11.327 10.246 17.718 13.964 5.901 3.559 12.123 6.129 17.854 8.539 4.749 2.09 9.328 3.032 14.56 3.639 7.686 1.405 15.855 1.325 23.194-1.212 9.786-3.383 17.929-8.394 25.903-14.554 5.875-1.372 9.777-5.026 13.51-9.83 3.733-4.803 7.627-10.101 11.36-14.905 4.054-5.793 7.779-12.24 10.03-19.166 2.094-6.431 3.204-13.182 2.674-19.916zm-47.345 7.036c-2.108 3.144-4.376 6.782-6.484 9.926-.813.83-1.955 1.006-2.768 1.835-3.741 3.16-7.644 6.814-11.876 9.815-2.608 1.34-5.376 3.175-7.822 4.021l-.491-.16c-1.143.176-2.616-.303-3.758-.127-3.437-1.118-6.874-2.235-10.15-3.847-3.767-1.771-7.374-4.038-10.819-6.799-.491-.16-.821-.814-1.151-1.468l-.661-1.308c-.338-2.298-.838-4.102-1.176-6.4.152-2.139.465-4.771.617-6.91 1.126-3.463 1.761-7.086 3.538-10.884l6.805-10.915 6.832-5.984c2.607-1.341 4.723-2.841 7.17-3.687.651-.335 1.142-.175 1.794-.51.491.159 1.143-.176 1.634-.016l6.383 2.075c4.097 2.426 7.542 5.186 11.479 8.107 3.284 3.255 6.569 6.511 9.202 10.102 1.151 1.468 1.651 3.271 2.311 4.58.33.654.499 1.804.83 2.458l-.322.99c-.313 2.633-.796 4.117-1.117 5.106zm1.108-6.75c-.169-1.149-.008-1.644-.177-2.793.169 1.149.338 2.298.177 2.793zM922.26 134.35c-1.143.176-1.634.016-2.777.191 1.143-.175 2.125.144 2.777-.191zm-1.465 1.165c-1.143.175-1.955 1.005-3.098 1.181.813-.83 1.955-1.006 3.098-1.181z" fill="#06F"/><path d="M823.392 261.906c-12.863-19.043 1.53-39.915 15.815-49.025 21.361-13.622 59.082-12.955 85.928 13.329 34.223 33.506 27.566 81.502 2.507 94.323-25.059 12.822-45.9-1.836-51.906-24.486-8.428-31.787-36.875-11.237-52.344-34.141z" stroke="#fff" stroke-width="4"/><path d="M952.398 120.488c-1.051.241-1.907 1.327-1.616 2.594.242 1.056 1.325 1.92 2.586 1.631 1.05-.241 1.907-1.327 1.616-2.595-.243-1.056-1.326-1.919-2.586-1.63zM984.158 82.51c-1.051.242-1.908 1.328-1.617 2.595.243 1.057 1.326 1.92 2.587 1.631 1.05-.241 1.907-1.327 1.616-2.595-.243-1.056-1.277-1.708-2.586-1.63zM966.933 188.722c-1.051.241-1.907 1.327-1.616 2.595.242 1.057 1.325 1.92 2.586 1.631 1.05-.241 1.906-1.327 1.615-2.595-.452-1.008-1.535-1.872-2.585-1.631zM915.748 129.456c-1.05.241-1.907 1.326-1.616 2.594.242 1.056 1.325 1.919 2.586 1.63 1.05-.241 1.907-1.327 1.616-2.594-.243-1.056-1.487-1.66-2.586-1.63zM926.215 348.321c-1.05.241-1.907 1.327-1.616 2.594.243 1.056 1.326 1.92 2.586 1.631 1.051-.241 1.907-1.327 1.617-2.595-.453-1.008-1.536-1.871-2.587-1.63zM998.613 247.722c-1.051.241-1.907 1.327-1.616 2.594.242 1.057 1.325 1.92 2.586 1.631 1.047-.241 1.907-1.327 1.617-2.595-.24-1.056-1.327-1.919-2.587-1.63zM945.423 367.368c-.663-.959-1.277-1.708-2.311-2.36-.566-.538-1.503-.767-2.279-1.257-.517-.326-1.148-.181-1.73.175-.21.048-.371.307-.582.356l-.42.096c-.63.145-1.002.452-1.325.971-1.39 1.653-2.99 3.354-3.863 5.334-.436.989-.404 2.094.049 3.102.452 1.008 1.067 1.757 1.842 2.246.518.326 1.293.815 1.762.93l1.406.344c1.407.345 2.974.43 4.235.141.42-.096 1.051-.241 1.422-.549.582-.355.954-.663 1.277-1.182.534-.567.97-1.557 1.196-2.498.178-1.153.356-2.305.065-3.573-.146-.634-.34-1.479-.744-2.276zm-3.265 4.085c.049.211-.113.471-.016.893.049.211-.161.26-.113.471.049.211-.162.259-.372.308l-.21.048-.21.048-.63.145c-.469-.115-.889-.019-1.358-.134-.469-.115-.986-.441-1.665-.507l-.517-.327s-.048-.211-.258-.163l.161-.259c.808-1.297 1.875-2.431 2.893-3.777l1.035.652c.258.163.307.375.565.538.307.374.356.585.453 1.008l.242 1.056zM907.085 194.82c-.211.049-.583.357-.534.568.048.212.356.586.566.538.211-.048.583-.356.534-.568-.048-.211-.145-.634-.566-.538zM918.98 222.558c-.21.049-.583.357-.534.568.048.212.356.586.566.538.211-.048.583-.356.535-.568-.049-.211-.357-.586-.567-.538zM936.39 226.123c-.21.049-.582.357-.534.568.049.212.356.586.567.538.21-.048.582-.356.534-.568-.049-.211-.356-.586-.567-.538zM940.495 201.613c-.211.048-.583.356-.534.568.048.211.356.586.566.538.21-.049.582-.357.534-.568-.049-.211-.146-.634-.566-.538zM920.81 208.355c-.211.048-.583.356-.534.567.048.212.356.586.566.538.21-.048.582-.356.534-.567-.049-.212-.146-.635-.566-.538zM979.822 328.13c-.63.144-.953.663-.808 1.297.146.634.663.96 1.293.815.631-.144.954-.663.808-1.297-.145-.634-.662-.96-1.293-.815zM895.788 200.527c-.63.145-.953.664-.808 1.297.146.634.663.96 1.293.816.631-.145.954-.664.808-1.297-.145-.634-.662-.96-1.293-.816zM930.653 187.635c-.631.145-.954.664-.808 1.298.145.633.662.959 1.293.815.63-.145.953-.664.808-1.297-.146-.634-.663-.96-1.293-.816zM970.134 263.371c-.63.145-.954.664-.808 1.298.145.633.663.96 1.293.815.63-.145.954-.664.808-1.297-.145-.634-.663-.96-1.293-.816zM1002.12 386.257c-1.69.386-2.866 1.991-2.429 3.892.389 1.69 1.989 2.88 3.879 2.446 1.68-.386 2.86-1.991 2.42-3.892-.59-1.642-2.19-2.831-3.87-2.446zM814.516 30.02c-1.681.386-2.861 1.99-2.425 3.892.388 1.69 1.988 2.88 3.879 2.446 1.681-.386 2.861-1.99 2.425-3.892-.598-1.642-2.15-2.62-3.879-2.446z" fill="#fff"/><path d="M940.316 39.001c-1.158.266-2.101 1.462-1.781 2.859.267 1.164 1.461 2.115 2.85 1.796 1.157-.265 2.101-1.462 1.78-2.858A3.059 3.059 0 00940.316 39zM960.494 47.338c-1.62.371-2.742 1.854-2.368 3.483.374 1.63 1.852 2.76 3.472 2.39 1.621-.373 2.743-1.855 2.369-3.484-.374-1.63-1.852-2.76-3.473-2.39zM931.196 56.719c-3.473.796-5.841 4.28-5.04 7.771.802 3.492 4.043 5.934 7.748 5.084 3.472-.797 5.841-4.28 5.039-7.772-1.033-3.438-4.274-5.88-7.747-5.083z" fill="#1B1B20"/></svg>